<svg width="134" height="89" viewBox="0 0 134 89" fill="none" xmlns="http://www.w3.org/2000/svg">
<path d="M6.00486 88.2437H127.696C132.208 88.2437 135.102 83.4467 132.998 79.4557L127.307 68.6607C126.27 66.6937 124.229 65.4626 122.005 65.4626H14.0389C12.1449 65.4626 10.3619 66.3576 9.23087 67.8776L1.19587 78.6727C-1.74613 82.6257 1.07586 88.2437 6.00486 88.2437Z" fill="#AFC547"/>
<path d="M126.711 87.0937H5.01886C4.92786 87.0937 4.85486 87.0207 4.85486 86.9297C4.85486 86.8387 4.92786 86.7657 5.01886 86.7657H126.711C126.802 86.7657 126.875 86.8397 126.875 86.9297C126.875 87.0207 126.801 87.0937 126.711 87.0937Z" fill="#3A2127"/>
<path d="M46.2789 59.2306C47.1889 59.9436 48.0399 60.6766 48.8349 61.4156C54.9759 67.1226 57.8309 73.3386 58.7839 75.7736C59.0469 76.4536 59.1649 76.8376 59.1649 76.8376L61.7009 63.7616L64.0069 51.8646L54.0519 51.4866L51.5579 51.3916L51.1999 51.3786L49.1429 51.2996C44.8359 51.1386 42.8849 56.5696 46.2789 59.2306Z" fill="#F4E0C7"/>
<path d="M34.5938 75.2396H54.1009C55.1829 75.2396 55.9968 74.2267 55.7358 73.1767C55.2768 71.3357 54.2189 69.7427 52.7909 68.6037C51.0949 67.2507 48.8789 66.5376 46.5279 66.8086L32.7148 68.4017V73.3607C32.7148 74.3987 33.5558 75.2396 34.5938 75.2396Z" fill="#7A4438"/>
<path d="M51.3869 75.4036C51.2959 75.4036 51.2229 75.3306 51.2229 75.2396C51.2229 73.7826 50.5689 72.4256 49.4299 71.5166C48.4329 70.7206 47.1859 70.3637 45.9169 70.5097C45.8269 70.5227 45.7449 70.4556 45.7349 70.3656C45.7249 70.2756 45.7889 70.1936 45.8789 70.1836C47.2339 70.0276 48.5689 70.4097 49.6349 71.2597C50.8529 72.2317 51.5519 73.6826 51.5519 75.2396C51.5509 75.3306 51.4779 75.4036 51.3869 75.4036Z" fill="#3A2127"/>
<path d="M24.0799 80.1676H43.5869C44.6689 80.1676 45.4829 79.1537 45.2219 78.1037C44.7629 76.2627 43.7049 74.6696 42.2779 73.5306C40.5819 72.1776 38.3659 71.4647 36.0149 71.7357L22.2009 73.3297V78.2887C22.2009 79.3267 23.0419 80.1676 24.0799 80.1676Z" fill="#F4E0C7"/>
<path d="M40.8729 80.3326C40.7819 80.3326 40.7089 80.2586 40.7089 80.1686C40.7089 78.7116 40.0549 77.3546 38.9159 76.4456C37.9189 75.6506 36.6719 75.2936 35.4029 75.4386C35.3139 75.4506 35.2309 75.3846 35.2209 75.2946C35.2109 75.2046 35.2749 75.1236 35.3649 75.1126C36.7209 74.9566 38.0549 75.3386 39.1209 76.1886C40.3389 77.1606 41.0379 78.6116 41.0379 80.1686C41.0379 80.2586 40.9639 80.3326 40.8729 80.3326Z" fill="#3A2127"/>
<path d="M45.2209 78.2687C45.1469 78.2687 45.0799 78.2187 45.0619 78.1437C44.6249 76.3887 43.5989 74.7967 42.1739 73.6597C40.4319 72.2687 38.2499 71.6447 36.0329 71.8997L23.5899 73.3347C23.4989 73.3477 23.4179 73.2807 23.4079 73.1907C23.3979 73.1007 23.4619 73.0197 23.5519 73.0087L35.9949 71.5737C38.2999 71.3077 40.5669 71.9577 42.3789 73.4037C43.8599 74.5857 44.9259 76.2407 45.3809 78.0647C45.4029 78.1527 45.3489 78.2417 45.2609 78.2637C45.2479 78.2677 45.2339 78.2687 45.2209 78.2687Z" fill="#3A2127"/>
<path d="M82.9139 24.1646C81.2059 25.9156 78.3958 25.9486 76.6418 24.2406C76.0508 23.6586 75.4588 23.1036 74.8738 22.5686C73.9508 21.7246 73.0409 20.9326 72.1399 20.1896C67.5859 16.4306 63.3119 13.9046 59.5269 12.2156C58.4299 11.7256 57.3719 11.3056 56.3599 10.9476C55.0199 10.4716 53.7579 10.0996 52.5919 9.81464C52.3589 9.75864 52.1249 9.70264 51.8989 9.65364C51.4419 9.55164 51.0049 9.46264 50.5819 9.38764C50.5719 9.38464 50.5589 9.38464 50.5489 9.38064C50.1939 9.31864 49.8459 9.25864 49.4979 9.20964C48.6599 9.08464 47.8489 8.99964 47.0669 8.94664C45.3419 8.83164 43.7578 8.88364 42.3228 9.05864C38.8038 9.49564 36.1859 10.6746 34.6179 11.9896C34.5589 12.0426 34.5029 12.0916 34.4439 12.1436C33.4319 13.0376 32.6529 14.1316 32.1509 15.3466C31.6779 16.4806 31.4448 17.7156 31.4778 18.9866C31.5538 21.7136 32.8449 24.2136 35.0229 25.8496L36.3998 26.8816C38.3578 28.3536 38.7518 31.1326 37.2838 33.0916C36.4098 34.2476 35.0788 34.8656 33.7318 34.8656C32.8048 34.8656 31.8689 34.5766 31.0709 33.9756L29.6978 32.9406C25.3408 29.6746 22.7588 24.6746 22.6108 19.2236C22.4658 13.7956 24.7629 8.68364 28.9189 5.19764C30.8969 3.53464 33.2659 2.26364 35.9269 1.39264C37.0699 1.01764 38.2658 0.715644 39.5078 0.489644C40.6478 0.285644 41.8279 0.144643 43.0369 0.0686427C44.4139 -0.0163573 45.8329 -0.0203575 47.2849 0.0656425C48.8819 0.157642 50.5178 0.354644 52.1798 0.660644C52.8078 0.775644 53.4679 0.910643 54.1549 1.07164C55.8929 1.47264 57.8049 2.02464 59.8619 2.77964C60.6339 3.06564 61.4289 3.37764 62.2439 3.72564C62.5759 3.86364 62.9079 4.01164 63.2459 4.16564C64.1529 4.56964 65.0789 5.01364 66.0259 5.50564C66.0919 5.53864 66.1568 5.57464 66.2228 5.60764C68.8878 6.99364 71.6999 8.72264 74.6139 10.8676C75.2739 11.3576 75.9449 11.8666 76.6179 12.3986C78.6549 14.0146 80.7349 15.8356 82.8409 17.8916C84.5929 19.6006 84.6259 22.4096 82.9139 24.1646Z" fill="#7A4438"/>
<path d="M70.6849 73.9846C71.3129 74.7836 72.1599 75.4366 73.2969 75.8506C74.0989 76.1426 75.0449 76.3166 76.1549 76.3366C79.4469 76.3956 83.0779 76.7376 86.4879 77.1706C88.5219 77.4306 90.4799 77.7226 92.2409 78.0056C94.0579 78.2976 95.6679 78.5836 96.9289 78.8136C97.8059 78.9746 98.5189 79.1056 99.0189 79.2016C99.2919 79.2536 99.5639 79.3006 99.8339 79.3426C101.812 79.6546 103.678 79.7306 105.291 79.3956C107.824 78.8736 109.684 77.5586 110.13 75.6896C110.196 75.4066 110.229 75.1206 110.229 74.8316C110.229 72.1476 107.315 69.5056 103.237 67.9486C102.241 67.5676 100.852 67.1236 99.1559 66.7496C98.1179 66.5136 96.9739 66.2896 95.7549 66.0766C95.4759 66.0236 95.1899 65.9776 94.9009 65.9286C94.1749 65.8066 93.4219 65.6886 92.6569 65.5736C92.6369 65.5706 92.6179 65.5666 92.5979 65.5636C91.7539 65.4356 90.8899 65.3136 90.0159 65.1956C88.5539 64.9986 87.0689 64.8116 85.5969 64.6366C77.4289 63.6736 69.7479 63.1126 69.7479 63.1126C69.7479 63.1126 67.6979 70.1826 70.6849 73.9846Z" fill="#7A4438"/>
<path d="M104.837 79.5387C104.803 79.5387 104.769 79.5287 104.74 79.5067C104.667 79.4527 104.651 79.3507 104.705 79.2767C105.027 78.8377 105.114 78.4097 104.97 77.9657C104.405 76.2267 100.534 74.9727 100.495 74.9607C100.409 74.9327 100.361 74.8406 100.389 74.7546C100.416 74.6676 100.509 74.6207 100.595 74.6477C100.761 74.7007 104.666 75.9656 105.283 77.8647C105.46 78.4076 105.354 78.9487 104.97 79.4717C104.938 79.5157 104.888 79.5387 104.837 79.5387Z" fill="#3A2127"/>
<path d="M78.8368 58.7647L62.6298 58.9617L59.2128 59.0047L50.6348 59.1097L49.8728 59.1197C49.5378 59.8657 49.1468 60.5947 48.7028 61.3017C48.5778 61.5057 48.4468 61.7027 48.3118 61.9027C47.8348 62.6087 47.3028 63.2927 46.7218 63.9527C45.9888 64.7937 45.1708 65.5927 44.2838 66.3447C43.6658 66.8707 43.0188 67.3697 42.3358 67.8427C41.3668 68.5257 40.3348 69.1567 39.2478 69.7317C34.4578 72.2677 28.5698 73.7627 22.1998 73.7627C22.1998 73.7627 22.2618 46.7027 22.3308 46.2067C23.5268 32.9167 28.4058 25.7217 38.0028 22.8107C38.7388 22.5837 39.4848 22.3997 40.2408 22.2457C40.9668 22.0977 41.6998 21.9867 42.4418 21.9077C43.2828 21.8157 44.1338 21.7697 44.9948 21.7697C46.7358 21.7697 48.4418 21.9567 50.1008 22.3217C51.6748 22.6637 53.2088 23.1597 54.6938 23.8067C55.7288 24.2507 56.7338 24.7697 57.7128 25.3507C57.7718 25.3837 57.8278 25.4197 57.8838 25.4527C58.1208 25.5977 58.3538 25.7417 58.5868 25.8927C59.7858 26.6647 60.9948 27.5687 62.2008 28.5837C62.2038 28.5907 62.2108 28.5937 62.2138 28.5967H62.2168C62.8968 29.1717 63.5738 29.7827 64.2438 30.4297C65.2298 31.3727 66.2018 32.3907 67.1448 33.4717L67.8678 34.3157C68.3998 34.9527 68.9258 35.6097 69.4348 36.2867C70.6308 37.8607 71.7608 39.5357 72.7988 41.2877C75.6278 46.0647 77.7568 51.4037 78.5948 56.8477C78.6708 57.3147 78.7328 57.7837 78.7818 58.2537C78.8038 58.4257 78.8198 58.5937 78.8368 58.7647Z" fill="#F4E0C7"/>
<path d="M67.8668 34.3167C67.8668 34.3167 65.8038 37.1787 63.0798 40.3717C58.5718 45.6577 52.2538 51.8577 50.5188 47.4687C47.7358 40.4247 42.7418 37.3757 42.7418 37.3757C42.7418 37.3757 21.5408 52.2917 30.8518 32.9077C33.5358 27.3157 36.8608 24.0567 40.2388 22.2457C40.9648 22.0977 41.6978 21.9867 42.4398 21.9077C43.2808 21.8157 44.1318 21.7697 44.9928 21.7697C46.7338 21.7697 48.4398 21.9567 50.0988 22.3217C51.6728 22.6637 53.2068 23.1597 54.6918 23.8067C55.7268 24.2507 56.7318 24.7697 57.7108 25.3507C57.7698 25.3837 57.8258 25.4197 57.8818 25.4527C58.1188 25.5977 58.3518 25.7417 58.5848 25.8927C59.7838 26.6647 60.9928 27.5687 62.1988 28.5837C62.2018 28.5907 62.2088 28.5937 62.2118 28.5967H62.2148C62.8948 29.1717 63.5718 29.7827 64.2418 30.4297C65.2278 31.3727 66.1998 32.3907 67.1428 33.4717L67.8668 34.3167Z" fill="#F46831"/>
<path d="M69.4338 36.2877C68.1428 37.7497 65.8918 39.8817 63.0798 40.3717C61.9138 40.5757 60.6518 40.4997 59.3248 39.9777C54.5078 38.0857 61.2138 33.3807 64.2428 30.4297C65.2288 31.3727 66.2008 32.3907 67.1438 33.4717L67.8668 34.3157C68.3988 34.9547 68.9238 35.6117 69.4338 36.2877Z" fill="#7A4438"/>
<path d="M60.8769 49.4637L66.7399 45.7807C66.7399 45.7807 66.1099 42.3597 65.0659 39.8807C64.3499 38.1897 63.4429 36.9357 62.4059 37.5187C61.7609 37.8857 61.3419 38.8187 61.0799 40.0107C60.3059 43.5307 60.8769 49.3217 60.8769 49.4637Z" fill="#F4E0C7"/>
<path d="M65.2169 39.8167C64.5889 38.3327 63.9589 37.4997 63.2899 37.2717C62.9679 37.1617 62.6429 37.1967 62.3259 37.3757C61.6939 37.7347 61.2209 38.6087 60.9209 39.9747C60.4649 42.0477 60.3869 45.3577 60.7009 49.2947C60.7089 49.3897 60.7139 49.4487 60.7139 49.4637C60.7139 49.5547 60.7869 49.6277 60.8779 49.6277C60.9689 49.6277 61.0419 49.5537 61.0419 49.4637C61.0419 49.4497 61.0369 49.3817 61.0279 49.2687C60.7159 45.3637 60.7919 42.0877 61.2419 40.0457C61.5209 38.7747 61.9409 37.9737 62.4879 37.6617C62.7239 37.5297 62.9519 37.5037 63.1849 37.5827C63.7439 37.7737 64.3429 38.5907 64.9149 39.9447C65.9399 42.3787 66.5729 45.7757 66.5789 45.8107C66.5939 45.8897 66.6629 45.9447 66.7399 45.9447C66.7499 45.9447 66.7599 45.9437 66.7699 45.9417C66.8589 45.9257 66.9179 45.8397 66.9019 45.7507C66.8949 45.7157 66.2559 42.2837 65.2169 39.8167Z" fill="#3A2127"/>
<path d="M84.4319 49.4637L78.5688 45.7807C78.5688 45.7807 79.1989 42.3597 80.2429 39.8807C80.9589 38.1897 81.8659 36.9357 82.9029 37.5187C83.5479 37.8857 83.9669 38.8187 84.2289 40.0107C85.0029 43.5307 84.4319 49.3217 84.4319 49.4637Z" fill="#7A4438"/>
<path d="M99.9559 80.3077C99.9559 80.5967 99.9229 80.8827 99.8569 81.1647C99.4099 83.0337 97.5509 84.3487 95.0169 84.8707C93.8369 85.1167 80.7379 84.0497 70.7699 82.1007C69.3609 81.8247 68.0129 81.5327 66.7709 81.2237H66.7679C63.1309 80.3137 60.3969 79.2587 59.6319 78.1027C59.3489 77.6717 59.1329 77.0547 58.9719 76.2887V76.2857C58.5249 74.1727 58.5019 70.9567 58.6429 67.5527C58.6759 66.6887 58.7249 65.8117 58.7779 64.9377C58.8309 64.0637 58.8899 63.1967 58.9519 62.3457C59.0369 61.1857 59.1289 60.0616 59.2109 59.0046C59.2499 58.5186 59.2869 58.0487 59.3229 57.5947C59.3529 57.2197 59.3789 56.8587 59.4019 56.5137C59.4579 55.7877 59.4999 55.1237 59.5299 54.5427C59.5789 53.5737 59.7169 52.6277 59.9439 51.7137C59.9799 51.5627 60.0199 51.4117 60.0589 51.2567C60.3579 50.1887 60.7689 49.1707 61.2779 48.2177C63.4269 44.2287 67.3589 41.4367 72.1629 41.2917C72.3769 41.2847 72.5869 41.2847 72.7969 41.2887C73.7499 41.3047 74.6799 41.4237 75.5729 41.6407C76.8539 41.9467 78.0669 42.4427 79.1739 43.1027C82.4559 45.0477 84.8249 48.3956 85.4359 52.3087C85.4889 52.6437 85.5279 52.9857 85.5539 53.3307C85.5799 53.6557 85.5929 53.9877 85.5929 54.3197V71.5687C86.7689 71.7787 87.8769 71.9956 88.8819 72.2256C90.5769 72.6006 91.9669 73.0437 92.9629 73.4247C96.5509 74.7947 99.2379 77.0057 99.8299 79.3417C99.9129 79.6637 99.9559 79.9857 99.9559 80.3077Z" fill="#F4E0C7"/>
<path d="M61.2809 48.3806C61.2549 48.3806 61.2279 48.3746 61.2029 48.3606C61.1229 48.3176 61.0929 48.2176 61.1369 48.1376C63.4269 43.8856 67.5489 41.2646 72.1619 41.1256C72.3779 41.1186 72.5909 41.1186 72.8039 41.1226C72.8949 41.1236 72.9669 41.1986 72.9659 41.2896C72.9639 41.3806 72.8979 41.4376 72.7989 41.4516C72.5919 41.4486 72.3839 41.4486 72.1729 41.4546C67.6789 41.5896 63.6619 44.1466 61.4269 48.2936C61.3959 48.3486 61.3399 48.3806 61.2809 48.3806Z" fill="#3A2127"/>
<path d="M85.4369 52.3086C84.4809 53.8466 83.0119 54.5196 80.3409 54.0396C77.2199 53.4806 72.8869 51.7236 72.6529 47.3996C72.1939 38.9096 78.9349 43.1016 79.1749 43.1016C82.4579 45.0476 84.8259 48.3956 85.4369 52.3086Z" fill="#7A4438"/>
<path d="M99.9599 80.4696C99.8689 80.4696 99.7959 80.3956 99.7959 80.3056C99.7959 77.8156 97.0929 75.1736 92.9099 73.5756C92.0719 73.2556 90.6879 72.7886 88.8519 72.3836C87.5949 72.0996 86.1669 71.8236 84.6059 71.5636C83.8609 71.4386 83.0898 71.3176 82.3048 71.1996C81.4608 71.0716 80.5979 70.9496 79.7249 70.8316C79.6349 70.8196 79.5719 70.7366 79.5839 70.6466C79.5959 70.5566 79.6789 70.4936 79.7689 70.5056C80.6439 70.6236 81.5089 70.7456 82.3539 70.8736C83.1399 70.9916 83.9129 71.1136 84.6599 71.2386C86.2269 71.4996 87.6619 71.7766 88.9239 72.0616C90.7779 72.4716 92.1789 72.9436 93.0269 73.2676C97.3379 74.9146 100.124 77.6766 100.124 80.3046C100.124 80.3956 100.05 80.4696 99.9599 80.4696Z" fill="#3A2127"/>
<path d="M94.5668 85.0107C94.5328 85.0107 94.4988 85.0007 94.4698 84.9787C94.3968 84.9247 94.3808 84.8227 94.4348 84.7487C94.7568 84.3097 94.8438 83.8817 94.6998 83.4377C94.1348 81.6987 90.2638 80.4447 90.2248 80.4327C90.1388 80.4047 90.0908 80.3127 90.1188 80.2257C90.1458 80.1387 90.2388 80.0917 90.3248 80.1187C90.4908 80.1717 94.3958 81.4367 95.0128 83.3357C95.1898 83.8787 95.0838 84.4197 94.6998 84.9427C94.6678 84.9877 94.6178 85.0107 94.5668 85.0107Z" fill="#3A2127"/>
<path d="M85.5978 71.6696C85.5068 71.6696 85.4338 71.5966 85.4338 71.5056V54.3166C85.4338 51.3566 84.3928 48.4606 82.5028 46.1636C82.4448 46.0936 82.4548 45.9896 82.5248 45.9326C82.5948 45.8746 82.6988 45.8846 82.7558 45.9546C84.6948 48.3106 85.7618 51.2806 85.7618 54.3166V71.5056C85.7618 71.5966 85.6888 71.6696 85.5978 71.6696Z" fill="#3A2127"/>
<path d="M72.6539 54.1247C72.5629 54.1247 72.4899 54.0517 72.4899 53.9607V52.7557C72.4899 52.6647 72.5629 52.5917 72.6539 52.5917C72.7449 52.5917 72.8178 52.6657 72.8178 52.7557V53.9607C72.8178 54.0517 72.7449 54.1247 72.6539 54.1247Z" fill="#3A2127"/>
<path d="M73.7528 51.6577C73.7528 52.2647 73.2608 52.7567 72.6538 52.7567C72.0468 52.7567 71.5548 52.2647 71.5548 51.6577C71.5548 51.0507 72.6538 52.0717 72.6538 52.0717C72.6538 52.0717 73.7528 51.0507 73.7528 51.6577Z" fill="#3A2127"/>
<path d="M74.7939 47.4276C74.7899 47.4276 74.7869 47.4276 74.7829 47.4276C74.6919 47.4216 74.6239 47.3436 74.6299 47.2536L74.9169 42.8186C74.9229 42.7276 75.0039 42.6616 75.0919 42.6656C75.1829 42.6716 75.2509 42.7496 75.2449 42.8396L74.9569 47.2756C74.9519 47.3616 74.8789 47.4276 74.7939 47.4276Z" fill="#F4E0C7"/>
<path d="M75.3328 47.5636C75.3068 47.5636 75.2798 47.5576 75.2548 47.5436C75.1748 47.5006 75.1458 47.4006 75.1888 47.3206L76.3248 45.2336C76.3678 45.1536 76.4678 45.1246 76.5478 45.1676C76.6268 45.2106 76.6568 45.3106 76.6138 45.3906L75.4778 47.4776C75.4468 47.5326 75.3908 47.5636 75.3328 47.5636Z" fill="#F4E0C7"/>
<path d="M70.6258 47.4276C70.5398 47.4276 70.4678 47.3606 70.4618 47.2736L70.1738 42.8376C70.1678 42.7476 70.2368 42.6686 70.3268 42.6636C70.4178 42.6606 70.4958 42.7266 70.5018 42.8166L70.7888 47.2516C70.7948 47.3416 70.7258 47.4206 70.6358 47.4256C70.6328 47.4276 70.6288 47.4276 70.6258 47.4276Z" fill="#3A2127"/>
<path d="M70.0868 47.5636C70.0288 47.5636 69.9718 47.5326 69.9428 47.4776L68.8068 45.3906C68.7638 45.3106 68.7929 45.2116 68.8729 45.1676C68.9529 45.1236 69.0528 45.1536 69.0958 45.2336L70.2318 47.3206C70.2748 47.4006 70.2459 47.4996 70.1659 47.5436C70.1399 47.5566 70.1128 47.5636 70.0868 47.5636Z" fill="#3A2127"/>
<path d="M74.8618 49.9037C74.8618 50.7377 75.6698 51.4417 76.8068 51.7137C76.9478 51.7497 77.0928 51.7757 77.2438 51.7957C77.4308 51.8157 77.6278 51.8317 77.8318 51.8317C78.1928 51.8317 78.5378 51.7887 78.8568 51.7107C79.9908 51.4447 80.7988 50.7347 80.7988 49.9037C80.7988 49.0787 79.9938 48.3697 78.8608 48.0997C78.5388 48.0207 78.1938 47.9787 77.8328 47.9787C77.6288 47.9787 77.4318 47.9917 77.2448 48.0147C77.0938 48.0347 76.9488 48.0607 76.8078 48.0967C75.6698 48.3657 74.8618 49.0757 74.8618 49.9037Z" fill="white"/>
<path d="M75.9199 49.9037C75.9199 50.6687 76.2749 51.3357 76.8069 51.7137C76.9479 51.7497 77.0929 51.7757 77.2439 51.7957C77.4309 51.8157 77.6279 51.8317 77.8319 51.8317C78.1929 51.8317 78.5379 51.7887 78.8569 51.7107C79.3889 51.3327 79.7439 50.6657 79.7439 49.9037C79.7439 49.1477 79.3919 48.4807 78.8599 48.0997C78.5379 48.0207 78.1929 47.9787 77.8319 47.9787C77.6279 47.9787 77.4309 47.9917 77.2439 48.0147C77.0929 48.0347 76.9479 48.0607 76.8069 48.0967C76.2749 48.4737 75.9199 49.1447 75.9199 49.9037Z" fill="#3A2127"/>
<path d="M77.8308 51.9947C77.6398 51.9947 77.4418 51.9827 77.2238 51.9577C75.7358 51.7617 74.6989 50.9177 74.6989 49.9037C74.6989 48.9067 75.7599 48.0427 77.2209 47.8507C77.4419 47.8257 77.6408 47.8137 77.8308 47.8137C79.5578 47.8137 80.9639 48.7517 80.9639 49.9037C80.9629 51.0567 79.5578 51.9947 77.8308 51.9947ZM77.8308 48.1427C77.6538 48.1427 77.4669 48.1537 77.2609 48.1777C75.9679 48.3487 75.0269 49.0747 75.0269 49.9047C75.0269 50.7347 75.9679 51.4617 77.2639 51.6327C77.4659 51.6557 77.6528 51.6667 77.8308 51.6667C79.3768 51.6667 80.6349 50.8767 80.6349 49.9047C80.6349 48.9327 79.3768 48.1427 77.8308 48.1427Z" fill="#3A2127"/>
<path d="M64.5088 49.9037C64.5088 50.7377 65.3168 51.4417 66.4538 51.7137C66.5948 51.7497 66.7398 51.7757 66.8908 51.7957C67.0778 51.8157 67.2748 51.8317 67.4788 51.8317C67.8398 51.8317 68.1848 51.7887 68.5038 51.7107C69.6368 51.4447 70.4458 50.7347 70.4458 49.9037C70.4458 49.0787 69.6408 48.3697 68.5078 48.0997C68.1858 48.0207 67.8408 47.9787 67.4798 47.9787C67.2758 47.9787 67.0788 47.9917 66.8918 48.0147C66.7408 48.0347 66.5958 48.0607 66.4548 48.0967C65.3168 48.3657 64.5088 49.0757 64.5088 49.9037Z" fill="white"/>
<path d="M65.5669 49.9037C65.5669 50.6687 65.9219 51.3357 66.4539 51.7137C66.5949 51.7497 66.7399 51.7757 66.8909 51.7957C67.0779 51.8157 67.2749 51.8317 67.4789 51.8317C67.8399 51.8317 68.1849 51.7887 68.5039 51.7107C69.0359 51.3327 69.3909 50.6657 69.3909 49.9037C69.3909 49.1477 69.0389 48.4807 68.5069 48.0997C68.1849 48.0207 67.8399 47.9787 67.4789 47.9787C67.2749 47.9787 67.0779 47.9917 66.8909 48.0147C66.7399 48.0347 66.5949 48.0607 66.4539 48.0967C65.9219 48.4737 65.5669 49.1447 65.5669 49.9037Z" fill="#3A2127"/>
<path d="M67.4778 51.9947C67.2868 51.9947 67.0888 51.9827 66.8708 51.9577C65.3828 51.7617 64.3458 50.9177 64.3458 49.9037C64.3458 48.9067 65.4068 48.0427 66.8688 47.8507C67.0898 47.8257 67.2888 47.8137 67.4788 47.8137C69.2058 47.8137 70.6118 48.7517 70.6118 49.9037C70.6108 51.0567 69.2058 51.9947 67.4778 51.9947ZM67.4778 48.1427C67.2998 48.1427 67.1138 48.1537 66.9078 48.1777C65.6148 48.3487 64.6738 49.0747 64.6738 49.9047C64.6738 50.7347 65.6148 51.4617 66.9108 51.6327C67.1128 51.6557 67.2998 51.6667 67.4778 51.6667C69.0238 51.6667 70.2818 50.8767 70.2818 49.9047C70.2818 48.9327 69.0238 48.1427 67.4778 48.1427Z" fill="#3A2127"/>
<path d="M29.0279 73.3356C28.9499 73.3356 28.8799 73.2796 28.8659 73.1996C28.8499 73.1106 28.9099 73.0247 28.9989 73.0097C39.3879 71.1857 47.5209 65.3676 50.2249 57.8246C50.8489 56.0886 51.1649 54.2877 51.1649 52.4687C51.1649 48.9057 49.9259 45.3837 47.5809 42.2837C46.1619 40.4067 44.3639 38.7006 42.2359 37.2136C42.1619 37.1616 42.1439 37.0596 42.1959 36.9846C42.2479 36.9106 42.3499 36.8926 42.4249 36.9446C44.5809 38.4516 46.4039 40.1816 47.8439 42.0856C50.2319 45.2426 51.4949 48.8337 51.4949 52.4687C51.4949 54.3247 51.1719 56.1646 50.5359 57.9356C47.7919 65.5886 39.5619 71.4886 29.0569 73.3326C29.0469 73.3346 29.0369 73.3356 29.0279 73.3356Z" fill="#3A2127"/>
<path d="M71.8138 55.6996C71.8138 54.7396 72.1899 53.9606 72.6539 53.9606C73.1179 53.9606 73.4939 54.7386 73.4939 55.6996C73.4939 56.6596 73.1179 57.4386 72.6539 57.4386C72.1899 57.4376 71.8138 56.6596 71.8138 55.6996Z" fill="#3A2127"/>
<path d="M59.3259 57.7567C59.3219 57.7567 59.3169 57.7567 59.3129 57.7567C59.2229 57.7497 59.1549 57.6706 59.1619 57.5806C59.2379 56.5936 59.3228 55.4597 59.3698 54.5337C59.4848 52.2887 60.0959 50.0776 61.1389 48.1406C61.1819 48.0606 61.2819 48.0306 61.3619 48.0736C61.4419 48.1166 61.4719 48.2166 61.4289 48.2966C60.4089 50.1916 59.8109 52.3537 59.6989 54.5507C59.6519 55.4807 59.5669 56.6167 59.4909 57.6067C59.4829 57.6917 59.4109 57.7567 59.3259 57.7567Z" fill="#3A2127"/>
<path d="M22.3319 46.3696C22.3269 46.3696 22.3219 46.3696 22.3169 46.3686C22.2269 46.3606 22.1599 46.2806 22.1679 46.1906C23.3679 32.8596 28.2369 25.5996 37.9559 22.6516C39.4259 22.2076 40.9299 21.9016 42.4249 21.7416C42.5159 21.7336 42.5959 21.7976 42.6059 21.8876C42.6159 21.9776 42.5499 22.0586 42.4599 22.0686C40.9849 22.2256 39.5019 22.5276 38.0519 22.9656C28.4799 25.8696 23.6819 33.0406 22.4959 46.2196C22.4879 46.3056 22.4159 46.3696 22.3319 46.3696Z" fill="#3A2127"/>
<path d="M71.4419 13.8497C73.1969 17.0237 75.6178 21.1957 74.8748 22.5657C75.4598 23.1007 76.0508 23.6597 76.6428 24.2377C78.3968 25.9457 81.2069 25.9137 82.9149 24.1617C84.6269 22.4077 84.5939 19.5977 82.8389 17.8897C80.7329 15.8327 78.6528 14.0127 76.6158 12.3997C75.9428 11.8647 75.2718 11.3547 74.6118 10.8657C72.1808 10.8107 70.0749 11.3857 71.4419 13.8497Z" fill="#F46831"/>
<path d="M42.3218 9.05565C43.7578 8.88165 45.3408 8.82865 47.0658 8.94365C47.4138 6.40765 47.6998 2.64165 47.2828 0.0626527C45.8308 -0.0233473 44.4108 -0.019349 43.0348 0.065651C42.3158 2.68865 42.2598 6.52665 42.3218 9.05565Z" fill="#F4E0C7"/>
<path d="M35.9248 1.39066C36.6708 3.40466 37.8168 5.47766 39.1738 4.42666C40.4878 3.40766 40.1398 1.80466 39.5058 0.490662C38.2648 0.713662 37.0688 1.01666 35.9248 1.39066Z" fill="#F46831"/>
<path d="M37.4229 51.8307C37.4229 51.8307 33.8379 44.6597 32.7149 40.6347C31.5919 36.6097 39.0659 39.2557 41.6939 44.7507C44.3219 50.2447 41.2829 57.8517 37.4229 51.8307Z" fill="#7A4438"/>
<path d="M54.5899 28.3696C52.4179 26.7336 54.8259 25.8296 57.7109 25.3506C57.7699 25.3836 57.8259 25.4196 57.8819 25.4526C58.1189 25.5976 58.3519 25.7416 58.5849 25.8926C59.7839 26.6646 60.9929 27.5686 62.1989 28.5836C59.9419 29.3166 56.9749 30.1666 54.5899 28.3696Z" fill="#F4E0C7"/>
<path d="M59.5278 12.2146C58.4308 11.7246 57.3728 11.3046 56.3608 10.9466C55.0208 10.4706 53.7588 10.0986 52.5928 9.81365C52.3598 9.75765 52.1258 9.70165 51.8998 9.65265C51.4428 9.55065 51.0058 9.46165 50.5828 9.38665C50.5728 9.38365 50.5598 9.38365 50.5498 9.37965C51.1218 7.19465 52.3078 3.14665 54.1538 1.07065C55.8918 1.47165 57.8038 2.02365 59.8608 2.77865C60.7568 5.47365 60.4378 9.40565 59.5278 12.2146Z" fill="#F46831"/>
</svg>
