<svg width="85" height="81" viewBox="0 0 85 81" fill="none" xmlns="http://www.w3.org/2000/svg">
<path d="M49.8264 40.2184C53.2327 33.5482 53.1657 26.6967 49.677 24.9151C46.1882 23.1335 40.5986 27.0964 37.1924 33.7666C33.7861 40.4368 33.8531 47.2883 37.3419 49.07C40.8307 50.8516 46.4202 46.8886 49.8264 40.2184Z" fill="#7A7067"/>
<path d="M16.262 19.0633V42.9363C16.262 49.0703 20.556 54.2483 26.283 55.6153C27.249 55.8483 28.258 55.9703 29.293 55.9703C36.462 55.9703 42.327 50.1053 42.327 42.9363V19.0633C42.327 16.4513 41.548 14.0133 40.214 11.9703C39.583 11.0043 38.828 10.1273 37.97 9.35833C37.08 8.56033 36.081 7.88334 34.997 7.35434C33.272 6.50634 31.337 6.03033 29.293 6.03033C25.708 6.03033 22.453 7.49533 20.09 9.85833C17.728 12.2193 16.262 15.4783 16.262 19.0633Z" fill="#7A7067"/>
<path d="M61.573 79.4074H82.959C84.041 79.4074 84.856 78.3934 84.594 77.3434C84.135 75.5024 83.077 73.9094 81.649 72.7704C79.954 71.4174 77.737 70.7044 75.386 70.9754L61.573 72.5684V79.4074Z" fill="#7A7067"/>
<path d="M80.245 79.5723C80.154 79.5723 80.081 79.4983 80.081 79.4083C80.081 77.9513 79.427 76.5953 78.288 75.6853C77.291 74.8893 76.043 74.5323 74.775 74.6783C74.684 74.6913 74.603 74.6243 74.593 74.5343C74.583 74.4443 74.647 74.3633 74.737 74.3523C76.093 74.1953 77.427 74.5783 78.493 75.4283C79.711 76.4003 80.41 77.8513 80.41 79.4083C80.41 79.4983 80.336 79.5723 80.245 79.5723Z" fill="#3A2127"/>
<path d="M70.151 79.4073H23.83C23.83 64.6893 31.164 52.3154 41.104 48.7514C42.984 48.0754 44.957 47.7184 46.991 47.7184C51.048 47.7184 54.861 49.1444 58.178 51.6534C60.244 53.2154 62.113 55.1913 63.732 57.5073C67.174 62.4363 69.468 68.8803 70.022 76.0353C70.108 77.1453 70.151 78.2713 70.151 79.4073Z" fill="#7A7067"/>
<path d="M49.491 79.4073H16.264C16.264 64.6883 21.525 52.3154 28.655 48.7514C30.004 48.0754 31.419 47.7184 32.878 47.7184C35.788 47.7184 38.524 49.1444 40.903 51.6534C42.385 53.2154 43.726 55.1913 44.887 57.5073C47.356 62.4363 49.002 68.8803 49.399 76.0353C49.46 77.1453 49.491 78.2713 49.491 79.4073Z" fill="#7A7067"/>
<path d="M42.845 79.4074H64.231C65.313 79.4074 66.127 78.3934 65.866 77.3434C65.407 75.5024 64.349 73.9094 62.921 72.7704C61.226 71.4174 59.009 70.7044 56.658 70.9754L49.085 71.8484L42.845 72.5684V79.4074Z" fill="#7A7067"/>
<path d="M65.866 77.5084C65.792 77.5084 65.725 77.4584 65.707 77.3844C65.27 75.6294 64.244 74.0374 62.819 72.9004C61.076 71.5094 58.895 70.8854 56.678 71.1404L49.105 72.0134C49.015 72.0254 48.934 71.9594 48.923 71.8694C48.913 71.7794 48.977 71.6974 49.067 71.6874L56.64 70.8144C58.943 70.5474 61.212 71.1984 63.024 72.6444C64.505 73.8264 65.571 75.4814 66.026 77.3054C66.048 77.3934 65.994 77.4824 65.906 77.5044C65.892 77.5074 65.879 77.5084 65.866 77.5084Z" fill="#3A2127"/>
<path d="M61.518 79.5724C61.427 79.5724 61.354 79.4984 61.354 79.4084C61.354 77.9514 60.7 76.5954 59.561 75.6854C58.564 74.8894 57.317 74.5324 56.048 74.6784C55.959 74.6914 55.877 74.6244 55.866 74.5344C55.856 74.4444 55.92 74.3634 56.01 74.3524C57.367 74.1954 58.7 74.5784 59.766 75.4284C60.984 76.4004 61.683 77.8514 61.683 79.4084C61.682 79.4984 61.609 79.5724 61.518 79.5724Z" fill="#3A2127"/>
<path d="M49.398 76.2014C49.312 76.2014 49.239 76.1334 49.234 76.0464C48.852 69.1634 47.255 62.6064 44.739 57.5824C43.578 55.2674 42.247 53.3104 40.782 51.7674C38.373 49.2264 35.639 47.8834 32.876 47.8834C31.468 47.8834 30.072 48.2254 28.727 48.8994C28.645 48.9394 28.547 48.9074 28.506 48.8264C28.465 48.7454 28.498 48.6464 28.579 48.6054C29.97 47.9084 31.416 47.5554 32.875 47.5554C35.73 47.5554 38.546 48.9344 41.019 51.5414C42.506 53.1084 43.856 55.0914 45.031 57.4354C47.567 62.4984 49.176 69.1014 49.56 76.0284C49.565 76.1194 49.496 76.1964 49.405 76.2014C49.405 76.2014 49.401 76.2014 49.398 76.2014Z" fill="#3A2127"/>
<path d="M37.647 11.9714L31.944 9.06735C31.944 9.06735 32.557 6.37036 33.572 4.41536C34.268 3.08136 35.151 2.09235 36.159 2.55235C36.787 2.84135 37.194 3.57735 37.449 4.51735C38.202 7.29235 37.647 11.8594 37.647 11.9714Z" fill="#7A7067"/>
<path d="M43.693 35.7963C44.284 38.0373 45.285 39.9803 46.486 41.4163C48.144 43.4013 50.181 44.4203 52.039 43.9313C55.241 43.0873 56.697 38.0763 55.29 32.7393C53.883 27.4023 50.147 23.7603 46.945 24.6043C43.741 25.4493 42.286 30.4593 43.693 35.7963Z" fill="#F4E0C7"/>
<path d="M51.087 44.2184C49.499 44.2184 47.823 43.2744 46.359 41.5224C45.091 40.0044 44.114 38.0394 43.533 35.8384C43.51 35.7504 43.562 35.6604 43.65 35.6374C43.737 35.6154 43.828 35.6664 43.851 35.7544C44.419 37.9084 45.373 39.8294 46.611 41.3114C48.299 43.3324 50.262 44.2304 51.996 43.7724C52.083 43.7494 52.174 43.8014 52.197 43.8894C52.22 43.9774 52.168 44.0674 52.08 44.0904C51.755 44.1764 51.423 44.2184 51.087 44.2184Z" fill="#3A2127"/>
<path d="M37.339 13.7624C37.148 13.7624 36.964 13.7694 36.79 13.7824C36.583 13.7984 36.383 13.8254 36.195 13.8584C35.239 14.0264 34.575 14.4034 34.575 14.8374C34.575 15.2774 35.242 15.6524 36.201 15.8194C36.385 15.8554 36.582 15.8784 36.789 15.8954C36.963 15.9054 37.147 15.9154 37.338 15.9154C37.745 15.9154 38.13 15.8824 38.478 15.8164C39.437 15.6524 40.101 15.2774 40.101 14.8374C40.101 14.4034 39.437 14.0294 38.481 13.8614C38.134 13.7984 37.747 13.7624 37.339 13.7624Z" fill="white"/>
<path d="M37.338 16.0774C37.146 16.0774 36.959 16.0694 36.779 16.0574C35.599 15.9634 34.411 15.5504 34.411 14.8374C34.411 14.1244 35.6 13.7114 36.778 13.6184C36.96 13.6064 37.147 13.5984 37.339 13.5984C39.008 13.5984 40.267 14.1314 40.267 14.8384C40.266 15.5444 39.007 16.0774 37.338 16.0774ZM37.338 13.9264C37.154 13.9264 36.974 13.9344 36.802 13.9464C35.512 14.0484 34.74 14.4804 34.74 14.8384C34.74 15.1964 35.512 15.6284 36.804 15.7304C36.975 15.7424 37.155 15.7494 37.339 15.7494C38.871 15.7494 39.938 15.2694 39.938 14.8384C39.937 14.4064 38.87 13.9264 37.338 13.9264Z" fill="#3A2127"/>
<path d="M37.339 13.7624C37.148 13.7624 36.964 13.7694 36.79 13.7824C36.583 13.7984 36.383 13.8254 36.195 13.8584C35.968 14.1214 35.833 14.4624 35.833 14.8374C35.833 15.2154 35.971 15.5574 36.201 15.8194C36.385 15.8554 36.582 15.8784 36.789 15.8954C36.963 15.9054 37.147 15.9154 37.338 15.9154C37.745 15.9154 38.13 15.8824 38.478 15.8164C38.708 15.5534 38.843 15.2124 38.843 14.8374C38.843 14.4624 38.708 14.1244 38.482 13.8614C38.134 13.7984 37.747 13.7624 37.339 13.7624Z" fill="#3A2127"/>
<path d="M28.934 13.7624C28.743 13.7624 28.559 13.7694 28.385 13.7824C28.178 13.7984 27.978 13.8254 27.79 13.8584C26.834 14.0264 26.17 14.4034 26.17 14.8374C26.17 15.2774 26.837 15.6524 27.796 15.8194C27.98 15.8554 28.177 15.8784 28.384 15.8954C28.558 15.9054 28.742 15.9154 28.933 15.9154C29.34 15.9154 29.725 15.8824 30.073 15.8164C31.033 15.6524 31.696 15.2774 31.696 14.8374C31.696 14.4034 31.032 14.0294 30.076 13.8614C29.729 13.7984 29.342 13.7624 28.934 13.7624Z" fill="white"/>
<path d="M28.933 16.0774C28.741 16.0774 28.554 16.0694 28.374 16.0574C27.194 15.9634 26.006 15.5504 26.006 14.8374C26.006 14.1244 27.195 13.7114 28.373 13.6184C28.554 13.6064 28.742 13.5984 28.934 13.5984C30.603 13.5984 31.861 14.1314 31.861 14.8384C31.86 15.5444 30.602 16.0774 28.933 16.0774ZM28.933 13.9264C28.749 13.9264 28.569 13.9344 28.397 13.9464C27.107 14.0484 26.335 14.4804 26.335 14.8384C26.335 15.1964 27.107 15.6284 28.399 15.7304C28.569 15.7424 28.75 15.7494 28.934 15.7494C30.466 15.7494 31.533 15.2694 31.533 14.8384C31.532 14.4064 30.465 13.9264 28.933 13.9264Z" fill="#3A2127"/>
<path d="M28.934 13.7624C28.743 13.7624 28.5589 13.7694 28.3849 13.7824C28.1779 13.7984 27.978 13.8254 27.79 13.8584C27.563 14.1214 27.429 14.4624 27.429 14.8374C27.429 15.2154 27.567 15.5574 27.797 15.8194C27.981 15.8554 28.1779 15.8784 28.3849 15.8954C28.5589 15.9054 28.743 15.9154 28.934 15.9154C29.341 15.9154 29.726 15.8824 30.074 15.8164C30.304 15.5534 30.4389 15.2124 30.4389 14.8374C30.4389 14.4624 30.304 14.1244 30.078 13.8614C29.729 13.7984 29.342 13.7624 28.934 13.7624Z" fill="#3A2127"/>
<path d="M46.603 41.1934C46.495 41.1934 46.383 41.1854 46.267 41.1684C46.177 41.1554 46.115 41.0724 46.127 40.9824C46.14 40.8924 46.223 40.8314 46.313 40.8424C46.851 40.9194 47.271 40.7934 47.594 40.4574C48.86 39.1374 48.136 35.1334 48.129 35.0934C48.112 35.0044 48.171 34.9184 48.261 34.9014C48.35 34.8844 48.436 34.9434 48.452 35.0334C48.484 35.2044 49.213 39.2444 47.832 40.6844C47.507 41.0234 47.095 41.1934 46.603 41.1934Z" fill="#3A2127"/>
<path d="M30.449 39.4104C31.04 41.6514 32.041 43.5944 33.242 45.0304C34.9 47.0144 36.937 48.0344 38.795 47.5454C41.997 46.7014 43.453 41.6904 42.046 36.3534C40.639 31.0164 36.903 27.3744 33.701 28.2184C30.498 29.0634 29.042 34.0744 30.449 39.4104Z" fill="#F4E0C7"/>
<path d="M38.794 47.7103C38.721 47.7103 38.655 47.6613 38.635 47.5883C38.612 47.5003 38.664 47.4103 38.752 47.3873C41.861 46.5673 43.267 41.6373 41.886 36.3963C41.213 33.8433 39.986 31.6023 38.431 30.0863C36.898 28.5913 35.233 27.9843 33.742 28.3783C33.655 28.4013 33.565 28.3493 33.541 28.2613C33.518 28.1733 33.57 28.0833 33.658 28.0603C35.265 27.6363 37.041 28.2733 38.66 29.8513C40.257 31.4083 41.516 33.7033 42.204 36.3123C43.632 41.7283 42.121 46.8393 38.836 47.7053C38.822 47.7083 38.808 47.7103 38.794 47.7103Z" fill="#3A2127"/>
<path d="M37.844 47.8324C36.256 47.8324 34.58 46.8884 33.116 45.1364C31.847 43.6184 30.87 41.6523 30.291 39.4523C30.268 39.3643 30.32 39.2744 30.408 39.2514C30.494 39.2284 30.586 39.2803 30.609 39.3683C31.177 41.5223 32.131 43.4434 33.369 44.9254C35.058 46.9464 37.019 47.8434 38.754 47.3864C38.84 47.3634 38.932 47.4153 38.955 47.5033C38.978 47.5913 38.926 47.6814 38.838 47.7044C38.512 47.7904 38.18 47.8324 37.844 47.8324Z" fill="#3A2127"/>
<path d="M33.36 44.8073C33.252 44.8073 33.14 44.7993 33.024 44.7823C32.934 44.7693 32.872 44.6863 32.884 44.5963C32.897 44.5063 32.981 44.4453 33.07 44.4563C33.608 44.5333 34.028 44.4073 34.351 44.0713C35.617 42.7513 34.893 38.7473 34.886 38.7073C34.869 38.6183 34.928 38.5323 35.018 38.5153C35.108 38.4973 35.193 38.5573 35.21 38.6473C35.242 38.8183 35.971 42.8583 34.589 44.2983C34.264 44.6373 33.852 44.8073 33.36 44.8073Z" fill="#3A2127"/>
<path d="M42.327 31.1624C42.236 31.1624 42.163 31.0894 42.163 30.9984V22.9524C42.163 22.8614 42.237 22.7884 42.327 22.7884C42.417 22.7884 42.491 22.8614 42.491 22.9524V30.9984C42.491 31.0884 42.418 31.1624 42.327 31.1624Z" fill="#3A2127"/>
<path d="M16.263 17.9113L8.83203 79.4073H49.491L16.263 17.9113Z" fill="#7A7067"/>
<path d="M10.644 64.2204C10.678 64.1074 5.298 65.4653 2.058 71.3103C0.838999 73.5093 0 76.3674 0 80.0644H63.359C63.359 80.0644 54.163 49.0403 9.804 71.1053L10.644 64.2204Z" fill="#F4E0C7"/>
<path d="M33.136 18.9834C33.045 18.9834 32.972 18.9104 32.972 18.8194V17.6564C32.972 17.5654 33.045 17.4924 33.136 17.4924C33.227 17.4924 33.3 17.5654 33.3 17.6564V18.8194C33.3 18.9094 33.227 18.9834 33.136 18.9834Z" fill="#3A2127"/>
<path d="M32.076 16.5964C32.076 17.1814 32.551 17.6564 33.136 17.6564C33.721 17.6564 34.196 17.1814 34.196 16.5964C34.196 16.0104 33.136 16.9964 33.136 16.9964C33.136 16.9964 32.076 16.0104 32.076 16.5964Z" fill="#3A2127"/>
<path d="M40.765 27.2734C39.143 27.2734 35.982 25.1284 35.838 25.0304C35.778 24.9894 35.752 24.9124 35.775 24.8434C35.798 24.7734 35.865 24.7234 35.937 24.7304C36.442 24.7494 40.889 24.9514 41.622 26.1024C41.751 26.3044 41.768 26.5324 41.672 26.7604C41.573 26.9934 41.394 27.1504 41.14 27.2254C41.028 27.2584 40.902 27.2734 40.765 27.2734ZM36.531 25.0914C37.805 25.8984 40.119 27.1844 41.048 26.9094C41.206 26.8634 41.311 26.7724 41.37 26.6324C41.425 26.5024 41.417 26.3904 41.346 26.2784C40.872 25.5354 38.108 25.1994 36.531 25.0914Z" fill="#3A2127"/>
<path d="M31.166 27.6614C31.078 27.6614 30.995 27.6534 30.918 27.6374C30.658 27.5824 30.467 27.4404 30.351 27.2154C30.237 26.9954 30.237 26.7674 30.349 26.5554C30.99 25.3504 35.408 24.8014 35.909 24.7424C35.984 24.7334 36.051 24.7744 36.08 24.8424C36.108 24.9104 36.088 24.9884 36.032 25.0344C35.892 25.1464 32.747 27.6614 31.166 27.6614ZM35.346 25.1493C33.782 25.3803 31.053 25.9314 30.64 26.7104C30.578 26.8274 30.579 26.9403 30.643 27.0653C30.713 27.2003 30.825 27.2823 30.986 27.3163C31.934 27.5173 34.139 26.0533 35.346 25.1493Z" fill="#3A2127"/>
<path d="M31.452 12.9403C31.444 12.9403 31.437 12.9403 31.429 12.9383C31.339 12.9253 31.276 12.8423 31.289 12.7533C31.307 12.6243 31.697 9.59534 29.222 8.61534C29.138 8.58234 29.096 8.48635 29.13 8.40235C29.163 8.31835 29.259 8.27634 29.343 8.31034C32.06 9.38634 31.62 12.7653 31.615 12.7993C31.603 12.8803 31.533 12.9403 31.452 12.9403Z" fill="#3A2127"/>
<path d="M30.913 13.0754C30.855 13.0754 30.798 13.0444 30.769 12.9894L29.633 10.9024C29.589 10.8224 29.619 10.7224 29.699 10.6794C29.779 10.6354 29.879 10.6654 29.922 10.7454L31.058 12.8324C31.102 12.9124 31.072 13.0124 30.992 13.0554C30.966 13.0694 30.939 13.0754 30.913 13.0754Z" fill="#3A2127"/>
<path d="M33.136 19.1973C32.008 19.1973 31.091 18.2803 31.091 17.1523C31.091 17.0613 31.165 16.9883 31.255 16.9883C31.346 16.9883 31.419 17.0613 31.419 17.1523C31.419 18.0983 32.189 18.8693 33.136 18.8693C34.083 18.8693 34.853 18.0993 34.853 17.1523C34.853 17.0613 34.927 16.9883 35.017 16.9883C35.108 16.9883 35.181 17.0613 35.181 17.1523C35.181 18.2793 34.264 19.1973 33.136 19.1973Z" fill="#3A2127"/>
<path d="M19.807 14.1123C17.53 8.30835 19.27 2.19735 23.692 0.462348C28.114 -1.27265 33.544 2.02635 35.821 7.83035C35.821 7.83035 32.076 8.82735 27.654 10.5614C23.231 12.2964 19.807 14.1123 19.807 14.1123Z" fill="#F0AF55"/>
<path d="M36.627 25.1413C36.536 25.1413 36.463 25.0683 36.463 24.9773C36.463 24.8863 36.536 24.8133 36.627 24.8133C39.591 24.8113 41.644 23.8863 42.728 22.0653C46.01 16.5563 39.587 4.53235 39.521 4.41135C39.478 4.33135 39.508 4.23135 39.587 4.18835C39.667 4.14535 39.767 4.17435 39.81 4.25435C40.08 4.75435 46.387 16.5633 43.01 22.2323C41.862 24.1613 39.715 25.1393 36.627 25.1413Z" fill="#3A2127"/>
<path d="M35.82 25.1414C18.985 25.1414 13.612 13.0974 13.559 12.9754C13.523 12.8924 13.562 12.7954 13.645 12.7594C13.728 12.7234 13.825 12.7614 13.861 12.8454C13.912 12.9654 19.21 24.8124 35.82 24.8124C35.911 24.8124 35.984 24.8854 35.984 24.9764C35.984 25.0674 35.911 25.1414 35.82 25.1414Z" fill="#3A2127"/>
<path d="M18.2 9.66734L24.065 7.48834C24.065 7.48834 23.25 4.84234 22.078 2.96534C21.275 1.68534 20.307 0.762336 19.314 1.29434C18.696 1.62834 18.334 2.39134 18.141 3.34734C17.572 6.17234 18.192 9.55634 18.2 9.66734Z" fill="#7A7067"/>
<path d="M39.461 3.81535C35.884 3.97935 24.701 5.09535 13.427 12.4714C12.931 12.7964 13.011 13.5464 13.56 13.7694C17.96 15.5604 32.921 20.2514 40.153 4.88035C40.391 4.37335 40.021 3.78935 39.461 3.81535Z" fill="#F0AF55"/>
<path d="M17.446 10.2543C17.388 10.2543 17.331 10.2233 17.301 10.1683C17.258 10.0883 17.287 9.98935 17.367 9.94535C17.434 9.90935 24.151 6.29135 31.232 4.80735C31.32 4.78935 31.408 4.84535 31.426 4.93435C31.445 5.02335 31.388 5.11035 31.299 5.12835C24.264 6.60335 17.59 10.1973 17.523 10.2333C17.499 10.2473 17.472 10.2543 17.446 10.2543Z" fill="#3A2127"/>
</svg>
