<svg width="100" height="68" viewBox="0 0 100 68" fill="none" xmlns="http://www.w3.org/2000/svg">
<path d="M85.4891 49.746C85.4891 49.746 108.629 17.195 91.1241 3.88199C87.6101 1.20899 84.3721 0.107993 81.4661 0.00399315C75.1961 -0.219007 74.0681 8.96699 80.1981 10.301C87.5081 11.892 92.9191 17.862 83.2681 35.954L85.4891 49.746Z" fill="#3A2127"/>
<path d="M86.728 48.886H44.147C44.147 35.356 50.889 23.982 60.026 20.706C61.754 20.085 63.568 19.756 65.437 19.756C69.166 19.756 72.672 21.067 75.721 23.373C77.62 24.809 79.338 26.626 80.827 28.755C83.991 33.286 86.1 39.21 86.609 45.787C86.688 46.806 86.728 47.841 86.728 48.886Z" fill="#7A4438"/>
<path d="M84.946 50.523H23.829C25.153 36.857 31.711 23.502 40.795 17.653C44.892 15.01 49.508 13.527 54.387 13.527C56.792 13.527 59.1309 13.888 61.3789 14.571C73.7889 18.332 83.323 33.728 84.946 50.523Z" fill="#7A4438"/>
<path d="M44.1469 49.05C44.0559 49.05 43.9829 48.977 43.9829 48.886C43.9829 35.578 50.5569 23.926 59.9699 20.551C61.7409 19.915 63.581 19.592 65.437 19.592C65.528 19.592 65.601 19.665 65.601 19.756C65.601 19.847 65.528 19.92 65.437 19.92C63.619 19.92 61.8169 20.236 60.0809 20.86C50.7959 24.189 44.3109 35.713 44.3109 48.885C44.3119 48.976 44.2379 49.05 44.1469 49.05Z" fill="#D39188"/>
<path d="M17.117 47C15.238 48.357 13.231 49.223 11.392 49.571C8.85096 50.052 6.62997 49.548 5.50497 47.991C3.56597 45.306 5.62097 40.511 10.096 37.279C14.57 34.047 19.769 33.604 21.708 36.288C23.646 38.972 21.591 43.768 17.117 47Z" fill="#7A4438"/>
<path d="M11.9921 42.8669L0.164062 52.7299H18.2341L11.9921 42.8669Z" fill="#DE966E"/>
<path d="M33.0129 23.23C33.0129 23.23 42.4529 21.654 41.5369 23.711C40.6209 25.767 37.3059 27.886 37.3059 27.886L33.0129 23.23Z" fill="#3A2127"/>
<path d="M25.4941 23.23C25.4941 23.23 16.0541 21.654 16.9701 23.711C17.8861 25.767 21.2011 27.886 21.2011 27.886L25.4941 23.23Z" fill="#3A2127"/>
<path d="M15.546 52.896L0.164001 52.894C0.0730015 52.894 0 52.82 0 52.73C0 52.639 0.0740015 52.566 0.164001 52.566L15.546 52.568C15.637 52.568 15.71 52.642 15.71 52.732C15.71 52.823 15.637 52.896 15.546 52.896Z" fill="#3A2127"/>
<path d="M10.3201 36.867C10.3201 39.045 11.003 41.063 12.17 42.715C13.218 44.2 14.654 45.396 16.33 46.148V59.514C16.33 61.883 16.971 64.107 18.088 66.026H40.6401C41.7541 64.107 42.3951 61.883 42.3951 59.514V46.148C44.6031 45.159 46.3931 43.405 47.4321 41.223C48.0561 39.906 48.4081 38.427 48.4081 36.866C48.4081 31.451 44.173 27.026 38.834 26.714C38.581 26.445 38.3181 26.182 38.0391 25.935C37.1491 25.137 36.15 24.46 35.066 23.931C33.341 23.083 31.4061 22.607 29.3621 22.607C25.7771 22.607 22.5211 24.072 20.1591 26.435C20.0701 26.527 19.9821 26.622 19.8931 26.714C14.5521 27.026 10.3201 31.452 10.3201 36.867Z" fill="#7A4438"/>
<path d="M16.331 59.678C16.24 59.678 16.167 59.605 16.167 59.514V46.254C12.512 44.567 10.157 40.895 10.157 36.868C10.157 36.777 10.23 36.704 10.321 36.704C10.412 36.704 10.485 36.777 10.485 36.868C10.485 40.802 12.806 44.386 16.398 45.999L16.495 46.043V59.514C16.495 59.604 16.421 59.678 16.331 59.678Z" fill="#D39188"/>
<path d="M32.439 30.373C32.439 30.373 29.659 23.598 25.099 30.373C25.099 30.373 19.887 32.516 20.626 36.026C21.365 39.536 36.026 39.6141 36.348 36.2491C36.669 32.8851 32.439 30.373 32.439 30.373Z" fill="#F4E0C7"/>
<path d="M42.3951 46.313C42.3321 46.313 42.2721 46.277 42.2451 46.216C42.2081 46.133 42.2451 46.0361 42.3281 45.9991C45.9201 44.3861 48.241 40.802 48.241 36.868C48.241 31.574 44.104 27.1861 38.824 26.8801C38.733 26.8751 38.664 26.7971 38.67 26.7071C38.675 26.6161 38.7511 26.548 38.8431 26.552C44.2971 26.869 48.5701 31.4 48.5701 36.868C48.5701 40.931 46.1731 44.633 42.4631 46.299C42.4401 46.308 42.4171 46.313 42.3951 46.313Z" fill="#D39188"/>
<path d="M29.731 32.038C29.731 32.591 29.283 33.039 28.73 33.039C28.177 33.039 27.729 32.591 27.729 32.038C27.729 31.485 28.73 32.416 28.73 32.416C28.73 32.416 29.731 31.485 29.731 32.038Z" fill="#3A2127"/>
<path d="M28.7291 34.302C28.6381 34.302 28.5651 34.229 28.5651 34.138V33.04C28.5651 32.949 28.6381 32.876 28.7291 32.876C28.8201 32.876 28.8931 32.95 28.8931 33.04V34.138C28.8931 34.229 28.8201 34.302 28.7291 34.302Z" fill="#3A2127"/>
<path d="M28.729 34.463C27.25 34.463 26.046 33.26 26.046 31.78C26.046 31.689 26.119 31.616 26.21 31.616C26.301 31.616 26.374 31.69 26.374 31.78C26.374 33.078 27.4301 34.134 28.7281 34.134C30.0261 34.134 31.082 33.078 31.082 31.78C31.082 31.689 31.155 31.616 31.246 31.616C31.337 31.616 31.41 31.69 31.41 31.78C31.412 33.26 30.208 34.463 28.729 34.463Z" fill="#3A2127"/>
<path d="M31.337 26.936C31.334 26.936 31.33 26.936 31.326 26.936C31.235 26.93 31.167 26.852 31.173 26.762L31.46 22.326C31.466 22.236 31.543 22.167 31.634 22.173C31.725 22.179 31.793 22.257 31.787 22.347L31.5 26.782C31.495 26.869 31.423 26.936 31.337 26.936Z" fill="#D39188"/>
<path d="M31.876 27.071C31.849 27.071 31.822 27.065 31.797 27.051C31.717 27.008 31.688 26.908 31.731 26.828L32.867 24.741C32.91 24.661 33.0101 24.632 33.0901 24.675C33.1701 24.718 33.199 24.818 33.156 24.898L32.02 26.985C31.991 27.04 31.934 27.071 31.876 27.071Z" fill="#D39188"/>
<path d="M27.169 26.936C27.083 26.936 27.011 26.869 27.005 26.782L26.717 22.347C26.711 22.257 26.78 22.178 26.87 22.173C26.961 22.168 27.039 22.236 27.044 22.326L27.332 26.762C27.338 26.852 27.269 26.931 27.179 26.936C27.176 26.936 27.173 26.936 27.169 26.936Z" fill="#D39188"/>
<path d="M26.63 27.071C26.572 27.071 26.515 27.04 26.486 26.985L25.35 24.898C25.306 24.818 25.336 24.718 25.416 24.675C25.496 24.631 25.596 24.661 25.639 24.741L26.775 26.828C26.818 26.908 26.789 27.007 26.709 27.051C26.684 27.065 26.657 27.071 26.63 27.071Z" fill="#D39188"/>
<path d="M11.9919 42.866L12.1699 44.358L14.9489 67.668H82.0299V42.866H11.9919Z" fill="#C68261"/>
<path d="M38.0559 42.866L39.0419 67.668H87.0109L89.9669 42.866H38.0559Z" fill="#DE966E"/>
<path d="M86.728 49.0499C86.637 49.0499 86.564 48.9769 86.564 48.8859C86.564 47.8499 86.525 46.8109 86.447 45.7999C85.957 39.4819 83.914 33.4619 80.693 28.8489C80.641 28.7749 80.659 28.6719 80.734 28.6199C80.807 28.5689 80.911 28.5859 80.963 28.6609C84.217 33.3209 86.281 39.3979 86.775 45.7739C86.854 46.7929 86.894 47.8399 86.894 48.8849C86.892 48.9759 86.818 49.0499 86.728 49.0499Z" fill="#D39188"/>
<path d="M99.715 54.5179L89.9669 42.8669H38.0559L41.1429 59.9109L99.715 54.5179Z" fill="#EAAC8C"/>
<path d="M41.008 60.088L39.28 50.552C39.264 50.463 39.323 50.377 39.412 50.361C39.502 50.345 39.587 50.404 39.603 50.493L41.277 59.733L99.699 54.354C99.787 54.347 99.869 54.412 99.878 54.503C99.886 54.593 99.82 54.673 99.729 54.682L41.008 60.088Z" fill="#3A2127"/>
<path d="M57.064 37.1271C54.68 33.9151 51.492 31.9861 48.905 31.9171C48.894 31.9171 48.883 31.9171 48.871 31.9171C48.779 31.9151 48.687 31.9141 48.597 31.9171C42.981 31.9631 40.805 36.7511 39.65 39.4341C39.096 40.7201 38.218 42.8661 38.218 42.8661L46.479 42.8671L46.553 42.9601C46.82 43.4031 47.114 43.842 47.434 44.274C48.815 46.135 50.467 47.5661 52.115 48.4541C54.392 49.6801 56.662 49.8701 58.204 48.7251C60.864 46.7521 60.354 41.5591 57.064 37.1271Z" fill="#7A4438"/>
<path d="M55.732 49.6549C54.604 49.6549 53.343 49.3019 52.038 48.5989C50.772 47.9169 48.923 46.6299 47.301 44.3699C46.23 42.8779 43.935 38.4519 43.837 38.2639C43.795 38.1839 43.827 38.0839 43.907 38.0429C43.988 38.0009 44.087 38.0329 44.128 38.1129C44.152 38.1589 46.51 42.7059 47.567 44.1789C49.152 46.3879 50.957 47.6449 52.193 48.3099C54.512 49.5589 56.667 49.6629 58.107 48.5939C60.689 46.6779 60.162 41.5779 56.932 37.2249C56.893 37.1659 53.387 32.0079 48.599 32.0819C42.961 32.1589 40.826 37.1169 39.801 39.4999C39.412 40.4039 38.883 41.6819 38.37 42.9289C38.336 43.0129 38.24 43.0529 38.156 43.0179C38.072 42.9829 38.032 42.8869 38.067 42.8029C38.581 41.5549 39.11 40.2749 39.5 39.3689C40.553 36.9229 42.745 31.8329 48.596 31.7529C53.553 31.6799 57.166 36.9819 57.202 37.0349C60.535 41.5259 61.032 46.8319 58.304 48.8569C57.585 49.3899 56.709 49.6549 55.732 49.6549Z" fill="#D39188"/>
<path d="M54.406 49.497C54.357 49.497 54.309 49.475 54.276 49.434C54.22 49.362 54.233 49.259 54.305 49.204C54.899 48.742 55.232 48.167 55.297 47.495C55.456 45.841 53.957 44.105 53.942 44.088C53.882 44.02 53.889 43.916 53.958 43.856C54.026 43.797 54.13 43.803 54.19 43.871C54.256 43.946 55.797 45.729 55.625 47.525C55.552 48.291 55.176 48.943 54.508 49.463C54.477 49.486 54.441 49.497 54.406 49.497Z" fill="#D39188"/>
<path d="M37.177 29.979C37.118 31.044 35.7449 31.829 34.1069 31.739C33.9049 31.728 33.7089 31.703 33.5209 31.671C32.1759 31.417 31.198 30.589 31.249 29.652C31.3 28.723 32.364 28 33.729 27.896C33.919 27.885 34.1169 27.882 34.3179 27.893C35.9579 27.983 37.235 28.921 37.177 29.979Z" fill="white"/>
<path d="M37.177 29.979C37.118 31.044 35.745 31.829 34.107 31.739C33.905 31.728 33.709 31.703 33.521 31.671C33.333 31.094 33.245 30.444 33.282 29.765C33.32 29.086 33.48 28.449 33.729 27.896C33.919 27.885 34.117 27.882 34.318 27.893C35.958 27.983 37.235 28.921 37.177 29.979Z" fill="#3A2127"/>
<path d="M34.365 31.91C34.277 31.91 34.188 31.908 34.098 31.903C33.908 31.893 33.71 31.87 33.494 31.833C32.019 31.555 31.03 30.655 31.086 29.643C31.141 28.647 32.248 27.844 33.718 27.732C33.94 27.719 34.139 27.718 34.329 27.729C36.054 27.824 37.405 28.838 37.341 29.989C37.309 30.561 36.945 31.075 36.316 31.436C35.775 31.744 35.091 31.91 34.365 31.91ZM34.064 28.049C33.961 28.049 33.853 28.052 33.74 28.059C32.44 28.158 31.46 28.832 31.414 29.661C31.368 30.49 32.268 31.267 33.552 31.509C33.753 31.543 33.938 31.565 34.116 31.575C34.877 31.616 35.6 31.466 36.153 31.15C36.682 30.847 36.988 30.428 37.013 29.97C37.066 29 35.854 28.141 34.311 28.056C34.23 28.052 34.148 28.049 34.064 28.049Z" fill="#D39188"/>
<path d="M26.209 29.979C26.15 31.044 24.777 31.829 23.139 31.739C22.937 31.728 22.741 31.703 22.554 31.671C21.209 31.417 20.23 30.589 20.282 29.652C20.333 28.723 21.397 28 22.762 27.896C22.952 27.885 23.15 27.882 23.352 27.893C24.99 27.983 26.267 28.921 26.209 29.979Z" fill="white"/>
<path d="M26.2089 29.979C26.1499 31.044 24.7769 31.829 23.1389 31.739C22.9369 31.728 22.7409 31.703 22.5539 31.671C22.3659 31.094 22.2779 30.444 22.3149 29.765C22.3519 29.086 22.5119 28.449 22.7619 27.896C22.9519 27.885 23.1499 27.882 23.3519 27.893C24.9899 27.983 26.2669 28.921 26.2089 29.979Z" fill="#3A2127"/>
<path d="M23.396 31.91C23.308 31.91 23.219 31.908 23.129 31.903C22.939 31.893 22.741 31.87 22.525 31.833C21.05 31.555 20.061 30.655 20.117 29.643C20.172 28.648 21.279 27.844 22.749 27.732C22.971 27.719 23.17 27.718 23.36 27.729C24.183 27.774 24.948 28.027 25.513 28.441C26.099 28.87 26.404 29.419 26.372 29.989C26.34 30.561 25.976 31.075 25.347 31.436C24.807 31.744 24.123 31.91 23.396 31.91ZM23.096 28.049C22.993 28.049 22.885 28.052 22.772 28.059C21.472 28.158 20.492 28.831 20.446 29.66C20.4 30.489 21.299 31.266 22.584 31.509C22.785 31.543 22.971 31.565 23.148 31.575C23.91 31.616 24.633 31.466 25.185 31.15C25.714 30.847 26.02 30.428 26.045 29.97C26.07 29.515 25.813 29.066 25.32 28.705C24.805 28.328 24.103 28.098 23.343 28.056C23.262 28.052 23.18 28.049 23.096 28.049Z" fill="#D39188"/>
<path d="M15.5429 51.719H21.1039L20.6859 44.901H14.6699L15.5429 51.719Z" fill="#F4E0C7"/>
</svg>
