<svg width="102" height="78" viewBox="0 0 102 78" fill="none" xmlns="http://www.w3.org/2000/svg">
<path d="M82.8178 71.0582H34.3578C34.3578 55.9562 42.0308 43.2602 52.4298 39.6032C54.3968 38.9102 56.4608 38.5432 58.5888 38.5432C62.8328 38.5432 66.8228 40.0062 70.2928 42.5812C72.4538 44.1842 74.4098 46.2122 76.1038 48.5882C79.7048 53.6452 82.1058 60.2582 82.6848 67.6002C82.7728 68.7372 82.8178 69.8922 82.8178 71.0582Z" fill="#D8522A"/>
<path d="M43.8188 11.0692L49.4118 9.88116C49.4118 9.88116 49.7678 7.15516 49.5578 5.02316C49.4118 3.56716 49.0038 2.38716 48.0318 2.54616C47.4258 2.64816 46.8588 3.23416 46.3508 4.05516C44.8518 6.48016 43.8548 10.9632 43.8188 11.0692Z" fill="#D8522A"/>
<path d="M55.8908 15.1182C55.9668 15.0042 59.3568 8.51318 61.5138 8.72918C63.6708 8.94518 61.0018 15.3902 61.0018 15.3902L55.8908 15.1182Z" fill="#D8522A"/>
<path d="M37.5708 14.7952L29.9809 37.4292C28.0309 43.2452 30.4558 49.5192 35.4508 52.6362C36.2928 53.1642 37.2098 53.6002 38.1918 53.9292C44.9888 56.2082 60.6768 63.1952 62.9568 56.3982L62.2828 23.0822C63.5048 19.4372 63.0098 15.6122 61.2378 12.4952C60.6478 11.4552 59.9158 10.4962 59.0558 9.65016C57.6898 8.29816 56.0068 7.23116 54.0688 6.58116C50.6698 5.44116 47.1178 5.79616 44.1268 7.28416C41.1358 8.77216 38.7098 11.3972 37.5708 14.7952Z" fill="#F46831"/>
<path d="M18.7888 76.8552L74.4228 76.8852C74.4228 76.8852 74.6778 74.6032 74.6618 71.3012C74.6468 68.2662 74.4018 64.3702 73.5198 60.5922C71.2598 50.9192 67.1398 44.6842 57.1598 39.1402C52.5018 36.5522 48.5258 32.4422 45.2368 28.2502L37.5708 14.7962C37.5708 14.7962 16.2028 76.2772 18.7888 76.8552Z" fill="#F46831"/>
<path d="M51.7048 16.1562C51.7048 13.7182 49.1988 11.7412 46.1078 11.7412C43.0168 11.7412 40.5108 13.7182 40.5108 16.1562C40.5108 18.5942 43.0168 20.5712 46.1078 20.5712C49.1998 20.5712 51.7048 18.5942 51.7048 16.1562Z" fill="#D8522A"/>
<path d="M79.2338 73.7642H99.8238C100.866 73.7642 101.65 72.7882 101.398 71.7772C100.956 70.0052 99.9368 68.4712 98.5628 67.3742C96.9308 66.0712 94.7968 65.3852 92.5328 65.6462L79.2338 67.1792V73.7642Z" fill="#D8522A"/>
<path d="M67.0858 76.8852H88.4718C89.5538 76.8852 90.3678 75.8722 90.1068 74.8222C89.6478 72.9812 88.5898 71.3882 87.1618 70.2492C85.4668 68.8962 83.2498 68.1832 80.8988 68.4542L67.0858 70.0472V76.8852Z" fill="#F46831"/>
<path d="M85.7588 77.0492C85.6678 77.0492 85.5948 76.9752 85.5948 76.8852C85.5948 75.4292 84.9408 74.0722 83.8018 73.1622C82.8048 72.3662 81.5578 72.0102 80.2888 72.1552C80.1988 72.1682 80.1168 72.1012 80.1068 72.0112C80.0968 71.9212 80.1608 71.8392 80.2508 71.8292C81.6068 71.6722 82.9408 72.0552 84.0068 72.9062C85.2248 73.8782 85.9238 75.3282 85.9238 76.8852C85.9228 76.9762 85.8498 77.0492 85.7588 77.0492Z" fill="#3A2127"/>
<path d="M97.1788 73.9282C97.0878 73.9282 97.0148 73.8541 97.0148 73.7641C97.0148 72.3081 96.3608 70.9512 95.2218 70.0412C94.2248 69.2452 92.9778 68.8882 91.7088 69.0342C91.6178 69.0462 91.5368 68.9801 91.5268 68.8901C91.5168 68.8001 91.5808 68.7181 91.6708 68.7081C93.0278 68.5521 94.3608 68.9342 95.4268 69.7852C96.6448 70.7572 97.3438 72.2081 97.3438 73.7641C97.3428 73.8541 97.2698 73.9282 97.1788 73.9282Z" fill="#3A2127"/>
<path d="M52.2578 13.1362C52.2428 13.1362 52.2268 13.1342 52.2118 13.1292C52.1248 13.1042 52.0748 13.0132 52.0998 12.9252L53.3418 8.65719C53.3668 8.57019 53.4578 8.51919 53.5458 8.54519C53.6328 8.57019 53.6828 8.66219 53.6578 8.74919L52.4158 13.0172C52.3948 13.0902 52.3288 13.1362 52.2578 13.1362Z" fill="#3A2127"/>
<path d="M51.7048 13.0792C51.6248 13.0792 51.5548 13.0212 51.5428 12.9402L51.1858 10.5902C51.1718 10.5002 51.2338 10.4172 51.3238 10.4032C51.4138 10.3892 51.4968 10.4512 51.5108 10.5412L51.8678 12.8902C51.8818 12.9802 51.8198 13.0632 51.7298 13.0772C51.7208 13.0792 51.7128 13.0792 51.7048 13.0792Z" fill="#3A2127"/>
<path d="M56.1758 14.5572C56.1538 14.5572 56.1318 14.5532 56.1098 14.5432C56.0268 14.5072 55.9888 14.4102 56.0258 14.3272L57.8078 10.2552C57.8438 10.1722 57.9398 10.1332 58.0238 10.1712C58.1068 10.2072 58.1448 10.3042 58.1088 10.3872L56.3268 14.4592C56.2998 14.5202 56.2398 14.5572 56.1758 14.5572Z" fill="#3A2127"/>
<path d="M56.6368 14.8682C56.5918 14.8682 56.5468 14.8492 56.5138 14.8132C56.4538 14.7452 56.4598 14.6412 56.5278 14.5812L58.3078 13.0062C58.3758 12.9462 58.4798 12.9522 58.5398 13.0202C58.5998 13.0882 58.5938 13.1922 58.5258 13.2522L56.7458 14.8272C56.7148 14.8542 56.6758 14.8682 56.6368 14.8682Z" fill="#3A2127"/>
<path d="M45.6749 13.9972C45.3669 15.0192 46.3898 16.2242 47.9608 16.6982C48.1538 16.7562 48.3478 16.7992 48.5348 16.8332C49.8858 17.0532 51.0878 16.6072 51.3588 15.7092C51.6278 14.8172 50.8738 13.7752 49.6258 13.2122C49.4508 13.1372 49.2658 13.0662 49.0728 13.0082C47.5018 12.5352 45.9809 12.9822 45.6749 13.9972Z" fill="white"/>
<path d="M49.2208 17.0542C48.9918 17.0542 48.7538 17.0352 48.5078 16.9952C48.2878 16.9552 48.0948 16.9092 47.9128 16.8552C47.1228 16.6172 46.4388 16.1922 45.9868 15.6592C45.5178 15.1062 45.3508 14.4992 45.5168 13.9502C45.6818 13.4042 46.1558 12.9912 46.8518 12.7872C47.5248 12.5912 48.3298 12.6132 49.1188 12.8522C49.3018 12.9072 49.4878 12.9762 49.6888 13.0622C51.0358 13.6692 51.8018 14.8022 51.5148 15.7572C51.2728 16.5652 50.3708 17.0542 49.2208 17.0542ZM47.8278 12.9832C47.5168 12.9832 47.2178 13.0232 46.9448 13.1022C46.3588 13.2732 45.9638 13.6072 45.8318 14.0442C45.6998 14.4832 45.8438 14.9812 46.2388 15.4462C46.6498 15.9312 47.2788 16.3202 48.0088 16.5402C48.1778 16.5912 48.3598 16.6342 48.5648 16.6712C49.8518 16.8822 50.9628 16.4562 51.2018 15.6622C51.4408 14.8672 50.7498 13.9002 49.5578 13.3622C49.3708 13.2822 49.1958 13.2172 49.0248 13.1662C48.6218 13.0442 48.2148 12.9832 47.8278 12.9832Z" fill="#3A2127"/>
<path d="M45.6749 13.9972C45.3669 15.0192 46.3898 16.2242 47.9608 16.6982C48.1538 16.7562 48.3478 16.7992 48.5348 16.8332C48.9078 16.3542 49.2128 15.7732 49.4088 15.1222C49.6048 14.4712 49.6718 13.8182 49.6248 13.2132C49.4498 13.1382 49.2648 13.0672 49.0718 13.0092C47.5018 12.5352 45.9809 12.9822 45.6749 13.9972Z" fill="#3A2127"/>
<path d="M55.9858 17.7352C55.6778 18.7572 56.7008 19.9622 58.2718 20.4362C58.4648 20.4942 58.6588 20.5382 58.8458 20.5712C60.1968 20.7912 61.3988 20.3462 61.6698 19.4472C61.9388 18.5562 61.1848 17.5132 59.9368 16.9502C59.7618 16.8752 59.5768 16.8042 59.3838 16.7462C57.8128 16.2732 56.2918 16.7202 55.9858 17.7352Z" fill="white"/>
<path d="M59.5328 20.7922C59.3038 20.7922 59.0658 20.7732 58.8198 20.7332C58.6018 20.6942 58.4078 20.6482 58.2248 20.5932C57.4348 20.3552 56.7508 19.9302 56.2988 19.3972C55.8298 18.8442 55.6628 18.2372 55.8288 17.6882C55.9928 17.1422 56.4678 16.7292 57.1638 16.5252C57.8368 16.3282 58.6418 16.3512 59.4308 16.5892C59.6128 16.6442 59.7988 16.7122 60.0018 16.7992C61.3488 17.4062 62.1148 18.5392 61.8278 19.4942C61.5838 20.3042 60.6828 20.7922 59.5328 20.7922ZM58.1388 16.7212C57.8278 16.7212 57.5298 16.7612 57.2558 16.8402C56.6698 17.0112 56.2748 17.3462 56.1428 17.7822C56.0108 18.2212 56.1548 18.7192 56.5498 19.1842C56.9608 19.6692 57.5898 20.0582 58.3198 20.2782C58.4908 20.3292 58.6728 20.3722 58.8758 20.4092C60.1628 20.6182 61.2738 20.1942 61.5128 19.4002C61.7518 18.6052 61.0608 17.6382 59.8698 17.1002C59.6818 17.0192 59.5068 16.9552 59.3368 16.9042C58.9328 16.7822 58.5258 16.7212 58.1388 16.7212Z" fill="#3A2127"/>
<path d="M55.9858 17.7352C55.6778 18.7572 56.7008 19.9622 58.2718 20.4362C58.4648 20.4942 58.6588 20.5382 58.8458 20.5712C59.2188 20.0922 59.5238 19.5112 59.7198 18.8602C59.9158 18.2082 59.9828 17.5552 59.9358 16.9512C59.7608 16.8762 59.5758 16.8052 59.3828 16.7472C57.8128 16.2732 56.2918 16.7202 55.9858 17.7352Z" fill="#3A2127"/>
<path d="M53.0558 18.5672C52.8308 19.1362 53.1088 19.7812 53.6788 20.0062C54.2478 20.2322 54.8928 19.9532 55.1178 19.3832C55.3438 18.8142 53.9328 19.3632 53.9328 19.3632C53.9328 19.3632 53.2818 17.9972 53.0558 18.5672Z" fill="#3A2127"/>
<path d="M53.6758 22.8782C53.6038 22.8782 53.5388 22.8312 53.5178 22.7582L53.0568 21.1282L53.5248 19.9462C53.5578 19.8622 53.6538 19.8202 53.7378 19.8542C53.8218 19.8872 53.8638 19.9832 53.8298 20.0672L53.4028 21.1462L53.8328 22.6692C53.8578 22.7562 53.8068 22.8472 53.7198 22.8722C53.7058 22.8762 53.6908 22.8782 53.6758 22.8782Z" fill="#3A2127"/>
<path d="M51.8948 22.1722C51.8408 22.1722 51.7888 22.1462 51.7568 22.0972C51.7068 22.0212 51.7288 21.9192 51.8048 21.8702L53.1408 20.9992C53.2168 20.9502 53.3188 20.9712 53.3678 21.0472C53.4168 21.1232 53.3958 21.2252 53.3198 21.2742L51.9838 22.1452C51.9568 22.1632 51.9258 22.1722 51.8948 22.1722Z" fill="#3A2127"/>
<path d="M36.4388 17.8662C36.4388 17.8662 33.7078 18.6772 34.2008 20.5712C34.6938 22.4652 34.8988 22.6712 34.8988 22.6712C34.8988 22.6712 13.8298 52.5932 22.6608 58.3192C31.6568 64.1512 51.4768 35.1012 58.9868 40.0722L63.2818 43.2032C63.2818 43.2032 63.0828 24.2982 62.3078 24.3262C62.3078 24.3262 57.4118 30.1042 51.0398 29.2422C44.6668 28.3792 36.4388 17.8662 36.4388 17.8662Z" fill="#715B89"/>
<mask id="mask0_1_350" style="mask-type:luminance" maskUnits="userSpaceOnUse" x="20" y="17" width="44" height="43">
<path d="M36.4388 17.8662C36.4388 17.8662 33.7078 18.6772 34.2008 20.5712C34.6938 22.4652 34.8988 22.6712 34.8988 22.6712C34.8988 22.6712 13.8298 52.5932 22.6608 58.3192C31.6568 64.1512 51.4768 35.1012 58.9868 40.0722L63.2818 43.2032C63.2818 43.2032 63.0828 24.2982 62.3078 24.3262C62.3078 24.3262 57.4118 30.1042 51.0398 29.2422C44.6668 28.3792 36.4388 17.8662 36.4388 17.8662Z" fill="white"/>
</mask>
<g mask="url(#mask0_1_350)">
<path d="M31.0998 33.8412C27.8838 33.8412 25.2678 31.2252 25.2678 28.0092H27.8958C27.8958 29.7752 29.3328 31.2122 31.0988 31.2122C32.8648 31.2122 34.3018 29.7752 34.3018 28.0092H36.9298C36.9318 31.2252 34.3158 33.8412 31.0998 33.8412Z" fill="#846EA0"/>
</g>
<mask id="mask1_1_350" style="mask-type:luminance" maskUnits="userSpaceOnUse" x="20" y="17" width="44" height="43">
<path d="M36.4388 17.8662C36.4388 17.8662 33.7078 18.6772 34.2008 20.5712C34.6938 22.4652 34.8988 22.6712 34.8988 22.6712C34.8988 22.6712 13.8298 52.5932 22.6608 58.3192C31.6568 64.1512 51.4768 35.1012 58.9868 40.0722L63.2818 43.2032C63.2818 43.2032 63.0828 24.2982 62.3078 24.3262C62.3078 24.3262 57.4118 30.1042 51.0398 29.2422C44.6668 28.3792 36.4388 17.8662 36.4388 17.8662Z" fill="white"/>
</mask>
<g mask="url(#mask1_1_350)">
<path d="M50.0348 33.0122C47.6258 33.0122 45.3668 31.5072 44.5258 29.1082C43.4628 26.0732 45.0668 22.7392 48.1008 21.6762L48.9698 24.1572C47.3028 24.7412 46.4218 26.5722 47.0058 28.2392C47.5898 29.9062 49.4208 30.7872 51.0888 30.2032L51.9578 32.6832C51.3218 32.9062 50.6728 33.0122 50.0348 33.0122Z" fill="#846EA0"/>
</g>
<mask id="mask2_1_350" style="mask-type:luminance" maskUnits="userSpaceOnUse" x="20" y="17" width="44" height="43">
<path d="M36.4388 17.8662C36.4388 17.8662 33.7078 18.6772 34.2008 20.5712C34.6938 22.4652 34.8988 22.6712 34.8988 22.6712C34.8988 22.6712 13.8298 52.5932 22.6608 58.3192C31.6568 64.1512 51.4768 35.1012 58.9868 40.0722L63.2818 43.2032C63.2818 43.2032 63.0828 24.2982 62.3078 24.3262C62.3078 24.3262 57.4118 30.1042 51.0398 29.2422C44.6668 28.3792 36.4388 17.8662 36.4388 17.8662Z" fill="white"/>
</mask>
<g mask="url(#mask2_1_350)">
<path d="M43.6088 46.6082L41.8918 44.6172C43.2298 43.4642 43.3788 41.4372 42.2258 40.0992C41.0728 38.7612 39.0458 38.6122 37.7078 39.7652L35.9918 37.7742C38.4268 35.6742 42.1168 35.9472 44.2168 38.3822C46.3168 40.8182 46.0438 44.5082 43.6088 46.6082Z" fill="#846EA0"/>
</g>
<mask id="mask3_1_350" style="mask-type:luminance" maskUnits="userSpaceOnUse" x="20" y="17" width="44" height="43">
<path d="M36.4388 17.8662C36.4388 17.8662 33.7078 18.6772 34.2008 20.5712C34.6938 22.4652 34.8988 22.6712 34.8988 22.6712C34.8988 22.6712 13.8298 52.5932 22.6608 58.3192C31.6568 64.1512 51.4768 35.1012 58.9868 40.0722L63.2818 43.2032C63.2818 43.2032 63.0828 24.2982 62.3078 24.3262C62.3078 24.3262 57.4118 30.1042 51.0398 29.2422C44.6668 28.3792 36.4388 17.8662 36.4388 17.8662Z" fill="white"/>
</mask>
<g mask="url(#mask3_1_350)">
<path d="M57.6078 36.7722C57.0778 35.3072 57.1498 33.7242 57.8098 32.3132C58.4708 30.9022 59.6408 29.8342 61.1058 29.3032C62.5698 28.7732 64.1538 28.8452 65.5648 29.5052C66.9758 30.1662 68.0438 31.3362 68.5748 32.8012L66.1028 33.6962C65.5018 32.0352 63.6618 31.1732 61.9998 31.7742C61.1958 32.0652 60.5518 32.6522 60.1898 33.4272C59.8268 34.2022 59.7878 35.0722 60.0788 35.8762L57.6078 36.7722Z" fill="#846EA0"/>
</g>
<mask id="mask4_1_350" style="mask-type:luminance" maskUnits="userSpaceOnUse" x="20" y="17" width="44" height="43">
<path d="M36.4388 17.8662C36.4388 17.8662 33.7078 18.6772 34.2008 20.5712C34.6938 22.4652 34.8988 22.6712 34.8988 22.6712C34.8988 22.6712 13.8298 52.5932 22.6608 58.3192C31.6568 64.1512 51.4768 35.1012 58.9868 40.0722L63.2818 43.2032C63.2818 43.2032 63.0828 24.2982 62.3078 24.3262C62.3078 24.3262 57.4118 30.1042 51.0398 29.2422C44.6668 28.3792 36.4388 17.8662 36.4388 17.8662Z" fill="white"/>
</mask>
<g mask="url(#mask4_1_350)">
<path d="M28.0848 56.9882C26.6788 56.3172 25.6178 55.1402 25.0978 53.6712C24.5778 52.2032 24.6598 50.6202 25.3308 49.2142C26.7148 46.3122 30.2018 45.0762 33.1048 46.4602L31.9738 48.8322C30.3798 48.0722 28.4638 48.7502 27.7038 50.3452C27.3358 51.1172 27.2898 51.9872 27.5758 52.7932C27.8618 53.6002 28.4438 54.2472 29.2168 54.6152L28.0848 56.9882Z" fill="#846EA0"/>
</g>
<path d="M74.4228 77.0492C74.4168 77.0492 74.4108 77.0492 74.4038 77.0482C74.3138 77.0382 74.2488 76.9572 74.2588 76.8662C74.2608 76.8432 74.5128 74.5542 74.4968 71.3012C74.4768 67.3682 74.0948 63.7772 73.3598 60.6282C73.3388 60.5402 73.3938 60.4512 73.4818 60.4312C73.5708 60.4112 73.6588 60.4652 73.6788 60.5532C74.4198 63.7262 74.8048 67.3412 74.8248 71.2992C74.8408 74.5732 74.5878 76.8792 74.5848 76.9022C74.5758 76.9872 74.5048 77.0492 74.4228 77.0492Z" fill="#3A2127"/>
<path d="M52.9388 30.2682C47.4008 30.2682 41.6278 26.1262 35.7718 17.9472C35.5078 17.5782 35.5928 17.0652 35.9608 16.8012C36.3298 16.5372 36.8428 16.6222 37.1068 16.9912C42.7818 24.9172 48.2458 28.8282 53.3288 28.6182C58.9648 28.3852 62.2618 22.9732 62.2948 22.9182C62.5268 22.5292 63.0298 22.4012 63.4188 22.6322C63.8088 22.8642 63.9378 23.3672 63.7068 23.7572C63.5558 24.0112 59.9418 29.9772 53.4138 30.2572C53.2558 30.2652 53.0968 30.2682 52.9388 30.2682Z" fill="#AFC547"/>
<path d="M21.9188 57.7192C21.9188 57.7192 19.8368 63.1052 22.1948 63.3152C24.5528 63.5252 38.4658 54.5702 43.0008 48.1522C43.0008 48.1522 30.1328 55.7472 21.9188 57.7192Z" fill="#AFC547"/>
<path d="M36.2138 25.1762C36.1598 25.1762 36.1068 25.1492 36.0758 25.1012C34.8048 23.1332 34.3448 21.6902 34.3258 21.6292C34.2988 21.5422 34.3468 21.4502 34.4338 21.4232C34.5208 21.3952 34.6128 21.4442 34.6398 21.5302C34.6448 21.5442 35.1078 22.9952 36.3528 24.9222C36.4018 24.9982 36.3798 25.1002 36.3038 25.1492C36.2748 25.1672 36.2438 25.1762 36.2138 25.1762Z" fill="#3A2127"/>
<path d="M47.2628 44.6122C47.2148 44.6122 47.1678 44.5912 47.1348 44.5512C44.4898 41.3032 40.5448 34.3952 40.5048 34.3252C40.4598 34.2462 40.4878 34.1462 40.5668 34.1012C40.6458 34.0562 40.7458 34.0842 40.7908 34.1622C40.8298 34.2312 44.7618 41.1162 47.3898 44.3432C47.4468 44.4132 47.4368 44.5172 47.3658 44.5742C47.3368 44.6002 47.2998 44.6122 47.2628 44.6122Z" fill="#3A2127"/>
<path d="M29.0668 52.4052C28.9838 52.4052 28.9128 52.3432 28.9038 52.2592C28.8938 52.1692 28.9589 52.0882 29.0499 52.0782C29.1089 52.0722 35.0388 51.3922 43.2589 47.8642C43.3419 47.8282 43.4388 47.8672 43.4748 47.9502C43.5108 48.0332 43.4718 48.1302 43.3888 48.1662C35.1198 51.7152 29.1448 52.3982 29.0858 52.4052C29.0788 52.4042 29.0728 52.4052 29.0668 52.4052Z" fill="#3A2127"/>
<path d="M35.8098 56.3582C35.7738 56.3582 35.7368 56.3462 35.7058 56.3212C35.6358 56.2642 35.6248 56.1602 35.6828 56.0902C36.3528 55.2682 52.1868 36.0142 59.0678 39.9292C59.1468 39.9742 59.1738 40.0742 59.1298 40.1532C59.0848 40.2322 58.9848 40.2592 58.9058 40.2152C52.2628 36.4392 36.0998 56.0992 35.9378 56.2982C35.9048 56.3382 35.8568 56.3582 35.8098 56.3582Z" fill="#3A2127"/>
<path d="M28.4398 7.98817V7.99117C28.4198 12.0392 27.9768 15.5212 27.2338 18.5642C25.2758 26.6272 21.2408 31.5982 17.5048 35.7212C17.5048 35.7212 17.5048 35.7212 17.5018 35.7212C17.1038 36.1612 16.7098 36.5952 16.3188 37.0192C14.5248 38.9742 12.9278 40.7122 11.6858 42.5982C10.5718 44.2842 9.74382 46.0942 9.31382 48.2752C8.88982 50.4242 8.77882 52.4512 8.97582 54.3432C9.12382 55.7492 9.43882 57.0802 9.92482 58.3352C10.6938 60.3162 11.8828 62.1102 13.4898 63.7132C14.4788 64.6992 15.5168 65.5042 16.4828 66.1442C18.6678 67.5992 20.4818 68.2302 20.5078 68.2402C22.8338 69.0092 24.0888 71.5092 23.3238 73.8392C22.7098 75.7022 20.9678 76.8852 19.1018 76.8852C18.6418 76.8852 18.1718 76.8132 17.7118 76.6622C17.3668 76.5472 15.3168 75.8412 12.7148 74.2672C11.1768 73.3372 9.44582 72.1082 7.76382 70.5152C7.68782 70.4462 7.61282 70.3742 7.53682 70.3012C4.18582 67.0682 0.626818 61.9532 0.0758181 54.5632C-0.108182 52.1412 0.0328158 49.4802 0.607816 46.5592C0.693816 46.1292 0.785817 45.7112 0.890817 45.3012C2.48082 38.9732 6.18982 34.9352 9.78482 31.0192C9.97882 30.8052 10.1758 30.5952 10.3698 30.3822C12.5648 27.9802 14.6768 25.5792 16.3228 22.5202C18.5698 18.3472 19.9468 12.9522 19.4798 4.68617C19.4338 3.87117 19.6118 3.09617 19.9558 2.41917C20.6488 1.06217 22.0258 0.0991758 23.6588 0.00717584C26.0998 -0.130824 28.1958 1.73817 28.3378 4.18317C28.4128 5.50417 28.4458 6.77317 28.4398 7.98817Z" fill="#F46831"/>
<path d="M9.31482 48.2752C8.89082 50.4242 8.77982 52.4512 8.97682 54.3432C6.44082 55.4672 3.23082 55.3522 0.0758181 54.5632C-0.108182 52.1412 0.0328158 49.4802 0.607816 46.5592C0.693816 46.1292 0.785817 45.7112 0.890817 45.3012C5.01082 45.2982 8.59182 44.2562 11.6868 42.5972C10.5728 44.2832 9.74482 46.0942 9.31482 48.2752Z" fill="#D8522A"/>
<path d="M27.2338 18.5642C25.2758 26.6272 21.2408 31.5982 17.5048 35.7212C17.5048 35.7212 17.5048 35.7212 17.5018 35.7212C14.0028 34.3312 11.7818 32.2712 10.3688 30.3822C12.5638 27.9802 14.6758 25.5792 16.3218 22.5202C22.0818 23.0722 25.3088 20.7232 27.2338 18.5642Z" fill="#D8522A"/>
<path d="M28.4398 7.98817C26.2448 5.16217 22.7688 3.44417 19.9568 2.41917C20.6498 1.06217 22.0268 0.0991758 23.6598 0.00717584C26.1008 -0.130824 28.1968 1.73817 28.3388 4.18317C28.4128 5.50417 28.4458 6.77317 28.4398 7.98817Z" fill="#D8522A"/>
<path d="M16.4838 66.1452C14.3348 68.1952 13.3528 71.5432 12.7158 74.2672C11.1778 73.3372 9.4468 72.1082 7.7648 70.5152C6.7098 65.0742 8.1788 61.0432 9.9268 58.3362C10.6958 60.3172 11.8848 62.1112 13.4918 63.7142C14.4798 64.6992 15.5178 65.5042 16.4838 66.1452Z" fill="#D8522A"/>
</svg>
