<svg width="116" height="73" viewBox="0 0 116 73" fill="none" xmlns="http://www.w3.org/2000/svg">
<path d="M12.8193 37.5943C11.9933 37.6193 11.3424 38.2983 11.3504 39.1243C11.4054 44.7723 11.7894 64.8123 14.4794 68.7313C17.6174 73.3033 36.2644 71.4673 38.8644 69.8303C41.4644 68.1933 42.9054 38.7353 42.4504 37.6413C41.7064 35.8513 18.9273 37.4093 12.8193 37.5943Z" fill="#7A4438"/>
<path d="M12.0583 41.5664C12.0583 41.5664 7.84435 40.6844 7.57535 42.1114C7.30635 43.5384 8.92035 44.3454 8.92035 44.3454C8.92035 44.3454 -3.27165 51.3384 0.851349 58.9584C4.97535 66.5784 15.5544 65.1694 15.5544 65.1694L15.1064 60.1234C15.1064 60.1234 6.50033 61.7374 5.69333 56.1784C4.88633 50.6204 13.1343 45.8684 13.1343 45.8684L12.0583 41.5664Z" fill="#7A4438"/>
<path d="M12.4263 60.5123C10.8043 60.5123 8.78434 60.2593 7.33034 59.2203C6.32234 58.4993 5.71632 57.4843 5.53032 56.2043C4.71632 50.6003 12.7113 45.9243 13.0513 45.7283C13.1303 45.6833 13.2303 45.7103 13.2753 45.7883C13.3203 45.8673 13.2933 45.9673 13.2153 46.0133C13.1333 46.0603 5.07333 50.7733 5.85533 56.1573C6.02833 57.3463 6.58832 58.2873 7.52132 58.9543C10.1803 60.8543 15.0273 59.9733 15.0763 59.9643C15.1663 59.9483 15.2513 60.0063 15.2683 60.0953C15.2853 60.1843 15.2263 60.2703 15.1373 60.2873C15.0403 60.3043 13.8963 60.5123 12.4263 60.5123Z" fill="#D39188"/>
<path d="M54.4964 23.4764C59.0364 29.4324 60.1924 36.1854 57.0774 38.5604C53.9624 40.9354 47.7564 38.0324 43.2154 32.0764C38.6744 26.1204 37.5194 19.3674 40.6344 16.9924C43.7504 14.6174 49.9564 17.5204 54.4964 23.4764Z" fill="#F46831"/>
<path d="M79.7684 15.0534V38.9264C79.7684 45.0604 75.4744 50.2384 69.7474 51.6054C68.7814 51.8384 67.7724 51.9604 66.7374 51.9604C59.5684 51.9604 53.7034 46.0954 53.7034 38.9264V15.0534C53.7034 11.2094 55.3884 7.73939 58.0604 5.34839C58.9504 4.55039 59.9494 3.87339 61.0334 3.34439C62.7584 2.49639 64.6934 2.02039 66.7374 2.02039C70.3224 2.02039 73.5774 3.48539 75.9404 5.84839C78.3034 8.21139 79.7684 11.4694 79.7684 15.0534Z" fill="#F46831"/>
<path d="M69.7474 31.8094V49.3044C68.7814 49.5374 67.7724 49.6594 66.7374 49.6594C59.5684 49.6594 53.7034 43.7944 53.7034 36.6254V19.1304C54.6694 18.8974 55.6784 18.7754 56.7124 18.7754C60.2974 18.7754 63.5564 20.2404 65.9184 22.6024C68.2814 24.9654 69.7474 28.2254 69.7474 31.8094Z" fill="#D8522A"/>
<path d="M75.0284 9.5334L70.1033 6.6294C70.1033 6.6294 70.6323 3.9324 71.5093 1.9774C72.1103 0.643402 72.8733 -0.345605 73.7433 0.114395C74.2853 0.403395 74.6373 1.13939 74.8573 2.07939C75.5083 4.85539 75.0284 9.4224 75.0284 9.5334Z" fill="#F46831"/>
<path d="M62.2953 9.53436C62.2603 9.40236 61.1093 2.17036 58.9953 1.68936C56.8813 1.20836 57.3633 8.16737 57.3633 8.16737L62.2953 9.53436Z" fill="#F46831"/>
<path d="M93.4594 72.2394L37.8254 72.2684C37.8254 72.2684 30.5384 56.4094 43.6504 42.3174C46.4104 39.3504 50.0774 36.4594 54.9064 33.8144C59.5784 31.2514 63.7214 27.8244 67.0104 23.6324L78.3754 9.14941C78.3754 9.14941 79.8174 11.6534 81.5954 16.0854C82.1574 17.4854 82.7514 19.0784 83.3464 20.8464C83.5894 21.5724 83.8394 22.3184 84.0924 23.0834C84.3944 23.9934 84.7034 24.9294 85.0194 25.8854C85.2794 26.6844 85.5414 27.4954 85.8044 28.3204C85.9814 28.8624 86.1554 29.4144 86.3334 29.9694C86.7864 31.3954 87.2434 32.8544 87.7004 34.3294C88.1074 35.6564 88.5154 37.0004 88.9164 38.3474C89.1754 39.2144 89.4324 40.0854 89.6824 40.9524C90.0834 42.3294 90.4744 43.7024 90.8484 45.0624C90.9304 45.3544 91.0094 45.6444 91.0884 45.9364C91.6924 48.1504 92.2584 50.3294 92.7644 52.4254C92.8924 52.9544 93.0174 53.4764 93.1394 53.9954C93.3164 54.7614 93.4874 55.5134 93.6454 56.2494C95.5394 65.0344 96.0444 71.6614 93.4594 72.2394Z" fill="#F46831"/>
<path d="M45.1614 72.2694H23.7754C22.6934 72.2694 21.8794 71.2554 22.1404 70.2054C22.5994 68.3644 23.6574 66.7714 25.0854 65.6324C26.7804 64.2794 28.9974 63.5664 31.3484 63.8374L45.1614 65.4304V72.2694Z" fill="#F46831"/>
<path d="M26.4893 72.4334C26.3983 72.4334 26.3253 72.3604 26.3253 72.2694C26.3253 70.7124 27.0243 69.2614 28.2423 68.2894C29.3073 67.4384 30.6423 67.0574 31.9983 67.2124C32.0883 67.2234 32.1533 67.3044 32.1423 67.3944C32.1323 67.4844 32.0513 67.5484 31.9603 67.5384C30.6913 67.3914 29.4433 67.7494 28.4473 68.5454C27.3073 69.4544 26.6543 70.8114 26.6543 72.2684C26.6533 72.3594 26.5793 72.4334 26.4893 72.4334Z" fill="#3A2127"/>
<path d="M48.4683 26.6234C48.2863 28.9344 47.6473 31.0234 46.7223 32.6514C45.4443 34.8994 43.6213 36.2664 41.7063 36.1154C38.4053 35.8554 36.0803 31.1844 36.5133 25.6824C36.9463 20.1804 39.9743 15.9304 43.2753 16.1904C46.5763 16.4504 48.9013 21.1214 48.4683 26.6234Z" fill="#F46831"/>
<path d="M41.9964 36.2914C41.8954 36.2914 41.7944 36.2874 41.6934 36.2794C41.6034 36.2724 41.5354 36.1934 41.5424 36.1034C41.5494 36.0134 41.6314 35.9394 41.7194 35.9524C43.5054 36.0904 45.2774 34.8604 46.5794 32.5704C47.5334 30.8924 48.1304 28.8314 48.3044 26.6114C48.3114 26.5214 48.3934 26.4554 48.4814 26.4604C48.5724 26.4674 48.6394 26.5464 48.6324 26.6364C48.4534 28.9044 47.8424 31.0124 46.8644 32.7324C45.5694 35.0104 43.8094 36.2914 41.9964 36.2914Z" fill="#3A2127"/>
<path d="M59.4764 10.2254C59.4764 10.8214 58.2404 11.3014 56.7134 11.3014C56.5254 11.3014 56.3414 11.2934 56.1654 11.2814C54.9014 11.1814 53.9504 10.7494 53.9504 10.2254C53.9504 9.70542 54.9024 9.26942 56.1654 9.16942C56.3414 9.15742 56.5254 9.14941 56.7134 9.14941C58.2414 9.15041 59.4764 9.63442 59.4764 10.2254Z" fill="white"/>
<path d="M56.7134 11.4654C56.5214 11.4654 56.3344 11.4574 56.1544 11.4454C54.9744 11.3524 53.7864 10.9384 53.7864 10.2264C53.7864 9.51341 54.9754 9.09941 56.1534 9.00641C56.3344 8.99441 56.5224 8.98541 56.7144 8.98541C58.3834 8.98541 59.6414 9.51842 59.6414 10.2254C59.6404 10.9324 58.3824 11.4654 56.7134 11.4654ZM56.7134 9.31441C56.5294 9.31441 56.3494 9.32241 56.1764 9.33441C54.8864 9.43641 54.1144 9.86841 54.1144 10.2264C54.1144 10.5844 54.8864 11.0164 56.1784 11.1184C56.3484 11.1294 56.5294 11.1374 56.7134 11.1374C58.2444 11.1374 59.3124 10.6574 59.3124 10.2264C59.3124 9.79441 58.2454 9.31441 56.7134 9.31441Z" fill="#3A2127"/>
<path d="M59.4763 10.2254C59.4763 10.8214 58.2403 11.3014 56.7133 11.3014C56.5253 11.3014 56.3413 11.2934 56.1653 11.2814C55.9613 10.9654 55.8453 10.6054 55.8453 10.2254C55.8453 9.84542 55.9613 9.48542 56.1653 9.16942C56.3413 9.15742 56.5253 9.14941 56.7133 9.14941C58.2413 9.15041 59.4763 9.63442 59.4763 10.2254Z" fill="#3A2127"/>
<path d="M67.8223 10.2254C67.8223 10.8214 66.5863 11.3014 65.0593 11.3014C64.8713 11.3014 64.6873 11.2934 64.5113 11.2814C63.2473 11.1814 62.2963 10.7494 62.2963 10.2254C62.2963 9.70542 63.2483 9.26942 64.5113 9.16942C64.6873 9.15742 64.8713 9.14941 65.0593 9.14941C66.5863 9.15041 67.8223 9.63442 67.8223 10.2254Z" fill="white"/>
<path d="M65.0593 11.4654C64.8673 11.4654 64.6803 11.4574 64.5003 11.4454C63.3203 11.3524 62.1323 10.9384 62.1323 10.2264C62.1323 9.51341 63.3213 9.09941 64.4993 9.00641C64.6803 8.99441 64.8683 8.98541 65.0603 8.98541C66.7293 8.98541 67.9873 9.51842 67.9873 10.2254C67.9863 10.9324 66.7283 11.4654 65.0593 11.4654ZM65.0593 9.31441C64.8753 9.31441 64.6953 9.32241 64.5223 9.33441C63.2323 9.43641 62.4603 9.86841 62.4603 10.2264C62.4603 10.5844 63.2323 11.0164 64.5243 11.1184C64.6943 11.1294 64.8753 11.1374 65.0593 11.1374C66.5913 11.1374 67.6583 10.6574 67.6583 10.2264C67.6573 9.79441 66.5903 9.31441 65.0593 9.31441Z" fill="#3A2127"/>
<path d="M67.8223 10.2254C67.8223 10.8214 66.5863 11.3014 65.0593 11.3014C64.8713 11.3014 64.6873 11.2934 64.5113 11.2814C64.3073 10.9654 64.1913 10.6054 64.1913 10.2254C64.1913 9.84542 64.3073 9.48542 64.5113 9.16942C64.6873 9.15742 64.8713 9.14941 65.0593 9.14941C66.5863 9.15041 67.8223 9.63442 67.8223 10.2254Z" fill="#3A2127"/>
<path d="M61.2784 11.9594C61.2784 12.5244 60.8203 12.9834 60.2543 12.9834C59.6893 12.9834 59.2303 12.5254 59.2303 11.9594C59.2303 11.3944 60.2543 12.3454 60.2543 12.3454C60.2543 12.3454 61.2784 11.3944 61.2784 11.9594Z" fill="#3A2127"/>
<path d="M59.3364 15.4715C59.3014 15.4715 59.2663 15.4605 59.2363 15.4375C59.1643 15.3825 59.1504 15.2795 59.2054 15.2075L60.0894 14.0505V12.9835C60.0894 12.8925 60.1623 12.8195 60.2533 12.8195C60.3443 12.8195 60.4173 12.8925 60.4173 12.9835V14.1615L59.4654 15.4075C59.4344 15.4495 59.3854 15.4715 59.3364 15.4715Z" fill="#3A2127"/>
<path d="M61.1054 15.4715C61.0534 15.4715 61.0034 15.4475 60.9714 15.4025L60.1204 14.2005C60.0684 14.1265 60.0854 14.0235 60.1594 13.9715C60.2334 13.9195 60.3364 13.9365 60.3884 14.0105L61.2394 15.2125C61.2914 15.2865 61.2744 15.3895 61.2004 15.4415C61.1714 15.4615 61.1384 15.4715 61.1054 15.4715Z" fill="#3A2127"/>
<path d="M40.8183 53.1204C38.5143 53.3724 36.3423 53.1324 34.5703 52.5274C32.1233 51.6904 30.4413 50.1544 30.2333 48.2444C29.8743 44.9524 34.0303 41.7984 39.5173 41.1994C45.0043 40.6004 49.7434 42.7834 50.1024 46.0754C50.4614 49.3674 46.3043 52.5214 40.8183 53.1204Z" fill="#F46831"/>
<path d="M32.6983 51.8204C32.6403 51.8204 32.5843 51.7894 32.5543 51.7364C32.2383 51.1694 32.2023 50.6204 32.4453 50.1034C33.2953 48.2974 37.3273 47.5304 37.4993 47.4994C37.5883 47.4814 37.6743 47.5414 37.6903 47.6314C37.7073 47.7204 37.6483 47.8064 37.5583 47.8224C37.5183 47.8304 33.5203 48.5894 32.7423 50.2434C32.5443 50.6654 32.5763 51.1014 32.8413 51.5764C32.8853 51.6554 32.8573 51.7554 32.7773 51.7994C32.7523 51.8134 32.7253 51.8204 32.6983 51.8204Z" fill="#3A2127"/>
<path d="M59.3503 4.49437C59.2983 4.49437 59.2473 4.46937 59.2153 4.42337C59.1633 4.34837 59.1823 4.24637 59.2563 4.19437C59.7963 3.82037 60.3693 3.48337 60.9593 3.19437C62.7703 2.30537 64.7143 1.85437 66.7353 1.85437C66.8263 1.85437 66.8993 1.92837 66.8993 2.01837C66.8993 2.10937 66.8263 2.18237 66.7353 2.18237C64.7643 2.18237 62.8693 2.62137 61.1043 3.48837C60.5293 3.77037 59.9703 4.09936 59.4433 4.46336C59.4153 4.48536 59.3833 4.49437 59.3503 4.49437Z" fill="#3A2127"/>
<path d="M44.9013 34.6004C44.5523 34.6004 44.2323 34.4964 43.9443 34.2874C42.3283 33.1164 42.3264 29.0114 42.3264 28.8374C42.3264 28.7474 42.4003 28.6734 42.4903 28.6734H42.4913C42.5823 28.6734 42.6553 28.7474 42.6553 28.8384C42.6553 28.8794 42.6573 32.9494 44.1373 34.0214C44.5143 34.2944 44.9493 34.3444 45.4653 34.1724C45.5513 34.1434 45.6443 34.1904 45.6733 34.2764C45.7023 34.3624 45.6553 34.4554 45.5693 34.4844C45.3363 34.5614 45.1133 34.6004 44.9013 34.6004Z" fill="#3A2127"/>
<path d="M62.8624 8.09742C62.8584 8.09742 62.8554 8.09742 62.8514 8.09742C62.7604 8.09142 62.6924 8.01342 62.6984 7.92342L62.9854 3.48742C62.9914 3.39742 63.0704 3.32642 63.1604 3.33442C63.2514 3.34042 63.3194 3.41841 63.3134 3.50841L63.0254 7.94442C63.0204 8.03142 62.9484 8.09742 62.8624 8.09742Z" fill="#3A2127"/>
<path d="M63.4014 8.23243C63.3744 8.23243 63.3484 8.22644 63.3234 8.21244C63.2434 8.16844 63.2144 8.06943 63.2574 7.98943L64.3934 5.90244C64.4364 5.82344 64.5364 5.79343 64.6164 5.83643C64.6964 5.88043 64.7254 5.97944 64.6824 6.05944L63.5464 8.14643C63.5164 8.20143 63.4594 8.23243 63.4014 8.23243Z" fill="#3A2127"/>
<path d="M58.6943 8.09736C58.6083 8.09736 58.5363 8.03037 58.5303 7.94337L58.2433 3.50736C58.2373 3.41736 58.3063 3.33837 58.3963 3.33337C58.4853 3.32637 58.5653 3.39637 58.5713 3.48637L58.8593 7.92236C58.8653 8.01236 58.7963 8.09137 58.7063 8.09637C58.7013 8.09737 58.6983 8.09736 58.6943 8.09736Z" fill="#3A2127"/>
<path d="M58.1553 8.23236C58.0973 8.23236 58.0403 8.20137 58.0113 8.14637L56.8753 6.05938C56.8323 5.97938 56.8613 5.88037 56.9413 5.83637C57.0213 5.79337 57.1213 5.82338 57.1643 5.90238L58.3003 7.98937C58.3443 8.06937 58.3143 8.16838 58.2343 8.21238C58.2083 8.22638 58.1823 8.23236 58.1553 8.23236Z" fill="#3A2127"/>
<path d="M115.245 38.9074C115.199 39.8474 115.133 40.8064 115.041 41.7824C115.005 42.1804 114.959 42.5744 114.906 42.9654C113.917 50.5784 110.254 57.5634 104.517 62.7504C102.227 64.8204 99.6813 66.5354 96.9603 67.8664C92.5313 70.0314 87.6363 71.1814 82.6153 71.1814C80.1643 71.1814 78.1803 69.1974 78.1803 66.7464C78.1803 64.2954 80.1643 62.3104 82.6153 62.3104C85.6513 62.3104 88.5553 61.7514 91.2263 60.7264C93.2073 59.9674 95.0603 58.9524 96.7423 57.7164C101.362 54.3224 104.69 49.2794 105.853 43.3754C106.011 42.5834 106.129 41.7784 106.205 40.9574C106.655 36.1634 106.451 31.9884 105.597 28.4434C105.531 28.1734 105.462 27.9074 105.39 27.6484C104.477 24.3104 102.952 21.5704 100.833 19.4514C99.1013 17.7164 99.1013 14.9104 100.833 13.1764C102.565 11.4444 105.374 11.4444 107.105 13.1764C107.916 13.9884 108.669 14.8484 109.356 15.7624C111.074 18.0264 112.418 20.5954 113.391 23.4704C114.042 25.3764 114.525 27.4164 114.846 29.5844C115.268 32.4644 115.403 35.5764 115.245 38.9074Z" fill="#F46831"/>
<path d="M82.6163 71.3444C82.5253 71.3444 82.4523 71.2714 82.4523 71.1804C82.4523 71.0894 82.5253 71.0164 82.6163 71.0164C87.5443 71.0164 92.4804 69.8764 96.8904 67.7194C96.9724 67.6794 97.0704 67.7134 97.1104 67.7944C97.1504 67.8754 97.1163 67.9744 97.0353 68.0144C92.5793 70.1924 87.5943 71.3444 82.6163 71.3444Z" fill="#3A2127"/>
<path d="M91.2294 60.8915C91.1634 60.8915 91.1014 60.8514 91.0764 60.7854C91.0434 60.7004 91.0864 60.6054 91.1714 60.5734C93.1234 59.8244 94.9663 58.8184 96.6503 57.5824C96.7233 57.5284 96.8263 57.5444 96.8793 57.6174C96.9333 57.6904 96.9173 57.7934 96.8443 57.8474C95.1373 59.1014 93.2683 60.1215 91.2883 60.8805C91.2683 60.8875 91.2484 60.8915 91.2294 60.8915Z" fill="#3A2127"/>
<path d="M37.8243 72.4335C37.7623 72.4335 37.7024 72.3975 37.6754 72.3375C37.6574 72.2975 35.8373 68.2765 35.6553 62.5825C35.4873 57.3265 36.7163 49.5255 43.5273 42.2045C46.4803 39.0305 50.2824 36.1595 54.8254 33.6695C54.9044 33.6255 55.0053 33.6545 55.0483 33.7345C55.0923 33.8145 55.0623 33.9135 54.9833 33.9575C50.4703 36.4295 46.6973 39.2795 43.7683 42.4285C30.8813 56.2795 37.9013 72.0435 37.9743 72.2005C38.0123 72.2835 37.9763 72.3805 37.8933 72.4185C37.8703 72.4285 37.8473 72.4335 37.8243 72.4335Z" fill="#3A2127"/>
<path d="M33.2284 35.4994C33.2284 35.4994 21.2004 38.5764 24.8534 40.1854C28.5054 41.7944 33.2284 35.4994 33.2284 35.4994Z" fill="#45282A"/>
<path d="M31.7723 31.3094C31.7723 31.3094 13.2703 25.2594 19.1503 23.1174C25.0313 20.9754 31.7723 31.3094 31.7723 31.3094Z" fill="#45282A"/>
<path d="M55.1444 66.2734C57.0374 68.0844 64.5394 71.7634 68.1484 66.9344C71.7574 62.1054 62.0474 58.9394 61.7254 54.3134C61.4034 49.6874 61.8584 37.5774 53.8704 42.0904C45.8834 46.6044 46.2444 57.7574 55.1444 66.2734Z" fill="#D8522A"/>
<path d="M86.3333 29.9714C82.7353 32.3564 77.0553 35.0774 72.8533 32.1724C67.9183 28.7584 76.7633 20.2194 81.5963 16.0864C82.1583 17.4864 82.7523 19.0794 83.3473 20.8474C83.5903 21.5734 83.8403 22.3194 84.0933 23.0844C84.3953 23.9944 84.7043 24.9304 85.0203 25.8864C85.4493 27.2114 85.8893 28.5744 86.3333 29.9714Z" fill="#D8522A"/>
<path d="M92.7623 52.4274C89.5853 60.6744 74.6103 66.5984 71.8893 58.6244C68.8243 49.6454 83.1683 50.5224 84.8113 45.9224C86.4543 41.3224 77.3663 37.2684 78.1813 32.2314C78.6443 29.3634 82.5383 28.5184 85.8033 28.3214C85.9803 28.8634 86.1543 29.4154 86.3323 29.9704C86.7853 31.3964 87.2423 32.8554 87.6993 34.3304C88.1063 35.6574 88.5143 37.0014 88.9153 38.3484C89.1743 39.2154 89.4313 40.0864 89.6813 40.9534C90.0823 42.3304 90.4733 43.7034 90.8473 45.0634C90.9293 45.3554 91.0083 45.6454 91.0873 45.9374C91.6913 48.1534 92.2563 50.3314 92.7623 52.4274Z" fill="#F6BB99"/>
<path d="M72.4694 55.1604C68.3324 53.9354 66.3714 49.2024 68.4164 45.4034C69.8854 42.6754 72.3664 39.9224 76.0514 41.5264C82.6224 44.3864 78.7794 56.9474 72.6514 55.2124C72.5904 55.1964 72.5294 55.1784 72.4694 55.1604Z" fill="#D8522A"/>
<path d="M74.5733 32.7244C76.2733 30.1934 74.6814 28.1914 73.0414 27.0904C71.4014 25.9894 67.9493 25.2454 66.2503 27.7764C64.5503 30.3074 65.2464 35.1554 66.8864 36.2564C68.5254 37.3584 72.8733 35.2554 74.5733 32.7244Z" fill="#F6BB99"/>
<path d="M115.041 41.7824C115.005 42.1804 114.959 42.5744 114.906 42.9654C114.068 43.7634 113.263 44.2234 112.547 44.2234C108.509 44.2234 110.494 29.8724 110.494 23.0314C110.494 20.5144 109.903 17.9714 109.357 15.7604C111.075 18.0244 112.419 20.5934 113.392 23.4684C115.147 28.6244 115.699 34.7454 115.041 41.7824Z" fill="#D8522A"/>
<path d="M115.245 38.9074C112.387 40.7864 108.897 42.4294 105.855 43.3754C106.013 42.5834 106.131 41.7784 106.207 40.9574C106.657 36.1634 106.453 31.9884 105.599 28.4434C107.215 29.3504 108.822 29.9904 110.248 29.9904C111.894 29.9904 113.455 29.7804 114.848 29.5834C115.268 32.4644 115.403 35.5764 115.245 38.9074Z" fill="#F6BB99"/>
</svg>
