<svg width="116" height="50" viewBox="0 0 116 50" fill="none" xmlns="http://www.w3.org/2000/svg">
<path d="M106.256 46.113L109.16 41.188C109.16 41.188 111.857 41.717 113.812 42.594C115.146 43.195 116.135 43.958 115.675 44.828C115.386 45.37 114.65 45.722 113.71 45.942C110.935 46.593 106.368 46.113 106.256 46.113Z" fill="#45282A"/>
<path d="M106.256 26.328L109.16 31.253C109.16 31.253 111.857 30.724 113.812 29.847C115.146 29.246 116.135 28.483 115.675 27.613C115.386 27.071 114.65 26.719 113.71 26.499C110.935 25.848 106.368 26.328 106.256 26.328Z" fill="#45282A"/>
<path d="M99.165 49.709H75.2921C69.1581 49.709 63.98 45.415 62.613 39.688C62.38 38.722 62.258 37.713 62.258 36.678C62.258 29.509 68.1231 23.644 75.2921 23.644H99.165C103.009 23.644 106.479 25.33 108.87 28.001C109.668 28.891 110.345 29.89 110.874 30.974C111.722 32.699 112.198 34.634 112.198 36.678C112.198 40.263 110.733 43.518 108.37 45.881C106.009 48.244 102.75 49.709 99.165 49.709Z" fill="#7A4438"/>
<path d="M107.093 31.679C107.093 31.87 107.086 32.054 107.073 32.228C107.057 32.435 107.03 32.635 106.997 32.823C106.829 33.779 106.452 34.443 106.018 34.443C105.578 34.443 105.203 33.776 105.036 32.817C105 32.633 104.977 32.436 104.96 32.229C104.95 32.055 104.94 31.871 104.94 31.68C104.94 31.273 104.973 30.888 105.039 30.54C105.203 29.581 105.578 28.917 106.018 28.917C106.452 28.917 106.826 29.581 106.994 30.537C107.057 30.884 107.093 31.271 107.093 31.679Z" fill="white"/>
<path d="M107.093 31.679C107.093 31.87 107.086 32.054 107.073 32.228C107.057 32.435 107.03 32.635 106.997 32.823C106.734 33.05 106.393 33.184 106.018 33.184C105.64 33.184 105.299 33.046 105.036 32.816C105 32.632 104.977 32.435 104.96 32.228C104.95 32.054 104.94 31.87 104.94 31.679C104.94 31.272 104.973 30.887 105.039 30.539C105.302 30.309 105.643 30.174 106.018 30.174C106.393 30.174 106.731 30.309 106.994 30.535C107.057 30.884 107.093 31.271 107.093 31.679Z" fill="#3A2127"/>
<path d="M106.018 34.607C105.305 34.607 104.892 33.418 104.799 32.24C104.786 32.059 104.778 31.871 104.778 31.679C104.778 30.01 105.311 28.752 106.018 28.752C106.725 28.752 107.258 30.011 107.258 31.679C107.258 31.871 107.25 32.059 107.237 32.238C107.144 33.419 106.731 34.607 106.018 34.607ZM106.018 29.081C105.587 29.081 105.107 30.148 105.107 31.68C105.107 31.864 105.115 32.044 105.127 32.217C105.229 33.507 105.661 34.279 106.019 34.279C106.377 34.279 106.809 33.507 106.911 32.215C106.923 32.044 106.931 31.864 106.931 31.68C106.929 30.148 106.449 29.081 106.018 29.081Z" fill="#D39188"/>
<path d="M29.752 48.781H28.229C12.663 48.781 0 37.84 0 24.391C0 10.942 12.664 0 28.229 0H39.389C41.839 0 43.824 1.986 43.824 4.436C43.824 6.886 41.838 8.87099 39.389 8.87099H28.229C17.555 8.87099 8.87103 15.833 8.87103 24.39C8.87103 32.948 17.555 39.91 28.229 39.91H29.752C32.202 39.91 34.187 41.896 34.187 44.345C34.188 46.796 32.202 48.781 29.752 48.781Z" fill="#7A4438"/>
<path d="M26.0581 49.697H4.67201C3.59001 49.697 2.77606 48.683 3.03706 47.634C3.49606 45.793 4.554 44.2 5.982 43.061C7.677 41.708 9.894 40.995 12.245 41.266L26.0581 42.859V49.697Z" fill="#45282A"/>
<path d="M7.38501 49.861C7.29401 49.861 7.22101 49.787 7.22101 49.697C7.22101 48.14 7.919 46.69 9.138 45.718C10.204 44.867 11.537 44.485 12.894 44.641C12.984 44.651 13.049 44.733 13.038 44.823C13.028 44.913 12.944 44.977 12.856 44.967C11.587 44.821 10.34 45.179 9.34302 45.974C8.20402 46.884 7.55005 48.24 7.55005 49.697C7.55005 49.788 7.47601 49.861 7.38501 49.861Z" fill="#87666A"/>
<path d="M23.684 26.313L19.849 8.299C19.624 7.241 20.445 6.233 21.527 6.271C23.423 6.336 25.201 7.04 26.613 8.199C28.289 9.576 29.448 11.595 29.673 13.951L30.992 27.793L27.207 28.599C25.602 28.939 24.025 27.916 23.684 26.313Z" fill="#45282A"/>
<path d="M26.342 15.468C26.258 15.468 26.187 15.404 26.179 15.319C26.058 14.048 25.448 12.902 24.463 12.092C23.336 11.167 21.873 10.81 20.449 11.113C20.362 11.131 20.273 11.076 20.254 10.986C20.235 10.897 20.292 10.81 20.381 10.791C21.905 10.467 23.468 10.848 24.673 11.837C25.727 12.702 26.378 13.927 26.508 15.286C26.517 15.376 26.45 15.457 26.36 15.465C26.353 15.467 26.348 15.468 26.342 15.468Z" fill="#87666A"/>
<path d="M81.282 49.697H23.02C23.02 44.851 24.012 40.255 25.783 36.144C29.417 27.707 36.339 21.297 44.747 18.888C47.109 18.211 49.593 17.85 52.153 17.85C57.255 17.85 62.052 19.286 66.222 21.806C75.201 27.231 81.282 37.689 81.282 49.697Z" fill="#7A4438"/>
<path d="M49.392 10.797C47.241 10.797 45.155 11.127 43.168 11.747C32.659 15.023 24.907 26.399 24.907 39.929H73.879C73.879 28.943 68.768 19.378 61.22 14.415C57.713 12.109 53.681 10.797 49.392 10.797Z" fill="#7A4438"/>
<path d="M23.589 43.573C23.58 43.573 23.572 43.572 23.563 43.571C23.473 43.557 23.412 43.473 23.426 43.383C23.685 41.75 24.631 38.706 24.672 38.577C27.991 28.791 35.479 21.374 44.701 18.732C47.12 18.039 49.627 17.688 52.151 17.688C57.104 17.688 61.999 19.063 66.307 21.666C66.385 21.713 66.409 21.814 66.363 21.891C66.316 21.969 66.215 21.994 66.137 21.947C61.881 19.376 57.044 18.016 52.151 18.016C49.657 18.016 47.181 18.363 44.791 19.048C35.672 21.66 28.268 28.999 24.984 38.679C24.975 38.706 24.006 41.826 23.751 43.435C23.738 43.515 23.668 43.573 23.589 43.573Z" fill="#D39188"/>
<path d="M84.452 28.773C77.782 32.179 70.9311 32.113 69.1491 28.624C67.3671 25.135 71.33 19.546 78 16.14C84.67 12.734 91.5211 12.8 93.3031 16.289C95.0851 19.777 91.122 25.366 84.452 28.773Z" fill="#7A4438"/>
<path d="M82.4301 22.28C80.1891 21.689 78.246 20.688 76.81 19.487C74.826 17.829 73.806 15.792 74.295 13.934C75.139 10.732 80.15 9.27597 85.487 10.683C90.824 12.09 94.466 15.826 93.622 19.028C92.778 22.232 87.7671 23.687 82.4301 22.28Z" fill="#7A4438"/>
<path d="M82.4301 22.444C82.4161 22.444 82.402 22.442 82.388 22.438C80.188 21.858 78.223 20.881 76.705 19.612C74.582 17.838 73.6461 15.753 74.1371 13.892C74.1601 13.804 74.249 13.752 74.338 13.775C74.426 13.798 74.478 13.888 74.455 13.976C73.998 15.71 74.895 17.672 76.916 19.361C78.398 20.599 80.319 21.553 82.473 22.121C82.561 22.144 82.6131 22.234 82.5901 22.322C82.5701 22.396 82.5031 22.444 82.4301 22.444Z" fill="#D39188"/>
<path d="M107.093 40.084C107.093 40.275 107.086 40.459 107.073 40.633C107.057 40.84 107.03 41.04 106.997 41.228C106.829 42.184 106.452 42.848 106.018 42.848C105.578 42.848 105.203 42.181 105.036 41.222C105 41.038 104.977 40.841 104.96 40.634C104.95 40.46 104.94 40.276 104.94 40.085C104.94 39.678 104.973 39.293 105.039 38.945C105.203 37.986 105.578 37.322 106.018 37.322C106.452 37.322 106.826 37.986 106.994 38.942C107.057 39.289 107.093 39.676 107.093 40.084Z" fill="white"/>
<path d="M107.093 40.084C107.093 40.275 107.086 40.459 107.073 40.633C107.057 40.84 107.03 41.04 106.997 41.228C106.734 41.455 106.393 41.589 106.018 41.589C105.64 41.589 105.299 41.451 105.036 41.221C105 41.037 104.977 40.84 104.96 40.633C104.95 40.459 104.94 40.275 104.94 40.084C104.94 39.677 104.973 39.292 105.039 38.944C105.302 38.714 105.643 38.579 106.018 38.579C106.393 38.579 106.731 38.714 106.994 38.941C107.057 39.289 107.093 39.676 107.093 40.084Z" fill="#3A2127"/>
<path d="M106.018 43.012C105.305 43.012 104.892 41.823 104.799 40.645C104.786 40.464 104.778 40.276 104.778 40.084C104.778 38.415 105.311 37.157 106.018 37.157C106.725 37.157 107.258 38.415 107.258 40.084C107.258 40.276 107.25 40.464 107.237 40.643C107.144 41.824 106.731 43.012 106.018 43.012ZM106.018 37.486C105.587 37.486 105.107 38.553 105.107 40.085C105.107 40.269 105.115 40.449 105.127 40.622C105.229 41.912 105.661 42.684 106.019 42.684C106.377 42.684 106.809 41.912 106.911 40.62C106.923 40.449 106.931 40.269 106.931 40.085C106.929 38.553 106.449 37.486 106.018 37.486Z" fill="#D39188"/>
<path d="M99.89 44.318C102.68 44.318 104.942 40.8375 104.942 36.544C104.942 32.2506 102.68 28.77 99.89 28.77C97.0999 28.77 94.838 32.2506 94.838 36.544C94.838 40.8375 97.0999 44.318 99.89 44.318Z" fill="#45282A"/>
<path d="M100.588 36.98C100.539 36.98 100.49 36.958 100.457 36.916C100.402 36.844 100.416 36.741 100.488 36.686L101.747 35.724H102.938C103.029 35.724 103.102 35.797 103.102 35.888C103.102 35.979 103.029 36.052 102.938 36.052H101.858L100.687 36.947C100.658 36.969 100.623 36.98 100.588 36.98Z" fill="#D39188"/>
<path d="M101.803 36.051C101.77 36.051 101.737 36.041 101.708 36.021L100.493 35.161C100.419 35.109 100.402 35.006 100.454 34.932C100.507 34.858 100.61 34.841 100.683 34.893L101.898 35.753C101.972 35.805 101.99 35.908 101.937 35.982C101.905 36.027 101.854 36.051 101.803 36.051Z" fill="#D39188"/>
<path d="M103.973 34.852C103.401 34.852 102.938 35.315 102.938 35.887C102.938 36.459 103.402 36.922 103.973 36.922C104.544 36.922 103.583 35.887 103.583 35.887C103.583 35.887 104.545 34.852 103.973 34.852Z" fill="#FFB3A1"/>
<path d="M108.31 34.1C108.224 34.1 108.152 34.033 108.146 33.946C108.14 33.856 108.209 33.777 108.299 33.772L112.735 33.484C112.824 33.478 112.903 33.547 112.909 33.637C112.915 33.727 112.846 33.806 112.756 33.811L108.321 34.098C108.317 34.1 108.314 34.1 108.31 34.1Z" fill="#D39188"/>
<path d="M108.175 33.561C108.117 33.561 108.061 33.53 108.031 33.475C107.988 33.395 108.017 33.296 108.097 33.252L110.184 32.116C110.264 32.073 110.363 32.102 110.407 32.182C110.45 32.262 110.421 32.361 110.341 32.405L108.253 33.541C108.228 33.555 108.201 33.561 108.175 33.561Z" fill="#D39188"/>
<path d="M112.746 37.898C112.743 37.898 112.739 37.898 112.735 37.898L108.299 37.611C108.209 37.605 108.14 37.527 108.146 37.437C108.152 37.347 108.226 37.281 108.32 37.284L112.755 37.571C112.845 37.577 112.914 37.655 112.908 37.746C112.904 37.832 112.832 37.898 112.746 37.898Z" fill="#D39188"/>
<path d="M110.262 39.287C110.235 39.287 110.208 39.281 110.183 39.267L108.096 38.131C108.016 38.088 107.987 37.988 108.03 37.908C108.074 37.828 108.173 37.799 108.253 37.842L110.341 38.978C110.421 39.021 110.45 39.121 110.407 39.201C110.377 39.256 110.32 39.287 110.262 39.287Z" fill="#D39188"/>
<path d="M77.2201 19.846C77.1401 19.846 77.0691 19.787 77.0581 19.705C76.9671 19.063 77.1291 18.537 77.5421 18.141C78.9831 16.759 83.0221 17.489 83.1931 17.521C83.2821 17.538 83.341 17.623 83.325 17.712C83.309 17.801 83.2211 17.86 83.1341 17.844C83.0941 17.837 79.089 17.112 77.77 18.379C77.434 18.701 77.3081 19.12 77.3841 19.659C77.3971 19.749 77.334 19.832 77.244 19.845C77.236 19.846 77.2281 19.846 77.2201 19.846Z" fill="#D39188"/>
<path d="M80.459 37.495C78.218 36.904 76.275 35.903 74.839 34.702C72.855 33.044 71.835 31.007 72.324 29.149C73.168 25.947 78.179 24.491 83.516 25.898C88.853 27.305 92.495 31.041 91.651 34.243C90.806 37.446 85.796 38.902 80.459 37.495Z" fill="#7A4438"/>
<path d="M91.651 34.408C91.637 34.408 91.623 34.406 91.609 34.403C91.521 34.38 91.469 34.29 91.492 34.202C92.312 31.092 88.715 27.439 83.474 26.057C78.235 24.675 73.303 26.081 72.483 29.191C72.46 29.279 72.3711 29.331 72.2821 29.308C72.1941 29.285 72.142 29.195 72.165 29.107C73.031 25.823 78.142 24.312 83.557 25.739C88.973 27.167 92.675 31 91.809 34.285C91.79 34.36 91.723 34.408 91.651 34.408Z" fill="#D39188"/>
<path d="M80.4591 37.659C80.4451 37.659 80.4311 37.657 80.4171 37.653C78.2171 37.073 76.2521 36.096 74.7331 34.828C72.6101 33.054 71.6741 30.969 72.1651 29.107C72.1881 29.019 72.2771 28.967 72.3661 28.99C72.4541 29.013 72.5061 29.103 72.4831 29.191C72.0261 30.925 72.9231 32.887 74.9441 34.576C76.4261 35.814 78.3471 36.768 80.5011 37.336C80.5891 37.359 80.6411 37.449 80.6181 37.537C80.5981 37.61 80.5321 37.659 80.4591 37.659Z" fill="#D39188"/>
<path d="M75.249 35.061C75.169 35.061 75.0981 35.002 75.0871 34.92C74.9961 34.278 75.1581 33.752 75.5711 33.356C77.0121 31.974 81.0511 32.704 81.2221 32.736C81.3111 32.753 81.37 32.838 81.354 32.927C81.338 33.016 81.25 33.076 81.163 33.059C81.123 33.051 77.118 32.327 75.799 33.594C75.463 33.916 75.337 34.335 75.413 34.874C75.426 34.964 75.363 35.047 75.273 35.06C75.265 35.06 75.257 35.061 75.249 35.061Z" fill="#D39188"/>
<path d="M94.01 23.81H86.618C86.527 23.81 86.454 23.736 86.454 23.646C86.454 23.555 86.527 23.482 86.618 23.482H94.01C94.101 23.482 94.174 23.555 94.174 23.646C94.174 23.736 94.101 23.81 94.01 23.81Z" fill="#D39188"/>
</svg>
