<svg width="93" height="68" viewBox="0 0 93 68" fill="none" xmlns="http://www.w3.org/2000/svg">
<path d="M31.8237 33.073C33.6937 33.073 35.5076 33.403 37.2356 34.023C46.3726 37.299 53.1126 48.675 53.1126 62.205H10.5347C10.5347 59.612 10.7826 57.098 11.2466 54.705C11.7326 52.201 12.4567 49.83 13.3827 47.639C15.3217 43.053 18.1476 39.257 21.5406 36.691C24.5886 34.385 28.0937 33.073 31.8237 33.073Z" fill="#D8522A"/>
<path d="M12.3147 62.198H73.4317C72.1077 48.533 65.5497 35.177 56.4657 29.328C52.3687 26.685 47.7527 25.202 42.8737 25.202C40.4687 25.202 38.1297 25.563 35.8817 26.246C23.4727 30.008 13.9377 45.404 12.3147 62.198Z" fill="#D8522A"/>
<path d="M70.8877 5.54698C70.8877 5.54698 78.3777 1.36999 79.2567 1.38499C80.8857 1.41199 78.7497 4.99899 78.7497 4.99899L70.8877 5.54698Z" fill="#D8522A"/>
<path d="M90.9776 16.489V40.362C90.9776 46.496 86.6836 51.674 80.9566 53.041C79.9906 53.274 78.9817 53.396 77.9467 53.396C70.7777 53.396 64.9126 47.531 64.9126 40.362V16.489C64.9126 12.645 66.5987 9.17498 69.2697 6.78398C70.1597 5.98598 71.1586 5.30898 72.2426 4.77998C73.9676 3.93198 75.9027 3.45599 77.9467 3.45599C81.5317 3.45599 84.7876 4.92098 87.1496 7.28398C89.5126 9.64598 90.9776 12.905 90.9776 16.489Z" fill="#D8522A"/>
<path d="M90.9767 16.489V55.081C90.9767 59.92 87.0567 63.84 82.2177 63.84H50.4077L65.3897 13L90.9767 16.489Z" fill="#D8522A"/>
<path d="M76.6587 56.221C76.3067 62.092 75.3407 59.579 74.0007 63.84H60.8097C59.8697 59.319 59.4857 61.445 59.8607 55.212C60.7117 41.012 65.1637 21.841 69.8027 22.117C74.4407 22.397 77.5097 42.018 76.6587 56.221Z" fill="#F46831"/>
<path d="M53.1126 62.369C53.0216 62.369 52.9486 62.295 52.9486 62.205C52.9486 49.032 46.4646 37.507 37.1806 34.178C35.4416 33.554 33.6396 33.238 31.8246 33.238C31.7336 33.238 31.6606 33.164 31.6606 33.074C31.6606 32.984 31.7336 32.91 31.8246 32.91C33.6776 32.91 35.5167 33.233 37.2917 33.869C46.7037 37.244 53.2777 48.897 53.2777 62.206C53.2767 62.295 53.2036 62.369 53.1126 62.369Z" fill="#3A2127"/>
<path d="M82.2977 63.7311C79.0057 63.7901 75.3747 64.1321 71.9647 64.5661C69.9307 64.8261 67.9727 65.1181 66.2117 65.4011C64.3947 65.6931 62.7847 65.9791 61.5227 66.2091C60.6457 66.3701 59.9327 66.5011 59.4327 66.5971C57.1557 67.0241 54.9937 67.1721 53.1607 66.7911C50.6277 66.2681 48.7677 64.9541 48.3207 63.0851C48.2547 62.8021 48.2217 62.5171 48.2217 62.2271C48.2217 59.5431 51.0767 56.7341 55.2137 55.3441C56.1927 54.9231 57.5987 54.5191 59.2947 54.1451C60.5727 53.8561 62.0087 53.5801 63.5497 53.3241C64.2957 53.1991 65.0677 53.0781 65.8527 52.9591C66.6967 52.8311 67.5607 52.7091 68.4347 52.5911C78.0027 51.2901 88.7027 50.5081 88.7027 50.5081C88.7027 50.5081 92.4827 63.5471 82.2977 63.7311Z" fill="#D8522A"/>
<path d="M76.6967 47.854C74.3127 44.642 71.1247 42.713 68.5377 42.644C68.5267 42.643 68.5157 42.644 68.5037 42.644C68.4117 42.642 68.3197 42.641 68.2297 42.644C62.6137 42.69 60.4377 47.478 59.2827 50.161C58.7287 51.447 57.1337 55.335 57.1337 55.335L66.1857 53.688V53.687C66.4527 54.13 66.7467 54.569 67.0667 55.001C68.4477 56.862 70.0997 58.293 71.7477 59.181C74.0247 60.407 76.2947 60.597 77.8367 59.452C80.4967 57.478 79.9857 52.286 76.6967 47.854Z" fill="#D8522A"/>
<path d="M48.3227 63.248C48.2477 63.248 48.1807 63.197 48.1627 63.121C48.0947 62.828 48.0597 62.527 48.0597 62.226C48.0597 59.478 50.4197 57.12 55.0747 55.218C56.1387 54.783 57.6257 54.345 59.2607 53.984C60.5217 53.699 61.9567 53.422 63.5237 53.161C64.2707 53.036 64.9517 52.928 65.7377 52.81C65.8277 52.796 65.9107 52.858 65.9247 52.948C65.9377 53.038 65.8767 53.121 65.7867 53.135C65.0027 53.253 64.3227 53.361 63.5777 53.485C62.0167 53.745 60.5877 54.021 59.3317 54.304C57.7367 54.656 56.2307 55.1 55.1987 55.522C50.6797 57.369 48.3877 59.624 48.3877 62.226C48.3877 62.502 48.4197 62.778 48.4817 63.046C48.5027 63.134 48.4477 63.223 48.3587 63.243C48.3467 63.247 48.3347 63.248 48.3227 63.248Z" fill="#3A2127"/>
<path d="M75.3647 60.382C74.2367 60.382 72.9757 60.029 71.6707 59.326C70.4047 58.644 68.5557 57.357 66.9337 55.097C65.8627 53.604 63.5676 49.178 63.4696 48.99C63.4276 48.91 63.4597 48.81 63.5397 48.769C63.6207 48.727 63.7197 48.759 63.7607 48.84C63.7847 48.886 66.1427 53.432 67.1997 54.906C68.7847 57.115 70.5907 58.371 71.8257 59.037C74.1447 60.286 76.2997 60.389 77.7397 59.321C78.9777 58.402 79.5436 56.723 79.3346 54.592C79.1216 52.431 78.1387 50.073 76.5657 47.953C76.5267 47.895 73.0637 42.809 68.3237 42.809C68.2937 42.809 68.2626 42.809 68.2326 42.81C62.5946 42.888 60.4597 47.845 59.4347 50.228C59.0207 51.189 58.0147 53.629 57.6017 54.633C57.5677 54.717 57.4717 54.758 57.3877 54.722C57.3037 54.688 57.2637 54.592 57.2987 54.508C57.7127 53.503 58.7196 51.061 59.1336 50.098C60.1866 47.652 62.3777 42.562 68.2297 42.481C68.2607 42.481 68.2937 42.48 68.3247 42.48C73.2417 42.48 76.7996 47.71 76.8346 47.763C78.4386 49.924 79.4446 52.34 79.6626 54.559C79.8836 56.81 79.2707 58.594 77.9367 59.584C77.2177 60.116 76.3407 60.381 75.3647 60.382Z" fill="#3A2127"/>
<path d="M72.0226 8.66095C72.0226 9.25695 70.7866 9.73695 69.2596 9.73695C69.0716 9.73695 68.8875 9.72895 68.7115 9.71695C67.4475 9.61695 66.4966 9.18495 66.4966 8.66095C66.4966 8.14095 67.4485 7.70495 68.7115 7.60495C68.8875 7.59295 69.0716 7.58496 69.2596 7.58496C70.7866 7.58496 72.0226 8.06895 72.0226 8.66095Z" fill="white"/>
<path d="M69.2596 9.89999C69.0676 9.89999 68.8796 9.89199 68.7006 9.87999C67.5206 9.78699 66.3326 9.37399 66.3326 8.65999C66.3326 7.94699 67.5216 7.53399 68.6996 7.44099C68.8806 7.42799 69.0686 7.41998 69.2606 7.41998C70.9296 7.41998 72.1876 7.95299 72.1876 8.65999C72.1876 9.36699 70.9286 9.89999 69.2596 9.89999ZM69.2596 7.74899C69.0756 7.74899 68.8956 7.75698 68.7226 7.76898C67.4326 7.87098 66.6606 8.30198 66.6606 8.66098C66.6606 9.01998 67.4326 9.45099 68.7246 9.55299C68.8956 9.56499 69.0756 9.57298 69.2596 9.57298C70.7916 9.57298 71.8586 9.09299 71.8586 8.66199C71.8586 8.22999 70.7906 7.74899 69.2596 7.74899Z" fill="#3A2127"/>
<path d="M72.0226 8.66095C72.0226 9.25695 70.7866 9.73695 69.2596 9.73695C69.0716 9.73695 68.8876 9.72895 68.7116 9.71695C68.5076 9.40095 68.3916 9.04095 68.3916 8.66095C68.3916 8.28095 68.5076 7.92095 68.7116 7.60495C68.8876 7.59295 69.0716 7.58496 69.2596 7.58496C70.7866 7.58496 72.0226 8.06895 72.0226 8.66095Z" fill="#3A2127"/>
<path d="M66.4016 10.144C66.3436 10.144 66.2886 10.114 66.2576 10.06C66.2136 9.98101 66.2416 9.88101 66.3206 9.83601L67.2806 9.29901C67.3596 9.25501 67.4596 9.28301 67.5046 9.36201C67.5486 9.44101 67.5207 9.54101 67.4417 9.58601L66.4816 10.123C66.4566 10.138 66.4286 10.144 66.4016 10.144Z" fill="#3A2127"/>
<path d="M80.3676 8.66095C80.3676 9.25695 79.1316 9.73695 77.6046 9.73695C77.4166 9.73695 77.2326 9.72895 77.0566 9.71695C75.7926 9.61695 74.8416 9.18495 74.8416 8.66095C74.8416 8.14095 75.7936 7.70495 77.0566 7.60495C77.2326 7.59295 77.4166 7.58496 77.6046 7.58496C79.1326 7.58496 80.3676 8.06895 80.3676 8.66095Z" fill="white"/>
<path d="M77.6046 9.89999C77.4126 9.89999 77.2247 9.89199 77.0457 9.87999C75.8657 9.78699 74.6776 9.37399 74.6776 8.65999C74.6776 7.94699 75.8666 7.53399 77.0446 7.44099C77.2256 7.42799 77.4137 7.41998 77.6057 7.41998C79.2747 7.41998 80.5327 7.95299 80.5327 8.65999C80.5327 9.36699 79.2736 9.89999 77.6046 9.89999ZM77.6046 7.74899C77.4206 7.74899 77.2406 7.75698 77.0676 7.76898C75.7776 7.87098 75.0056 8.30198 75.0056 8.66098C75.0056 9.01998 75.7776 9.45099 77.0696 9.55299C77.2396 9.56499 77.4206 9.57298 77.6046 9.57298C79.1366 9.57298 80.2036 9.09299 80.2036 8.66199C80.2036 8.22999 79.1366 7.74899 77.6046 7.74899Z" fill="#3A2127"/>
<path d="M80.3676 8.66095C80.3676 9.25695 79.1316 9.73695 77.6046 9.73695C77.4166 9.73695 77.2326 9.72895 77.0566 9.71695C76.8526 9.40095 76.7366 9.04095 76.7366 8.66095C76.7366 8.28095 76.8526 7.92095 77.0566 7.60495C77.2326 7.59295 77.4166 7.58496 77.6046 7.58496C79.1326 7.58496 80.3676 8.06895 80.3676 8.66095Z" fill="#3A2127"/>
<path d="M80.4156 10.144C80.3886 10.144 80.3606 10.137 80.3356 10.123L79.3755 9.58601C79.2965 9.54201 79.2686 9.44201 79.3126 9.36201C79.3566 9.28301 79.4566 9.25501 79.5366 9.29901L80.4966 9.83601C80.5756 9.88001 80.6036 9.98001 80.5596 10.06C80.5286 10.114 80.4726 10.144 80.4156 10.144Z" fill="#3A2127"/>
<path d="M72.8007 13.355C72.7097 13.355 72.6367 13.282 72.6367 13.191V11.853C72.6367 11.762 72.7097 11.689 72.8007 11.689C72.8917 11.689 72.9647 11.763 72.9647 11.853V13.191C72.9647 13.282 72.8917 13.355 72.8007 13.355Z" fill="#3A2127"/>
<path d="M74.0207 10.633C74.0207 11.307 73.4747 11.853 72.8007 11.853C72.1267 11.853 71.5807 11.307 71.5807 10.633C71.5807 9.95899 72.8007 11.093 72.8007 11.093C72.8007 11.093 74.0207 9.96 74.0207 10.633Z" fill="#3A2127"/>
<path d="M90.9766 24.411V28.981C84.4876 28.629 78.9256 27.502 78.9386 26.385C78.9586 25.268 84.5106 24.526 90.9766 24.411Z" fill="#F46831"/>
<path d="M90.9766 40.139V44.702C86.5216 44.055 83.4367 43.122 83.4467 42.195C83.4597 41.272 86.5416 40.552 90.9766 40.139Z" fill="#F46831"/>
<path d="M90.9767 31.287V34.418C86.9327 34.103 83.6797 33.376 83.6897 32.657C83.6987 31.938 86.9457 31.435 90.9767 31.287Z" fill="#F46831"/>
<path d="M90.9766 18.707V20.711C89.0806 20.422 87.7866 20.018 87.7926 19.614C87.7996 19.213 89.0906 18.898 90.9766 18.707Z" fill="#F46831"/>
<path d="M71.8977 6.53201C71.8897 6.53201 71.8827 6.53102 71.8747 6.53002C71.7847 6.51702 71.7227 6.43403 71.7347 6.34403C71.7527 6.21603 72.1427 3.18602 69.6667 2.20702C69.5827 2.17402 69.5407 2.07802 69.5747 1.99402C69.6087 1.90902 69.7036 1.86803 69.7876 1.90203C72.5046 2.97703 72.0647 6.35602 72.0597 6.39002C72.0487 6.47302 71.9787 6.53201 71.8977 6.53201Z" fill="#3A2127"/>
<path d="M71.3587 6.66799C71.3007 6.66799 71.2437 6.63699 71.2147 6.58199L70.0787 4.49499C70.0357 4.41499 70.0647 4.316 70.1447 4.272C70.2247 4.229 70.3247 4.25799 70.3677 4.33799L71.5037 6.425C71.5477 6.505 71.5177 6.60399 71.4377 6.64799C71.4117 6.66099 71.3847 6.66799 71.3587 6.66799Z" fill="#3A2127"/>
<path d="M75.2656 6.53199C75.1846 6.53199 75.1147 6.473 75.1037 6.391C75.0987 6.357 74.6586 2.978 77.3756 1.903C77.4596 1.869 77.5556 1.91099 77.5886 1.99499C77.6216 2.07899 77.5807 2.175 77.4967 2.208C75.0177 3.189 75.4246 6.314 75.4296 6.345C75.4426 6.435 75.3796 6.518 75.2896 6.531C75.2806 6.532 75.2736 6.53199 75.2656 6.53199Z" fill="#3A2127"/>
<path d="M75.8046 6.66798C75.7786 6.66798 75.7516 6.66197 75.7266 6.64797C75.6476 6.60397 75.6177 6.50498 75.6607 6.42498L76.7966 4.33797C76.8396 4.25897 76.9397 4.22898 77.0197 4.27198C77.0997 4.31598 77.1286 4.41497 77.0856 4.49497L75.9497 6.58198C75.9197 6.63698 75.8636 6.66798 75.8046 6.66798Z" fill="#3A2127"/>
<path d="M83.4476 4.682C83.4476 4.682 91.0836 2.603 91.3576 3.807C91.6316 5.011 87.9276 8.13399 87.9276 8.13399L83.4476 4.682Z" fill="#D8522A"/>
<path d="M49.9407 8.37401C49.9337 10.818 47.9496 12.793 45.5086 12.793H45.0846C42.0256 12.793 39.1577 12.914 36.4797 13.154C34.4917 13.335 32.6097 13.578 30.8347 13.89C30.0327 14.031 29.2547 14.183 28.4957 14.353C27.2997 14.616 26.1567 14.915 25.0687 15.247C18.5367 17.231 13.9607 20.422 11.3977 24.798C10.4317 26.447 9.79067 28.215 9.39967 30.025C9.17967 31.021 9.03867 32.032 8.95967 33.044C8.86767 34.233 8.85767 35.426 8.91667 36.596C8.98567 37.959 9.14066 39.293 9.35066 40.568C9.58066 41.964 9.87968 43.292 10.1987 44.504C11.8747 50.858 14.4997 55.543 14.5257 55.589C15.7317 57.721 14.9787 60.429 12.8467 61.631C12.1567 62.022 11.4077 62.206 10.6687 62.206C9.12068 62.206 7.61668 61.394 6.80168 59.952C6.51268 59.44 2.67865 52.537 0.897654 43.666C0.582654 42.096 0.332663 40.463 0.174663 38.794C-0.387337 32.732 0.305677 26.181 3.74568 20.313C5.65168 17.06 8.23068 14.291 11.4697 12.004C12.4427 11.314 13.4737 10.67 14.5677 10.072C18.6417 7.83401 23.5437 6.202 29.2607 5.183C30.4497 4.973 31.6757 4.78501 32.9377 4.62801C36.6797 4.15801 40.7376 3.922 45.0976 3.922H45.5216C47.9726 3.932 49.9507 5.92601 49.9407 8.37401Z" fill="#D8522A"/>
<path d="M74.0387 60.223C73.9897 60.223 73.9417 60.201 73.9087 60.159C73.8527 60.088 73.8657 59.984 73.9377 59.929C74.5317 59.467 74.8657 58.892 74.9297 58.219C75.0877 56.563 73.5897 54.83 73.5747 54.813C73.5147 54.745 73.5216 54.641 73.5896 54.581C73.6576 54.521 73.7617 54.528 73.8217 54.596C73.8877 54.671 75.4287 56.454 75.2567 58.25C75.1837 59.016 74.8077 59.668 74.1397 60.188C74.1097 60.212 74.0737 60.223 74.0387 60.223Z" fill="#3A2127"/>
<path d="M15.8627 17.376C15.1757 17.698 13.4217 15.385 11.4697 12.004C12.4427 11.314 13.4737 10.67 14.5677 10.072C15.9547 13.963 16.5727 17.041 15.8627 17.376Z" fill="#F46831"/>
<path d="M36.4796 13.154C34.4916 13.335 32.6096 13.578 30.8346 13.89C30.0326 10.582 29.4846 7.52598 29.2606 5.18298C30.4496 4.97298 31.6756 4.78499 32.9376 4.62799C34.0516 6.85599 35.2936 9.84899 36.4796 13.154Z" fill="#F46831"/>
<path d="M28.4957 14.354C27.2997 14.617 26.1567 14.916 25.0687 15.248C24.8457 12.751 24.9997 11.111 25.6277 10.914C26.2687 10.713 27.3037 12.057 28.4957 14.354Z" fill="#F46831"/>
<path d="M9.40066 30.026C9.18066 31.022 9.03966 32.033 8.96066 33.045C5.57666 32.956 3.01065 32.516 2.96765 31.882C2.92465 31.208 5.73666 30.499 9.40066 30.026Z" fill="#F46831"/>
<path d="M9.35168 40.569C6.99268 41.574 4.1807 42.6161 1.2887 43.5421C1.1577 43.5851 1.02867 43.6241 0.897675 43.6671C0.582675 42.0971 0.332683 40.464 0.174683 38.795C3.25368 37.826 6.32869 37.067 8.91769 36.597C8.98669 37.96 9.14068 39.294 9.35168 40.569Z" fill="#F46831"/>
<path d="M54.6146 67.173C54.5436 67.173 54.4776 67.127 54.4566 67.055C53.9736 65.403 54.0896 64.061 54.8016 63.064C55.9306 61.483 58.1276 61.362 58.2206 61.358C58.3176 61.351 58.3886 61.424 58.3926 61.514C58.3966 61.604 58.3266 61.682 58.2366 61.686C58.2156 61.687 56.1026 61.805 55.0676 63.256C54.4186 64.166 54.3196 65.413 54.7716 66.962C54.7976 67.049 54.7476 67.14 54.6596 67.166C54.6456 67.171 54.6296 67.173 54.6146 67.173Z" fill="#3A2127"/>
<path d="M85.3916 4.62401C86.2383 4.62401 86.9246 3.58888 86.9246 2.312C86.9246 1.03511 86.2383 0 85.3916 0C84.5449 0 83.8586 1.03511 83.8586 2.312C83.8586 3.58888 84.5449 4.62401 85.3916 4.62401Z" fill="#F1BB51"/>
<path d="M82.6947 2.62799C83.9717 2.62799 85.0067 3.31398 85.0067 4.16098C85.0067 5.00798 83.9717 5.69398 82.6947 5.69398C81.4177 5.69398 80.3827 5.00698 80.3827 4.16098C80.3827 3.31398 81.4177 2.62799 82.6947 2.62799Z" fill="#F1BB51"/>
<path d="M82.9907 6.94299C82.9907 5.66599 83.6777 4.63098 84.5237 4.63098C85.3707 4.63098 86.0568 5.66599 86.0568 6.94299C86.0568 8.21999 85.3697 9.25499 84.5237 9.25499C83.6767 9.25499 82.9907 8.21999 82.9907 6.94299Z" fill="#F1BB51"/>
<path d="M87.2207 6.62703C88.4976 6.62703 89.5327 5.94069 89.5327 5.09404C89.5327 4.24739 88.4976 3.56104 87.2207 3.56104C85.9438 3.56104 84.9087 4.24739 84.9087 5.09404C84.9087 5.94069 85.9438 6.62703 87.2207 6.62703Z" fill="#F1BB51"/>
<path d="M85.9217 4.632C85.9217 5.182 85.4757 5.629 84.9257 5.629C84.3757 5.629 83.9287 5.183 83.9287 4.632C83.9287 4.081 84.3747 3.63501 84.9257 3.63501C85.4757 3.63501 85.9217 4.081 85.9217 4.632Z" fill="#3A2127"/>
<path d="M63.9276 22.693C63.9226 23.44 63.3126 24.04 62.5656 24.035C61.8186 24.029 61.2187 23.42 61.2237 22.673C61.2287 21.926 61.8387 21.326 62.5857 21.331C63.3327 21.337 63.9336 21.947 63.9276 22.693Z" fill="#FCD3C0"/>
<path d="M67.9826 22.723C67.9776 23.47 67.3676 24.07 66.6206 24.065C65.8736 24.059 65.2736 23.45 65.2786 22.703C65.2836 21.956 65.8936 21.356 66.6406 21.361C67.3876 21.367 67.9886 21.976 67.9826 22.723Z" fill="#FCD3C0"/>
<path d="M72.0387 22.7529C72.0337 23.4999 71.4237 24.0999 70.6767 24.0949C69.9297 24.0899 69.3296 23.4799 69.3346 22.7329C69.3396 21.9859 69.9497 21.3859 70.6967 21.3909C71.4437 21.3969 72.0437 22.0059 72.0387 22.7529Z" fill="#FCD3C0"/>
<path d="M76.0937 22.7829C76.0887 23.5299 75.4787 24.1299 74.7317 24.1249C73.9847 24.1199 73.3847 23.5099 73.3897 22.7629C73.3947 22.0159 74.0047 21.4159 74.7517 21.4209C75.4987 21.4269 76.0997 22.0359 76.0937 22.7829Z" fill="#FCD3C0"/>
<path d="M80.1486 22.813C80.1436 23.56 79.5336 24.16 78.7866 24.155C78.0396 24.15 77.4396 23.54 77.4446 22.793C77.4496 22.046 78.0596 21.446 78.8066 21.451C79.5536 21.456 80.1546 22.066 80.1486 22.813Z" fill="#FCD3C0"/>
<path d="M84.2047 22.843C84.1997 23.59 83.5897 24.19 82.8427 24.185C82.0957 24.179 81.4956 23.57 81.5006 22.823C81.5056 22.076 82.1156 21.476 82.8626 21.481C83.6096 21.487 84.2097 22.096 84.2047 22.843Z" fill="#FCD3C0"/>
<path d="M88.2597 22.873C88.2547 23.62 87.6447 24.22 86.8977 24.215C86.1507 24.209 85.5507 23.6 85.5557 22.853C85.5607 22.106 86.1707 21.506 86.9177 21.511C87.6647 21.517 88.2657 22.126 88.2597 22.873Z" fill="#FCD3C0"/>
<path d="M92.3156 22.9029C92.3096 23.6499 91.7006 24.2499 90.9536 24.2449C90.2066 24.2389 89.6066 23.6299 89.6116 22.8829C89.6166 22.1359 90.2266 21.5359 90.9736 21.5409C91.7196 21.5469 92.3206 22.1559 92.3156 22.9029Z" fill="#FCD3C0"/>
<path d="M10.5346 62.369C10.4436 62.369 10.3706 62.295 10.3706 62.205C10.3706 59.652 10.6116 57.118 11.0856 54.674C11.5676 52.192 12.2896 49.804 13.2316 47.575C13.2676 47.491 13.3636 47.453 13.4466 47.487C13.5306 47.523 13.5696 47.619 13.5336 47.702C12.6006 49.91 11.8856 52.276 11.4076 54.736C10.9366 57.159 10.6986 59.672 10.6986 62.204C10.6986 62.295 10.6246 62.369 10.5346 62.369Z" fill="#3A2127"/>
<path d="M72.8007 13.601C71.5167 13.601 70.4727 12.557 70.4727 11.273C70.4727 11.182 70.5457 11.109 70.6367 11.109C70.7277 11.109 70.8007 11.183 70.8007 11.273C70.8007 12.376 71.6977 13.273 72.8007 13.273C73.9037 13.273 74.8007 12.376 74.8007 11.273C74.8007 11.182 74.8737 11.109 74.9647 11.109C75.0557 11.109 75.1287 11.183 75.1287 11.273C75.1287 12.557 74.0847 13.601 72.8007 13.601Z" fill="#3A2127"/>
</svg>
