<svg width="129" height="51" viewBox="0 0 129 51" fill="none" xmlns="http://www.w3.org/2000/svg">
<path d="M8.93915 45.5283C4.78615 45.5283 1.2032 45.4113 0.3172 45.3803C0.1362 45.3743 -0.00581667 45.2213 0.00018333 45.0403C0.00618333 44.8583 0.173149 44.7123 0.340149 44.7233C9.11015 45.0323 22.6342 44.9573 23.9432 43.4783C23.9952 43.4193 23.9902 43.3913 23.9892 43.3783C23.8262 42.3513 21.1142 42.5693 18.9362 42.7453C16.5642 42.9363 15.0842 43.0193 14.5562 42.3643C14.4282 42.2043 14.3012 41.9263 14.4302 41.5063C14.6592 40.7553 15.9192 39.7673 24.1832 39.8513C28.6302 39.8973 33.0432 40.2443 33.0872 40.2473C33.2682 40.2613 33.4032 40.4203 33.3892 40.6013C33.3752 40.7823 33.2222 40.9173 33.0352 40.9033C25.8462 40.3323 15.5152 40.2013 15.0582 41.6983C15.0042 41.8743 15.0512 41.9313 15.0682 41.9533C15.4042 42.3723 17.3342 42.2163 18.8832 42.0913C21.5852 41.8743 24.3791 41.6493 24.6371 43.2763C24.6621 43.4343 24.6482 43.6743 24.4352 43.9143C23.2582 45.2453 15.4081 45.5283 8.93915 45.5283Z" fill="#D22E37"/>
<path d="M119.405 41.4033H76.8252C76.8252 27.8733 83.5672 16.4993 92.7042 13.2233C94.4322 12.6023 96.2462 12.2733 98.1152 12.2733C101.844 12.2733 105.35 13.5843 108.399 15.8903C110.298 17.3263 112.016 19.1433 113.505 21.2723C116.669 25.8033 118.778 31.7273 119.288 38.3043C119.365 39.3233 119.405 40.3583 119.405 41.4033Z" fill="#45282A"/>
<path d="M68.8512 12.0904L62.9882 8.40736C62.9882 8.40736 63.6182 4.98636 64.6622 2.50736C65.3782 0.815363 66.2851 -0.438636 67.3221 0.145364C67.9671 0.512364 68.3862 1.44535 68.6482 2.63735C69.4222 6.15735 68.8512 11.9484 68.8512 12.0904Z" fill="#45282A"/>
<path d="M45.2962 12.0904L51.1592 8.40736C51.1592 8.40736 50.5292 4.98636 49.4852 2.50736C48.7692 0.815363 47.8622 -0.438636 46.8252 0.145364C46.1802 0.512364 45.7612 1.44535 45.4992 2.63735C44.7252 6.15735 45.2962 11.9484 45.2962 12.0904Z" fill="#45282A"/>
<path d="M45.9552 23.2723C45.9552 23.2723 42.5042 15.5203 36.7002 15.7543L39.0522 26.7983H45.9552V23.2723Z" fill="#45282A"/>
<path d="M70.1942 16.9434V40.8154C70.1942 41.0124 70.1872 41.2034 70.1772 41.3974H44.1432C44.1362 41.2034 44.1302 41.0134 44.1302 40.8154V16.9434C44.1302 10.8094 48.4242 5.63142 54.1512 4.26442C55.1172 4.03142 56.1262 3.90942 57.1602 3.90942C64.3292 3.91042 70.1942 9.77442 70.1942 16.9434Z" fill="#45282A"/>
<path d="M117.623 43.0403H56.5061C57.8301 29.3753 64.3881 16.0193 73.4721 10.1703C77.5691 7.52732 82.1851 6.04431 87.0641 6.04431C89.4691 6.04431 91.8081 6.40532 94.0561 7.08832C106.466 10.8503 116 26.2463 117.623 43.0403Z" fill="#45282A"/>
<path d="M61.3742 13.5694C61.3742 11.6274 59.4482 10.0533 57.0732 10.0533C54.6982 10.0533 52.7722 11.6274 52.7722 13.5694C52.7722 15.5114 54.6982 17.0853 57.0732 17.0853C59.4492 17.0853 61.3742 15.5104 61.3742 13.5694Z" fill="#F4E0C7"/>
<path d="M49.2014 42.886C53.3775 38.4234 53.1451 31.4203 48.6825 27.2442C44.2198 23.0682 37.2167 23.3006 33.0406 27.7633C28.8646 32.2259 29.097 39.229 33.5596 43.405C38.0223 47.5811 45.0254 47.3487 49.2014 42.886Z" fill="#EE544C"/>
<path d="M36.0492 38.4454C32.7762 38.4454 30.2582 37.9424 30.1912 37.9284C30.0132 37.8914 29.8992 37.7174 29.9362 37.5394C29.9732 37.3614 30.1472 37.2474 30.3252 37.2844C30.4972 37.3194 47.5472 40.7174 50.1982 29.4554C50.2392 29.2784 50.4172 29.1704 50.5932 29.2114C50.7702 29.2534 50.8792 29.4294 50.8382 29.6064C49.0872 37.0414 41.5162 38.4454 36.0492 38.4454Z" fill="#D22E37"/>
<path d="M41.0871 46.7195C40.9951 46.7195 40.9032 46.6815 40.8382 46.6055C40.7202 46.4675 40.7352 46.2605 40.8722 46.1415C46.2052 41.5435 48.7131 37.1065 48.3271 32.9535C47.8391 27.7115 42.7841 24.7205 42.7331 24.6915C42.5761 24.6005 42.5221 24.3995 42.6131 24.2425C42.7041 24.0855 42.9042 24.0315 43.0622 24.1225C43.2822 24.2495 48.4571 27.3045 48.9801 32.8865C49.3901 37.2655 46.8071 41.8935 41.3011 46.6395C41.2391 46.6925 41.1631 46.7195 41.0871 46.7195Z" fill="#D22E37"/>
<path d="M31.6852 41.4914C31.5202 41.4914 31.3772 41.3664 31.3592 41.1984C29.6802 25.7474 40.4752 23.9604 40.5842 23.9434C40.7642 23.9204 40.9312 24.0404 40.9572 24.2194C40.9842 24.3984 40.8602 24.5654 40.6812 24.5934C40.6552 24.5974 38.0752 25.0094 35.7342 27.2354C32.6322 30.1844 31.3452 34.9884 32.0122 41.1264C32.0322 41.3074 31.9012 41.4694 31.7212 41.4884C31.7092 41.4904 31.6972 41.4914 31.6852 41.4914Z" fill="#D22E37"/>
<path d="M46.1391 40.0524C43.3551 40.0524 40.8742 39.3894 38.7262 38.0654C33.4562 34.8184 32.1111 28.8234 32.0561 28.5704C32.0181 28.3924 32.1311 28.2184 32.3081 28.1794C32.4821 28.1434 32.6601 28.2534 32.6991 28.4314C32.7121 28.4904 34.0471 34.4144 39.0771 37.5094C42.3881 39.5474 46.5511 39.9344 51.4521 38.6624C51.6271 38.6154 51.8071 38.7224 51.8521 38.8984C51.8981 39.0744 51.7922 39.2534 51.6172 39.2984C49.6802 39.8014 47.8521 40.0524 46.1391 40.0524Z" fill="#D22E37"/>
<path d="M37.0522 45.9604C36.9052 45.9604 36.7712 45.8604 36.7342 45.7114C34.5052 36.7944 34.9722 30.6174 38.1212 27.3504C41.2552 24.1004 45.8322 25.0234 46.0242 25.0634C46.2022 25.1014 46.3152 25.2754 46.2782 25.4524C46.2402 25.6294 46.0682 25.7434 45.8892 25.7064C45.8452 25.6964 41.4661 24.8214 38.5901 27.8104C35.6131 30.9044 35.2032 36.8734 37.3722 45.5514C37.4162 45.7274 37.3092 45.9054 37.1332 45.9494C37.1052 45.9564 37.0782 45.9604 37.0522 45.9604Z" fill="#D22E37"/>
<path d="M48.0912 44.2204C47.9192 44.2204 47.7742 44.0864 47.7632 43.9114C46.9482 30.4924 35.1111 26.3724 34.9911 26.3324C34.8191 26.2744 34.7262 26.0884 34.7842 25.9164C34.8422 25.7444 35.0281 25.6504 35.1991 25.7094C35.3231 25.7504 47.5761 30.0004 48.4181 43.8724C48.4291 44.0534 48.2912 44.2094 48.1102 44.2204C48.1042 44.2194 48.0982 44.2204 48.0912 44.2204Z" fill="#D22E37"/>
<path d="M35.4622 45.1844C35.4422 45.1844 35.4212 45.1824 35.4002 45.1784C35.2222 45.1444 35.1052 44.9724 35.1392 44.7944C37.6132 31.7894 49.0492 27.6104 49.1642 27.5704C49.3362 27.5114 49.5232 27.5994 49.5832 27.7714C49.6442 27.9424 49.5542 28.1304 49.3832 28.1904C49.2712 28.2304 38.1862 32.2934 35.7852 44.9184C35.7552 45.0744 35.6172 45.1844 35.4622 45.1844Z" fill="#D22E37"/>
<path d="M41.3951 46.8304C41.2271 46.8304 41.0572 46.8274 40.8882 46.8194C39.0272 46.7414 35.4991 46.1594 32.7881 43.1314C32.0391 42.2944 31.9282 41.2144 32.4692 40.0074C32.9862 38.8534 34.0901 37.6034 35.5121 36.3804C35.2401 35.8124 35.0212 35.2234 34.8702 34.6264C33.9962 31.1824 35.5552 28.3154 39.1492 26.7624C40.0222 26.3844 40.8262 26.1454 41.5572 26.0434C41.3752 25.4674 41.1952 24.9054 41.0162 24.3594C40.9602 24.1864 41.0542 24.0014 41.2272 23.9444C41.4012 23.8894 41.5852 23.9824 41.6412 24.1544C41.6472 24.1724 41.8721 24.8644 42.2231 25.9864C43.1951 25.9624 44.0252 26.2194 44.6982 26.7534C45.6662 27.5204 46.1861 28.7674 46.4461 30.1034C47.6291 29.6994 48.6582 29.4694 49.4092 29.4694C49.4112 29.4694 49.4122 29.4694 49.4142 29.4694C50.1502 29.4704 50.6222 29.6934 50.8172 30.1324C51.3202 31.2664 50.9001 33.1214 49.6631 35.2244C48.7471 36.7814 47.4142 38.3864 45.9512 39.5834C47.0282 44.7004 46.4381 45.2584 46.1811 45.5014C45.3191 46.3164 43.4381 46.8304 41.3951 46.8304ZM35.8212 36.9794C34.5292 38.1034 33.5331 39.2384 33.0691 40.2774C32.6301 41.2574 32.6981 42.0484 33.2771 42.6954C35.8281 45.5434 39.1571 46.0914 40.9151 46.1644C43.2921 46.2634 45.0762 45.6434 45.7292 45.0264C46.1352 44.6424 45.9272 42.7144 45.3702 40.0334C44.2542 40.8434 43.0852 41.3924 41.9842 41.4904C39.9072 41.6714 37.3092 39.6404 35.8212 36.9794ZM36.3351 36.5454C37.6871 39.0324 40.0881 41.0004 41.9261 40.8354C42.9911 40.7404 44.1332 40.1714 45.2222 39.3384C44.7552 37.2094 44.1002 34.6844 43.3722 32.1094C40.9482 33.2964 38.3511 34.8924 36.3351 36.5454ZM43.9701 31.8234C44.1801 32.5594 44.3912 33.3144 44.5962 34.0724C45.1132 35.9774 45.5031 37.5574 45.7951 38.8704C47.0871 37.7544 48.2652 36.3034 49.0962 34.8924C50.2082 33.0034 50.6262 31.3244 50.2162 30.4014C50.1112 30.1644 49.6671 30.1284 49.4131 30.1284C49.4111 30.1284 49.4101 30.1284 49.4081 30.1284C48.6961 30.1284 47.7022 30.3574 46.5522 30.7584C46.8902 33.2784 46.4361 35.8874 46.4051 36.0624C46.3731 36.2404 46.2022 36.3604 46.0242 36.3274C45.8462 36.2954 45.7271 36.1244 45.7591 35.9454C45.7661 35.9044 46.2031 33.3934 45.9181 30.9904C45.2991 31.2284 44.6441 31.5084 43.9701 31.8234ZM41.7561 26.6804C41.0581 26.7634 40.2742 26.9914 39.4092 27.3664C34.9372 29.3004 35.0441 32.6444 35.5061 34.4664C35.6331 34.9664 35.8122 35.4634 36.0342 35.9454C38.1082 34.2604 40.7331 32.6574 43.1891 31.4674C42.7261 29.8504 42.2391 28.2264 41.7561 26.6804ZM42.4272 26.6454C42.8082 27.8734 43.2892 29.4594 43.7872 31.1834C44.4902 30.8594 45.1731 30.5714 45.8191 30.3284C45.5941 29.0874 45.1392 27.9424 44.2892 27.2684C43.7852 26.8694 43.1622 26.6624 42.4272 26.6454Z" fill="#D22E37"/>
<path d="M64.1422 45.0943C60.8502 45.1533 57.2191 45.4953 53.8091 45.9293C51.7751 46.1893 49.8172 46.4813 48.0562 46.7643C46.2392 47.0563 44.6292 47.3423 43.3682 47.5723C42.4912 47.7333 41.7782 47.8643 41.2782 47.9603C39.0012 48.3873 36.8392 48.5353 35.0062 48.1543C32.4732 47.6323 30.6132 46.3173 30.1662 44.4483C30.1002 44.1653 30.0672 43.8803 30.0672 43.5913C30.0672 40.9073 32.9221 38.0983 37.0591 36.7083C38.0381 36.2873 39.4442 35.8833 41.1402 35.5093C42.4182 35.2203 43.8541 34.9443 45.3951 34.6883C46.1411 34.5633 46.9132 34.4423 47.6982 34.3233C48.5422 34.1953 49.4062 34.0733 50.2802 33.9553C59.8482 32.6543 70.5482 31.8723 70.5482 31.8723C70.5482 31.8723 74.3272 44.9103 64.1422 45.0943Z" fill="#45282A"/>
<path d="M35.4601 48.2953C35.4101 48.2953 35.3601 48.2723 35.3271 48.2283C34.9431 47.7053 34.8381 47.1643 35.0141 46.6213C35.6311 44.7233 39.5361 43.4573 39.7021 43.4053C39.7901 43.3783 39.8812 43.4253 39.9092 43.5113C39.9372 43.5983 39.8892 43.6903 39.8022 43.7183C39.7632 43.7303 35.8911 44.9843 35.3261 46.7233C35.1821 47.1663 35.2692 47.5953 35.5912 48.0343C35.6452 48.1073 35.6291 48.2103 35.5561 48.2643C35.5281 48.2853 35.4941 48.2953 35.4601 48.2953Z" fill="#AA888E"/>
<path d="M57.0751 12.7134C56.9841 12.7134 56.9111 12.6394 56.9111 12.5494V11.4604C56.9111 11.3694 56.9841 11.2964 57.0751 11.2964C57.1661 11.2964 57.2391 11.3694 57.2391 11.4604V12.5494C57.2391 12.6404 57.1661 12.7134 57.0751 12.7134Z" fill="#3A2127"/>
<path d="M56.0822 10.4663C56.0822 11.0143 56.5272 11.4593 57.0752 11.4593C57.6242 11.4593 58.0682 11.0143 58.0682 10.4663C58.0682 9.91734 57.0752 10.8403 57.0752 10.8403C57.0752 10.8403 56.0822 9.91834 56.0822 10.4663Z" fill="#3A2127"/>
<path d="M54.996 6.05037C54.91 6.05037 54.838 5.98337 54.832 5.89637L54.545 1.46137C54.539 1.37137 54.6081 1.29237 54.6981 1.28637C54.7851 1.27537 54.8661 1.34937 54.8721 1.43937L55.16 5.87436C55.166 5.96436 55.0971 6.04337 55.0071 6.04937C55.0031 6.05037 54.999 6.05037 54.996 6.05037Z" fill="#AA888E"/>
<path d="M54.4561 6.18638C54.3981 6.18638 54.3412 6.15538 54.3122 6.10038L53.1751 4.01337C53.1321 3.93337 53.1611 3.83437 53.2411 3.79037C53.3201 3.74737 53.4211 3.77637 53.4641 3.85637L54.6012 5.94337C54.6442 6.02337 54.6151 6.12237 54.5351 6.16637C54.5101 6.17937 54.4831 6.18638 54.4561 6.18638Z" fill="#AA888E"/>
<path d="M59.1631 6.05034C59.1591 6.05034 59.1562 6.05034 59.1522 6.05034C59.0612 6.04434 58.9931 5.96634 58.9991 5.87534L59.2862 1.44034C59.2922 1.35034 59.3701 1.27634 59.4601 1.28734C59.5511 1.29334 59.6192 1.37135 59.6132 1.46235L59.3262 5.89734C59.3212 5.98434 59.2491 6.05034 59.1631 6.05034Z" fill="#AA888E"/>
<path d="M59.7022 6.18638C59.6752 6.18638 59.6482 6.18037 59.6232 6.16637C59.5432 6.12237 59.5142 6.02337 59.5572 5.94337L60.6932 3.85637C60.7362 3.77637 60.8372 3.74737 60.9162 3.79037C60.9952 3.83437 61.0252 3.93337 60.9822 4.01337L59.8462 6.10038C59.8172 6.15538 59.7612 6.18638 59.7022 6.18638Z" fill="#AA888E"/>
<path d="M38.1712 28.1123C36.7902 29.9733 35.1382 31.4043 33.4902 32.2923C31.2132 33.5183 28.9432 33.7083 27.4012 32.5633C24.7422 30.5893 25.2532 25.3973 28.5422 20.9653C31.8312 16.5333 36.6542 14.5403 39.3132 16.5143C41.9712 18.4873 41.4612 23.6803 38.1712 28.1123Z" fill="#45282A"/>
<path d="M33.8242 32.1473C33.8112 32.1473 33.7982 32.1453 33.7852 32.1423C33.1552 31.9883 32.7262 31.6423 32.5122 31.1123C31.7652 29.2613 33.9432 25.7823 34.0362 25.6353C34.0852 25.5583 34.1872 25.5373 34.2632 25.5843C34.3402 25.6323 34.3622 25.7343 34.3142 25.8113C34.2922 25.8463 32.1322 29.2943 32.8172 30.9893C32.9912 31.4213 33.3342 31.6943 33.8622 31.8233C33.9502 31.8443 34.0042 31.9333 33.9832 32.0213C33.9652 32.0973 33.8982 32.1473 33.8242 32.1473Z" fill="#AA888E"/>
<path d="M46.4342 27.6064C46.2892 27.6064 46.1552 27.5084 46.1172 27.3614C46.0712 27.1854 46.1762 27.0064 46.3512 26.9604C46.3692 26.9554 47.9672 26.5204 48.8282 25.3354C47.7752 24.2094 47.3602 21.8174 47.5682 20.7434C47.6732 20.2024 47.9322 20.0564 48.1302 20.0294C48.5332 19.9724 48.9222 20.3634 49.3882 21.2924C50.1062 22.7224 50.2182 24.0044 49.7222 25.1014C49.7092 25.1304 49.6962 25.1584 49.6822 25.1864C50.0202 25.3654 50.4972 25.3794 51.1772 24.7794C52.4002 23.7014 52.5962 21.5174 52.7842 19.4054C52.9932 17.0684 53.2092 14.6524 54.8062 13.4624C55.8142 12.7114 57.2412 12.5364 59.1682 12.9304C59.3462 12.9664 59.4602 13.1404 59.4242 13.3184C59.3882 13.4964 59.2142 13.6104 59.0362 13.5744C57.3042 13.2204 56.0482 13.3564 55.1982 13.9894C53.8372 15.0034 53.6352 17.2704 53.4382 19.4634C53.2382 21.7034 53.0312 24.0204 51.6112 25.2724C50.6172 26.1484 49.8322 26.0184 49.3422 25.7464C48.3432 27.1034 46.6022 27.5744 46.5182 27.5964C46.4892 27.6024 46.4612 27.6064 46.4342 27.6064ZM48.2422 20.7254C48.0182 21.2634 48.2712 23.5824 49.1672 24.7254C49.5242 23.8384 49.4012 22.7824 48.8002 21.5864C48.5192 21.0244 48.3342 20.8074 48.2422 20.7254Z" fill="#D22E37"/>
<path d="M58.1212 14.0613C58.1212 13.2723 57.6492 12.6333 57.0662 12.6333C56.4842 12.6333 56.0112 13.2723 56.0112 14.0613H58.1212Z" fill="#F4E0C7"/>
<path d="M58.1211 14.1414C58.0301 14.1414 57.9571 14.0684 57.9571 13.9774C57.9571 13.2804 57.5571 12.7134 57.0671 12.7134C56.5761 12.7134 56.1771 13.2804 56.1771 13.9774C56.1771 14.0684 56.1041 14.1414 56.0131 14.1414C55.9221 14.1414 55.8491 14.0684 55.8491 13.9774C55.8491 13.0994 56.3961 12.3854 57.0681 12.3854C57.7401 12.3854 58.2871 13.0994 58.2871 13.9774C58.2851 14.0684 58.2121 14.1414 58.1211 14.1414Z" fill="#3A2127"/>
<path d="M76.8261 41.5684C76.7351 41.5684 76.6621 41.4944 76.6621 41.4044C76.6621 28.0954 83.2361 16.4434 92.6481 13.0674C94.4231 12.4314 96.2621 12.1084 98.1151 12.1084C98.2061 12.1084 98.2791 12.1824 98.2791 12.2724C98.2791 12.3624 98.2061 12.4364 98.1151 12.4364C96.3001 12.4364 94.4981 12.7524 92.7591 13.3764C83.4751 16.7054 76.9911 28.2314 76.9911 41.4034C76.9901 41.4944 76.9171 41.5684 76.8261 41.5684Z" fill="#AA888E"/>
<path d="M70.1932 42.0114C70.1612 42.0114 70.1282 42.0024 70.1002 41.9824C70.0252 41.9314 70.0072 41.8284 70.0582 41.7534C72.0712 38.8364 70.2772 20.9504 70.2592 20.7704C70.2502 20.6804 70.3152 20.5994 70.4062 20.5904C70.4942 20.5804 70.5772 20.6464 70.5862 20.7374C70.6622 21.4784 72.4102 38.9244 70.3292 41.9404C70.2972 41.9864 70.2452 42.0114 70.1932 42.0114Z" fill="#AA888E"/>
<path d="M117.678 29.8963C117.644 29.7833 123.196 31.0343 126.436 36.8803C127.655 39.0793 128.494 41.9373 128.494 45.6343H65.1353C65.1353 45.6343 74.7412 14.6103 119.1 36.6753C119.1 36.6753 118.928 34.0503 117.678 29.8963Z" fill="#F4E0C7"/>
<path d="M54.8652 8.58728C54.8652 9.42228 54.0572 10.1253 52.9202 10.3973C52.7792 10.4333 52.6342 10.4593 52.4832 10.4793C52.2962 10.4993 52.0991 10.5153 51.8951 10.5153C51.5341 10.5153 51.1892 10.4723 50.8702 10.3933C49.7362 10.1273 48.9282 9.41727 48.9282 8.58627C48.9282 7.76127 49.7331 7.05227 50.8661 6.78227C51.1881 6.70327 51.5332 6.66028 51.8942 6.66028C52.0982 6.66028 52.2952 6.67327 52.4822 6.69627C52.6332 6.71627 52.7782 6.74227 52.9192 6.77827C54.0572 7.05027 54.8652 7.75928 54.8652 8.58728Z" fill="white"/>
<path d="M53.8082 8.58728C53.8082 9.35328 53.4531 10.0193 52.9211 10.3973C52.7801 10.4333 52.6352 10.4593 52.4842 10.4793C52.2972 10.4993 52.1002 10.5153 51.8962 10.5153C51.5352 10.5153 51.1902 10.4723 50.8712 10.3933C50.3392 10.0153 49.9842 9.34827 49.9842 8.58627C49.9842 7.83027 50.3362 7.16327 50.8682 6.78227C51.1902 6.70327 51.5352 6.66028 51.8962 6.66028C52.1002 6.66028 52.2972 6.67327 52.4842 6.69627C52.6352 6.71627 52.7801 6.74227 52.9211 6.77827C53.4531 7.15827 53.8082 7.82828 53.8082 8.58728Z" fill="#3A2127"/>
<path d="M51.8962 10.6793C50.1692 10.6793 48.7642 9.74132 48.7642 8.58832C48.7642 7.43532 50.1692 6.49731 51.8962 6.49731C52.0842 6.49731 52.2832 6.50932 52.5032 6.53432C53.9682 6.72732 55.0282 7.59132 55.0282 8.58832C55.0282 9.60132 53.9912 10.4453 52.5062 10.6413C52.2852 10.6673 52.0862 10.6793 51.8962 10.6793ZM51.8962 6.82632C50.3502 6.82632 49.0922 7.61732 49.0922 8.58832C49.0922 9.56032 50.3502 10.3503 51.8962 10.3503C52.0732 10.3503 52.2602 10.3383 52.4662 10.3153C53.7592 10.1453 54.7002 9.41832 54.7002 8.58832C54.7002 7.75832 53.7592 7.03132 52.4632 6.86032C52.2592 6.83732 52.0722 6.82632 51.8962 6.82632Z" fill="#AA888E"/>
<path d="M65.2183 8.58728C65.2183 9.42228 64.4103 10.1253 63.2733 10.3973C63.1323 10.4333 62.9872 10.4593 62.8362 10.4793C62.6492 10.4993 62.4522 10.5153 62.2482 10.5153C61.8872 10.5153 61.5422 10.4723 61.2232 10.3933C60.0892 10.1273 59.2812 9.41727 59.2812 8.58627C59.2812 7.76127 60.0862 7.05227 61.2192 6.78227C61.5412 6.70327 61.8863 6.66028 62.2473 6.66028C62.4513 6.66028 62.6482 6.67327 62.8352 6.69627C62.9862 6.71627 63.1312 6.74227 63.2722 6.77827C64.4102 7.05027 65.2183 7.75928 65.2183 8.58728Z" fill="white"/>
<path d="M64.1602 8.58728C64.1602 9.35328 63.8052 10.0193 63.2732 10.3973C63.1322 10.4333 62.9872 10.4593 62.8362 10.4793C62.6492 10.4993 62.4522 10.5153 62.2482 10.5153C61.8872 10.5153 61.5421 10.4723 61.2231 10.3933C60.6911 10.0153 60.3362 9.34827 60.3362 8.58627C60.3362 7.83027 60.6882 7.16327 61.2202 6.78227C61.5422 6.70327 61.8872 6.66028 62.2482 6.66028C62.4522 6.66028 62.6492 6.67327 62.8362 6.69627C62.9872 6.71627 63.1322 6.74227 63.2732 6.77827C63.8052 7.15827 64.1602 7.82828 64.1602 8.58728Z" fill="#3A2127"/>
<path d="M62.2492 10.6793C60.5222 10.6793 59.1162 9.74132 59.1162 8.58832C59.1162 7.43532 60.5212 6.49731 62.2492 6.49731C62.4372 6.49731 62.6352 6.50932 62.8552 6.53432C64.3202 6.72732 65.3812 7.59132 65.3812 8.58832C65.3812 9.60132 64.3442 10.4453 62.8582 10.6413C62.6372 10.6673 62.4382 10.6793 62.2492 10.6793ZM62.2492 6.82632C60.7032 6.82632 59.4453 7.61732 59.4453 8.58832C59.4453 9.56032 60.7032 10.3503 62.2492 10.3503C62.4262 10.3503 62.6122 10.3383 62.8192 10.3153C64.1122 10.1453 65.0532 9.41832 65.0532 8.58832C65.0532 7.75832 64.1122 7.03132 62.8162 6.86032C62.6112 6.83732 62.4252 6.82632 62.2492 6.82632Z" fill="#AA888E"/>
<path d="M122.522 38.6863C122.495 38.6863 122.468 38.6793 122.442 38.6663C117.609 35.9923 114.123 34.5333 114.088 34.5193C114.004 34.4843 113.965 34.3883 113.999 34.3043C114.034 34.2203 114.13 34.1823 114.214 34.2153C114.249 34.2293 117.75 35.6943 122.6 38.3783C122.679 38.4223 122.708 38.5223 122.664 38.6013C122.636 38.6563 122.579 38.6863 122.522 38.6863Z" fill="#3A2127"/>
<path d="M101.861 47.8914C94.4702 47.8914 92.2932 47.1524 91.5102 46.0524C90.8402 45.1124 91.2732 43.9594 91.7742 42.6254L91.8592 42.4004C93.6732 37.5444 93.7962 33.9044 92.2262 31.5824C90.6012 29.1784 87.6682 29.0804 87.6392 29.0804C87.4582 29.0754 87.3142 28.9254 87.3182 28.7434C87.3222 28.5644 87.4682 28.4224 87.6472 28.4224C87.6502 28.4224 87.6522 28.4224 87.6552 28.4224C87.7892 28.4254 90.9572 28.5324 92.7712 31.2134C94.4672 33.7224 94.3682 37.5634 92.4752 42.6294L92.3902 42.8554C91.9372 44.0614 91.5792 45.0144 92.0462 45.6694C92.9672 46.9614 97.1012 47.4124 105.868 47.1724C106.052 47.1744 106.2 47.3104 106.206 47.4924C106.211 47.6734 106.068 47.8244 105.886 47.8304C104.396 47.8714 103.06 47.8914 101.861 47.8914Z" fill="#D22E37"/>
</svg>
