<svg width="96" height="62" viewBox="0 0 96 62" fill="none" xmlns="http://www.w3.org/2000/svg">
<path d="M88.5217 36.765C88.5217 38.332 88.4167 39.804 88.2027 41.181C87.6937 44.542 86.5766 47.354 84.9496 49.704C84.7456 50 84.5326 50.286 84.3086 50.568C77.6946 58.979 63.9777 60.921 48.1257 60.921C46.2137 60.921 44.3406 60.921 42.5036 60.908C36.7536 60.872 31.3987 60.727 26.6907 60.064C25.4617 59.897 24.2756 59.689 23.1426 59.44C13.7526 57.387 7.72368 52.478 7.72368 40.755C7.72368 40.413 7.72667 40.072 7.73967 39.733C7.81167 37.236 8.15368 34.742 8.74468 32.294C3.59668 25.217 10.3976 23.998 11.8136 23.827C17.1266 13.001 27.1737 4.094 39.2607 1.091C41.7707 0.467003 44.3697 0.0949983 47.0337 0.0169983C47.3947 0.00699829 47.7597 0 48.1247 0C49.4057 0 50.6747 0.0560107 51.9227 0.161011C52.6557 0.223011 53.3847 0.306007 54.1077 0.404007C57.5047 0.861007 60.7676 1.70501 63.8326 2.88501C70.4066 5.41501 76.0906 9.482 80.3426 14.591C81.4206 15.882 82.4057 17.242 83.2897 18.662C84.4987 20.6 85.5207 22.654 86.3287 24.793C87.7497 28.545 88.5217 32.573 88.5217 36.765Z" fill="#F46831"/>
<path d="M13.9007 10.877L22.1197 7.97302C22.1197 7.97302 21.2366 5.27602 19.7726 3.32102C18.7696 1.98702 17.4966 0.998025 16.0436 1.45802C15.1386 1.74702 14.5527 2.48302 14.1847 3.42302C13.0997 6.19902 13.9007 10.766 13.9007 10.877Z" fill="#F4E0C7"/>
<path d="M13.9007 11.0421C13.8097 11.0421 13.7367 10.9681 13.7367 10.8781C13.7357 10.8701 13.7296 10.8261 13.7196 10.7571C13.2776 7.63707 13.3886 5.01207 14.0326 3.36307C14.4586 2.27507 15.1186 1.58107 15.9946 1.30107C16.0826 1.27407 16.1736 1.32106 16.2016 1.40706C16.2296 1.49406 16.1816 1.58606 16.0946 1.61406C15.3166 1.86206 14.7256 2.49107 14.3386 3.48207C13.7146 5.07907 13.6096 7.64607 14.0446 10.7101C14.0586 10.8071 14.0656 10.8651 14.0656 10.8771C14.0646 10.9681 13.9917 11.0421 13.9007 11.0421Z" fill="#3A2127"/>
<path d="M37.0816 10.877L28.4166 7.97302C28.4166 7.97302 29.3476 5.27602 30.8906 3.32102C31.9486 1.98702 33.2896 0.998025 34.8216 1.45802C35.7756 1.74702 36.3936 2.48302 36.7816 3.42302C37.9256 6.19902 37.0816 10.766 37.0816 10.877Z" fill="#F4E0C7"/>
<path d="M44.4266 17.765C44.4266 21.898 41.9556 25.456 38.4146 27.047V40.412C38.4146 47.581 32.5496 53.446 25.3806 53.446C24.3456 53.446 23.3366 53.324 22.3706 53.091C16.6436 51.724 12.3496 46.546 12.3496 40.412V27.047C8.80761 25.457 6.34058 21.899 6.34058 17.765C6.34058 17.45 6.35361 17.137 6.38361 16.832C6.48861 15.666 6.79063 14.555 7.25763 13.537C8.78563 10.202 12.0606 7.83999 15.9116 7.61299C16.0006 7.51799 16.0886 7.42298 16.1776 7.33398C18.5396 4.97098 21.7956 3.50598 25.3806 3.50598C27.4246 3.50598 29.3596 3.98299 31.0846 4.82999C32.1686 5.35899 33.1676 6.03598 34.0576 6.83398C34.3366 7.07998 34.5996 7.34299 34.8526 7.61299C38.7096 7.83699 41.9916 10.209 43.5136 13.553C43.9836 14.578 44.2856 15.692 44.3846 16.868V16.871C44.4136 17.164 44.4266 17.463 44.4266 17.765Z" fill="#F46831"/>
<path d="M6.62256 15.382C6.62256 15.382 13.0875 12.181 15.2615 12.648C16.8605 12.991 6.34155 18.973 6.34155 18.973C6.34155 18.973 6.50056 15.841 6.62256 15.382Z" fill="#D8522A"/>
<path d="M44.1687 15.382C44.1687 15.382 37.7037 12.181 35.5297 12.648C33.9307 12.991 44.4497 18.973 44.4497 18.973C44.4497 18.973 44.2907 15.841 44.1687 15.382Z" fill="#D8522A"/>
<path d="M7.25757 21.987C7.25757 21.987 11.9665 17.329 14.3575 17.329C15.9115 17.329 8.86652 24.421 8.86652 24.421L7.25757 21.987Z" fill="#D8522A"/>
<path d="M43.5765 21.987C43.5765 21.987 38.8676 17.329 36.4766 17.329C34.9226 17.329 41.9675 24.421 41.9675 24.421L43.5765 21.987Z" fill="#D8522A"/>
<path d="M12.3516 27.211C12.3286 27.211 12.3056 27.206 12.2846 27.197C8.57461 25.531 6.17761 21.829 6.17761 17.766C6.17761 12.299 10.4496 7.76795 15.9026 7.44995C15.9936 7.44195 16.0716 7.51396 16.0766 7.60396C16.0816 7.69396 16.0126 7.77295 15.9226 7.77795C10.6426 8.08595 6.50659 12.474 6.50659 17.766C6.50659 21.7 8.82762 25.284 12.4196 26.897C12.5026 26.934 12.5396 27.031 12.5016 27.114C12.4736 27.175 12.4136 27.211 12.3516 27.211Z" fill="#3A2127"/>
<path d="M38.4155 27.211C38.3525 27.211 38.2936 27.175 38.2656 27.114C38.2286 27.031 38.2655 26.934 38.3475 26.897C41.9395 25.284 44.2606 21.7 44.2606 17.766C44.2606 12.472 40.1246 8.08503 34.8436 7.77803L34.7786 7.77403L34.7335 7.72603C34.4595 7.43603 34.2035 7.18404 33.9485 6.95604C33.0615 6.16104 32.0746 5.49504 31.0126 4.97704C29.2476 4.11004 27.3526 3.67003 25.3806 3.67003C25.2896 3.67003 25.2166 3.59603 25.2166 3.50603C25.2166 3.41503 25.2896 3.34204 25.3806 3.34204C27.4026 3.34204 29.3466 3.79303 31.1566 4.68303C32.2446 5.21403 33.2576 5.89704 34.1666 6.71204C34.4146 6.93404 34.6636 7.17704 34.9266 7.45404C40.3496 7.80304 44.5875 12.32 44.5875 17.766C44.5875 21.829 42.1905 25.531 38.4805 27.197C38.4605 27.206 38.4375 27.211 38.4155 27.211Z" fill="#3A2127"/>
<path d="M23.8636 7.99103C23.8636 8.58703 22.6276 9.06703 21.1006 9.06703C20.9126 9.06703 20.7287 9.05903 20.5527 9.04703C19.2887 8.94703 18.3376 8.51503 18.3376 7.99103C18.3376 7.47103 19.2897 7.03503 20.5527 6.93503C20.7287 6.92303 20.9126 6.91504 21.1006 6.91504C22.6286 6.91504 23.8636 7.39903 23.8636 7.99103Z" fill="white"/>
<path d="M21.1006 9.23001C20.9086 9.23001 20.7216 9.22201 20.5416 9.21001C19.3616 9.11701 18.1736 8.70301 18.1736 7.99001C18.1736 7.27701 19.3616 6.864 20.5406 6.771C20.7226 6.758 20.9096 6.75 21.1016 6.75C22.7706 6.75 24.0286 7.28301 24.0286 7.99001C24.0286 8.69701 22.7696 9.23001 21.1006 9.23001ZM21.1006 7.07901C20.9166 7.07901 20.7356 7.087 20.5636 7.099C19.2736 7.201 18.5016 7.633 18.5016 7.991C18.5016 8.349 19.2736 8.78101 20.5656 8.88301C20.7366 8.89401 20.9166 8.90201 21.1006 8.90201C22.6316 8.90201 23.6996 8.422 23.6996 7.991C23.6996 7.559 22.6326 7.07901 21.1006 7.07901Z" fill="#3A2127"/>
<path d="M23.8636 7.99103C23.8636 8.58703 22.6276 9.06703 21.1006 9.06703C20.9126 9.06703 20.7287 9.05903 20.5527 9.04703C20.3487 8.73103 20.2327 8.37103 20.2327 7.99103C20.2327 7.61103 20.3487 7.25103 20.5527 6.93503C20.7287 6.92303 20.9126 6.91504 21.1006 6.91504C22.6286 6.91504 23.8636 7.39903 23.8636 7.99103Z" fill="#3A2127"/>
<path d="M32.2096 7.99103C32.2096 8.58703 30.9736 9.06703 29.4466 9.06703C29.2586 9.06703 29.0746 9.05903 28.8986 9.04703C27.6346 8.94703 26.6836 8.51503 26.6836 7.99103C26.6836 7.47103 27.6356 7.03503 28.8986 6.93503C29.0746 6.92303 29.2586 6.91504 29.4466 6.91504C30.9736 6.91504 32.2096 7.39903 32.2096 7.99103Z" fill="white"/>
<path d="M29.4465 9.23001C29.2545 9.23001 29.0676 9.22201 28.8876 9.21001C27.7076 9.11601 26.5186 8.70301 26.5186 7.99001C26.5186 7.27701 27.7076 6.864 28.8856 6.771C29.0666 6.758 29.2546 6.75 29.4456 6.75C31.1146 6.75 32.3735 7.28301 32.3735 7.99001C32.3735 8.69701 31.1155 9.23001 29.4465 9.23001ZM29.4465 7.07901C29.2625 7.07901 29.0825 7.087 28.9095 7.099C27.6195 7.201 26.8475 7.633 26.8475 7.991C26.8475 8.349 27.6196 8.78101 28.9116 8.88301C29.0816 8.89401 29.2625 8.90201 29.4465 8.90201C30.9785 8.90201 32.0455 8.422 32.0455 7.991C32.0445 7.559 30.9775 7.07901 29.4465 7.07901Z" fill="#3A2127"/>
<path d="M32.2096 7.99103C32.2096 8.58703 30.9736 9.06703 29.4466 9.06703C29.2586 9.06703 29.0746 9.05903 28.8986 9.04703C28.6946 8.73103 28.5786 8.37103 28.5786 7.99103C28.5786 7.61103 28.6946 7.25103 28.8986 6.93503C29.0746 6.92303 29.2586 6.91504 29.4466 6.91504C30.9736 6.91504 32.2096 7.39903 32.2096 7.99103Z" fill="#3A2127"/>
<path d="M17.4996 15.175C17.4996 11.801 20.9806 9.06604 25.2736 9.06604C29.5666 9.06604 33.0476 11.801 33.0476 15.175C33.0476 18.549 29.5666 21.284 25.2736 21.284C20.9796 21.284 17.4996 18.549 17.4996 15.175Z" fill="#F4E0C7"/>
<path d="M26.2506 9.84701C26.2506 10.387 25.8126 10.824 25.2736 10.824C24.7336 10.824 24.2966 10.386 24.2966 9.84701C24.2966 9.30701 25.2736 10.215 25.2736 10.215C25.2736 10.215 26.2506 9.30701 26.2506 9.84701Z" fill="#3A2127"/>
<path d="M24.3965 13.208C24.3615 13.208 24.3265 13.197 24.2965 13.174C24.2245 13.119 24.2105 13.016 24.2655 12.944L25.1085 11.841V10.825C25.1085 10.734 25.1815 10.661 25.2725 10.661C25.3635 10.661 25.4365 10.734 25.4365 10.825V11.952L24.5265 13.144C24.4955 13.186 24.4465 13.208 24.3965 13.208Z" fill="#3A2127"/>
<path d="M26.0855 13.208C26.0345 13.208 25.9835 13.184 25.9515 13.139L25.1394 11.992C25.0874 11.918 25.1044 11.815 25.1784 11.763C25.2524 11.711 25.3544 11.728 25.4074 11.802L26.2195 12.949C26.2715 13.023 26.2545 13.126 26.1805 13.178C26.1515 13.198 26.1185 13.208 26.0855 13.208Z" fill="#3A2127"/>
<path d="M27.3576 5.82403C27.3546 5.82403 27.3506 5.82403 27.3466 5.82403C27.2566 5.81803 27.1876 5.74003 27.1936 5.64903L27.4806 1.21403C27.4866 1.12403 27.5616 1.05403 27.6546 1.06103C27.7456 1.06703 27.8136 1.14503 27.8076 1.23603L27.5206 5.67103C27.5156 5.75703 27.4436 5.82403 27.3576 5.82403Z" fill="#3A2127"/>
<path d="M27.8976 5.95907C27.8706 5.95907 27.8436 5.95308 27.8186 5.93908C27.7386 5.89508 27.7097 5.79607 27.7527 5.71607L28.8886 3.62907C28.9326 3.54907 29.0317 3.52007 29.1117 3.56307C29.1917 3.60707 29.2206 3.70608 29.1776 3.78608L28.0417 5.87307C28.0117 5.92807 27.9556 5.95907 27.8976 5.95907Z" fill="#3A2127"/>
<path d="M23.1906 5.82395C23.1046 5.82395 23.0326 5.75694 23.0266 5.66994L22.7396 1.23494C22.7336 1.14494 22.8026 1.06594 22.8926 1.05994C22.9806 1.05194 23.0606 1.12294 23.0676 1.21294L23.3546 5.64795C23.3606 5.73795 23.2916 5.81694 23.2016 5.82294C23.1976 5.82394 23.1936 5.82395 23.1906 5.82395Z" fill="#3A2127"/>
<path d="M22.6507 5.95895C22.5927 5.95895 22.5357 5.92795 22.5067 5.87295L21.3707 3.78596C21.3277 3.70596 21.3567 3.60695 21.4367 3.56295C21.5167 3.51995 21.6157 3.54895 21.6597 3.62895L22.7957 5.71595C22.8387 5.79595 22.8097 5.89496 22.7297 5.93896C22.7047 5.95296 22.6777 5.95895 22.6507 5.95895Z" fill="#3A2127"/>
<path d="M23.1856 58.602H1.79957C0.717567 58.602 -0.0964432 57.588 0.164557 56.538C0.623557 54.697 1.68156 53.1039 3.10956 51.9649C4.80456 50.6119 7.02156 49.8989 9.37256 50.1699L23.1856 51.7629V58.602Z" fill="#D8522A"/>
<path d="M0.164619 56.702C0.151619 56.702 0.138641 56.7 0.124641 56.697C0.0366406 56.675 -0.0164155 56.586 0.00458446 56.498C0.459584 54.674 1.5256 53.019 3.0066 51.837C4.8176 50.391 7.08363 49.741 9.39063 50.007C9.48063 50.018 9.54561 50.099 9.53461 50.189C9.52461 50.279 9.44161 50.342 9.35261 50.333C7.13761 50.077 4.95462 50.702 3.21162 52.093C1.78662 53.23 0.761615 54.822 0.323615 56.577C0.305615 56.652 0.238619 56.702 0.164619 56.702Z" fill="#3A2127"/>
<path d="M4.51361 58.766C4.42261 58.766 4.34961 58.692 4.34961 58.602C4.34961 57.045 5.0486 55.594 6.2666 54.622C7.3326 53.771 8.66558 53.39 10.0226 53.546C10.1126 53.557 10.1776 53.638 10.1666 53.728C10.1556 53.818 10.0726 53.88 9.98462 53.872C8.71762 53.726 7.46962 54.083 6.47162 54.879C5.33262 55.788 4.67859 57.145 4.67859 58.602C4.67759 58.693 4.60361 58.766 4.51361 58.766Z" fill="#3A2127"/>
<path d="M7.72363 40.753C7.72363 52.478 13.7526 57.386 23.1426 59.438C24.2776 59.688 25.4626 59.895 26.6906 60.063C27.2656 57.714 27.4046 55.123 27.0156 52.453C25.7166 43.501 18.9916 37.069 11.9956 38.087C10.4496 38.312 9.0186 38.883 7.7406 39.732C7.7276 40.071 7.72363 40.414 7.72363 40.753Z" fill="#F4E0C7"/>
<path d="M64.8686 21.481C60.9256 22.289 57.3286 24.422 57.3286 24.422C62.4076 8.98698 56.7276 2.69499 51.9236 0.161987C52.6566 0.223987 53.3856 0.306984 54.1086 0.404984C57.5056 0.861984 60.7686 1.70599 63.8336 2.88599C70.4516 11.129 64.8686 21.481 64.8686 21.481Z" fill="#D8522A"/>
<path d="M36.8206 60.9289H15.4346C14.3526 60.9289 13.5376 59.9149 13.7996 58.8659C14.2586 57.0249 15.3166 55.4319 16.7446 54.2929C18.4396 52.9399 20.6566 52.2269 23.0076 52.4979L36.8206 54.091V60.9289Z" fill="#D8522A"/>
<path d="M13.7996 59.03C13.7866 59.03 13.7736 59.028 13.7596 59.025C13.6716 59.003 13.6186 58.914 13.6396 58.826C14.0946 57.002 15.1606 55.346 16.6416 54.165C18.4526 52.719 20.7176 52.07 23.0256 52.335C23.1156 52.346 23.1806 52.427 23.1696 52.517C23.1596 52.607 23.0746 52.669 22.9876 52.661C20.7696 52.405 18.5886 53.03 16.8466 54.421C15.4216 55.558 14.3966 57.15 13.9586 58.905C13.9406 58.98 13.8736 59.03 13.7996 59.03Z" fill="#3A2127"/>
<path d="M18.1476 61.093C18.0566 61.093 17.9836 61.019 17.9836 60.929C17.9836 59.372 18.6817 57.922 19.9007 56.95C20.9667 56.099 22.2987 55.719 23.6567 55.873C23.7467 55.884 23.8117 55.965 23.8007 56.055C23.7897 56.145 23.7097 56.207 23.6187 56.199C22.3497 56.052 21.1027 56.41 20.1057 57.206C18.9667 58.115 18.3127 59.472 18.3127 60.929C18.3127 61.02 18.2386 61.093 18.1476 61.093Z" fill="#3A2127"/>
<path d="M41.4466 55.777C41.3556 55.777 41.2826 55.704 41.2826 55.613C41.2826 42.966 46.8606 31.304 55.8406 25.177C59.9866 22.347 64.6976 20.851 69.4656 20.851C69.5566 20.851 69.6296 20.925 69.6296 21.015C69.6296 21.106 69.5566 21.179 69.4656 21.179C64.7636 21.179 60.1166 22.655 56.0256 25.448C47.1336 31.514 41.6106 43.072 41.6106 55.612C41.6106 55.704 41.5376 55.777 41.4466 55.777Z" fill="#3A2127"/>
<path d="M79.2696 60.868L73.3686 60.884L67.7376 60.9L64.3076 60.91L56.0056 60.936L50.1476 60.952L29.6686 61.011C29.6686 61.011 29.6916 47.609 38.5696 40.036C43.3796 35.929 50.7886 33.531 62.1986 35.903C66.3716 36.77 71.0766 38.275 76.3856 40.565C79.6716 41.984 83.1896 43.703 86.9556 45.76C86.9556 45.76 89.2456 41.416 88.1586 31.806C88.1556 31.773 88.4476 31.951 88.9536 32.335C101.027 41.519 94.4386 60.825 79.2696 60.868Z" fill="#D8522A"/>
<path d="M10.3446 33.859C10.3186 33.859 10.2926 33.853 10.2676 33.84C10.1956 33.802 8.4896 32.867 7.2386 30.078C7.2016 29.995 7.23863 29.898 7.32063 29.861C7.40263 29.823 7.50061 29.86 7.53761 29.943C8.73961 32.621 10.4056 33.541 10.4216 33.55C10.5016 33.593 10.5316 33.692 10.4886 33.772C10.4596 33.827 10.4026 33.859 10.3446 33.859Z" fill="#3A2127"/>
<path d="M50.4986 12.469C48.3526 5.26998 42.0876 2.15597 39.2616 1.09097C41.7716 0.466973 44.3706 0.0949678 47.0346 0.0169678C56.3566 4.02497 52.9356 20.657 50.4986 12.469Z" fill="#D8522A"/>
<path d="M50.1466 60.953L29.6676 61.012C29.6676 61.012 29.6906 47.61 38.5686 40.037C42.6956 43.438 49.8546 50.877 50.1466 60.953Z" fill="#F4E0C7"/>
<path d="M64.3076 60.911L56.0056 60.9369C56.7746 57.3159 57.7896 49.3229 55.4566 41.8879C52.3616 32.0319 58.4106 37.219 60.7926 43.12C64.5006 52.312 64.7736 57.573 64.3076 60.911Z" fill="#F46831"/>
<path d="M73.3686 60.884L67.7376 60.9001C70.6976 49.5581 65.3856 40.7761 62.1986 35.9041C66.3716 36.7711 71.0766 38.2761 76.3856 40.5661C79.5386 48.4191 76.7036 56.225 73.3686 60.884Z" fill="#F46831"/>
<path d="M90.4106 47.686C90.3856 47.686 90.3596 47.68 90.3356 47.668L80.6446 42.696C80.5206 42.638 67.7496 36.62 60.5456 35.755C60.4556 35.744 60.3916 35.663 60.4026 35.572C60.4136 35.482 60.4976 35.416 60.5846 35.429C67.8416 36.3 80.6616 42.34 80.7896 42.401L90.4856 47.375C90.5666 47.417 90.5986 47.516 90.5566 47.596C90.5276 47.653 90.4696 47.686 90.4106 47.686Z" fill="#3A2127"/>
<path d="M86.3296 24.793C78.9076 33.473 58.1296 32.629 71.1966 28.036C80.9476 24.609 81.1357 18.183 80.3437 14.592C81.4217 15.883 82.4066 17.243 83.2906 18.663C84.5006 20.601 85.5216 22.654 86.3296 24.793Z" fill="#D8522A"/>
</svg>
