<svg width="234" height="88" viewBox="0 0 234 88" fill="none" xmlns="http://www.w3.org/2000/svg">
<path d="M82.7033 61.094C79.3793 60.173 78.1953 53.979 80.0573 47.26C81.9193 40.541 86.1233 35.84 89.4473 36.761C92.7713 37.682 93.9553 43.876 92.0933 50.595C90.2303 57.315 86.0263 62.016 82.7033 61.094Z" fill="#8D9E36"/>
<path d="M82.7033 61.2589C82.6883 61.2589 82.6743 61.2569 82.6593 61.2529C82.5723 61.2289 82.5203 61.1379 82.5443 61.0509L89.2873 36.7179C89.3113 36.6309 89.4033 36.5789 89.4893 36.6039C89.5763 36.6279 89.6283 36.7189 89.6043 36.8059L82.8613 61.1389C82.8413 61.2109 82.7753 61.2589 82.7033 61.2589Z" fill="#3A2127"/>
<path d="M95.4553 50.7839C94.8073 50.7839 94.2783 50.2539 94.2783 49.6069V38.7089C94.2783 38.0609 94.8083 37.5319 95.4553 37.5319C96.1033 37.5319 96.6323 38.0619 96.6323 38.7089V49.6069C96.6323 50.2539 96.1023 50.7839 95.4553 50.7839Z" fill="#F0AF55"/>
<path d="M230.622 64.3259C230.563 64.3489 230.247 64.4609 229.718 64.6349C228.516 65.0189 226.202 65.6959 223.246 66.2379C220.713 66.7009 217.703 67.0689 214.516 67.0689C214.345 67.0689 214.174 67.0689 214.003 67.0659H213.973C201.521 66.9019 192.713 61.2539 188.5 50.7299C184.81 41.5009 180.819 38.1919 178.121 37.0459C175.851 36.0799 174.142 36.5499 174.126 36.5529C171.859 37.4759 169.27 36.3819 168.35 34.1149C167.427 31.8449 168.521 29.2559 170.791 28.3359C171.287 28.1319 175.828 26.4299 181.594 28.8849C187.771 31.5099 192.863 37.7529 196.737 47.4349C197.407 49.1109 198.232 50.5859 199.224 51.8639C202.431 56.0329 207.349 58.1129 214.114 58.1949C214.249 58.1979 214.39 58.1979 214.525 58.1979C218.918 58.1979 222.923 57.3369 225.298 56.6929C225.479 56.6439 225.653 56.5939 225.814 56.5479C226.901 56.2359 227.539 56.0059 227.559 55.9989C229.856 55.1509 232.405 56.3309 233.253 58.6309C234.098 60.9289 232.922 63.4789 230.622 64.3259Z" fill="#F46831"/>
<path d="M88.0123 46.8979L95.7263 83.3859H111.958L116.514 46.2909L88.0123 46.8979Z" fill="#3A2127"/>
<path d="M178.389 84.9259H126.557C120.587 84.9259 115.524 80.8619 113.996 75.3649C113.953 75.2139 113.914 75.0589 113.878 74.9049C113.576 73.6599 113.461 72.3459 113.553 70.9949C113.619 70.0489 113.783 69.1289 114.046 68.2549C115.653 62.7709 120.834 58.8619 126.771 58.8619H178.39C178.586 58.8629 178.586 84.9259 178.389 84.9259Z" fill="#F4E0C7"/>
<path d="M188.264 83.3979C181.893 83.3979 176.006 81.9029 171.216 79.3669C170.128 78.7919 169.097 78.1609 168.128 77.4809C167.445 77.0049 166.797 76.5049 166.18 75.9799C165.293 75.2279 164.475 74.4289 163.742 73.5879C163.161 72.9279 162.628 72.2439 162.152 71.5379C162.017 71.3379 161.886 71.1399 161.761 70.9369C161.318 70.2309 160.927 69.5009 160.591 68.7549L159.829 68.7449L151.251 68.6399L147.834 68.5969L131.627 68.3999C131.643 68.2289 131.66 68.0609 131.683 67.8909C131.732 67.4209 131.795 66.9509 131.87 66.4849C132.708 61.0409 134.837 55.7019 137.666 50.9249C139.148 48.4249 140.82 46.0789 142.597 43.9529L143.32 43.1089C144.907 41.2919 146.569 39.6529 148.248 38.2329H148.251C149.46 37.2109 150.676 36.3049 151.878 35.5289C152.111 35.3779 152.345 35.2329 152.581 35.0889C153.616 34.4649 154.677 33.9129 155.771 33.4429C157.256 32.7989 158.79 32.2999 160.364 31.9579C162.023 31.5929 163.728 31.4059 165.47 31.4059C166.331 31.4059 167.182 31.4519 168.023 31.5439C168.765 31.6229 169.498 31.7379 170.224 31.8829C170.98 32.0369 171.726 32.2249 172.462 32.4479C182.059 35.3589 186.938 42.5539 188.134 55.8439C188.201 56.3379 188.264 83.3979 188.264 83.3979Z" fill="#F4E0C7"/>
<path d="M173.122 77.4489C164.333 75.0469 157.559 69.6289 155.154 62.9169C154.533 61.1889 154.204 59.3749 154.204 57.5059C154.204 55.7879 154.483 54.1119 155.009 52.5089C160.594 50.2979 167.984 53.8529 172.1 60.9789C175.435 66.7539 175.662 73.2199 173.122 77.4489Z" fill="#F46831"/>
<path d="M186.382 86.1909H166.875C165.793 86.1909 164.979 85.1779 165.24 84.1269C165.699 82.2859 166.757 80.6929 168.185 79.5539C169.88 78.2009 172.097 77.4879 174.448 77.7589L188.261 79.3519V84.3109C188.261 85.3489 187.42 86.1909 186.382 86.1909Z" fill="#F4E0C7"/>
<path d="M169.589 86.3549C169.498 86.3549 169.425 86.2809 169.425 86.1909C169.425 84.6339 170.124 83.1829 171.342 82.2109C172.408 81.3599 173.741 80.9789 175.098 81.1349C175.188 81.1459 175.253 81.2269 175.242 81.3169C175.232 81.4069 175.15 81.4699 175.06 81.4609C173.79 81.3139 172.544 81.6719 171.547 82.4679C170.407 83.3769 169.754 84.7349 169.754 86.1909C169.753 86.2819 169.679 86.3549 169.589 86.3549Z" fill="#3A2127"/>
<path d="M165.241 84.2909C165.228 84.2909 165.214 84.2889 165.201 84.2859C165.113 84.2639 165.059 84.1749 165.081 84.0869C165.536 82.2629 166.602 80.6069 168.083 79.4259C169.895 77.9799 172.162 77.331 174.467 77.596C174.557 77.607 174.622 77.6879 174.611 77.7779C174.601 77.8679 174.52 77.9319 174.429 77.9219C172.211 77.6649 170.03 78.2919 168.287 79.6819C166.862 80.8189 165.837 82.4109 165.399 84.1659C165.381 84.2419 165.314 84.2909 165.241 84.2909Z" fill="#3A2127"/>
<path d="M176.506 78.3729C176.497 78.3729 176.487 78.3719 176.477 78.3699C165.972 76.5259 157.742 70.6259 154.998 62.9729C154.362 61.2019 154.039 59.3619 154.039 57.5059C154.039 53.8709 155.301 50.2799 157.69 47.1229C159.13 45.2189 160.953 43.4889 163.109 41.9819C163.184 41.9309 163.286 41.9479 163.338 42.0229C163.39 42.0969 163.372 42.1999 163.298 42.2519C161.171 43.7389 159.372 45.4449 157.953 47.3219C155.608 50.4219 154.369 53.9429 154.369 57.5069C154.369 59.3249 154.685 61.1269 155.309 62.8629C158.013 70.4059 166.146 76.2239 176.535 78.0479C176.624 78.0639 176.684 78.1489 176.668 78.2379C176.654 78.3169 176.584 78.3729 176.506 78.3729Z" fill="#3A2127"/>
<path d="M176.507 78.3719C176.497 78.3719 176.488 78.3709 176.478 78.3689C175.317 78.1649 174.173 77.9079 173.079 77.6069C172.992 77.5829 172.94 77.4919 172.964 77.4049C172.988 77.3169 173.078 77.2669 173.166 77.2899C174.251 77.5889 175.384 77.8429 176.535 78.0459C176.624 78.0619 176.684 78.1469 176.668 78.2359C176.654 78.3159 176.585 78.3719 176.507 78.3719Z" fill="#3A2127"/>
<path d="M155.009 52.6719C154.992 52.6719 154.974 52.6689 154.958 52.6639C154.872 52.6349 154.825 52.5429 154.853 52.4559C155.469 50.5929 156.423 48.7979 157.69 47.1219C159.13 45.2179 160.953 43.4879 163.108 41.9809C163.183 41.9299 163.285 41.9469 163.337 42.0219C163.389 42.0959 163.371 42.1989 163.297 42.2509C161.17 43.7379 159.371 45.4439 157.952 47.3209C156.707 48.9679 155.769 50.7309 155.164 52.5599C155.142 52.6289 155.078 52.6719 155.009 52.6719Z" fill="#3A2127"/>
<path d="M119.44 61.559L117.755 68.275C117.755 68.275 114.308 68.736 111.627 68.512C109.797 68.356 108.323 67.882 108.557 66.715C108.706 65.988 109.463 65.301 110.515 64.682C113.622 62.855 119.305 61.603 119.44 61.559Z" fill="#F46831"/>
<path d="M116.807 84.952L113.514 78.861C113.514 78.861 110.06 79.267 107.518 80.147C105.783 80.751 104.473 81.575 104.987 82.647C105.311 83.315 106.215 83.793 107.387 84.132C110.849 85.136 116.665 84.943 116.807 84.952Z" fill="#F4E0C7"/>
<path d="M132.093 84.9259C132.093 84.9259 131.679 84.946 130.973 84.972C128.821 85.051 123.945 85.199 119.723 85.087C117.174 85.021 114.857 84.857 113.523 84.528C111.23 83.963 111.548 79.314 112.337 75.132C113.014 71.518 114.042 68.252 114.042 68.252L114.045 68.255L120.488 74.208L123.07 76.593L131.149 84.054L132.093 84.9259Z" fill="#F4E0C7"/>
<path d="M127.597 75.4559C127.567 75.4559 127.538 75.4478 127.51 75.4308L125.638 74.2668H124.527C124.436 74.2668 124.363 74.1928 124.363 74.1028C124.363 74.0118 124.437 73.9388 124.527 73.9388H125.731L127.682 75.1519C127.759 75.1999 127.783 75.3009 127.735 75.3779C127.706 75.4279 127.652 75.4559 127.597 75.4559Z" fill="#3A2127"/>
<path d="M123.473 75.1589C124.056 75.1589 124.529 74.6859 124.529 74.1029C124.529 73.5199 124.056 73.0469 123.473 73.0469C122.89 73.0469 123.871 74.1029 123.871 74.1029C123.871 74.1029 122.89 75.1589 123.473 75.1589Z" fill="#3A2127"/>
<path d="M131.222 82.9778C131.222 83.3458 131.199 83.7038 131.15 84.0558C131.111 84.3548 131.055 84.6438 130.982 84.9268C130.982 84.9428 130.975 84.9569 130.972 84.9729C128.82 85.0519 123.944 85.1998 119.722 85.0878C119.538 84.4238 119.439 83.7149 119.439 82.9789C119.439 82.9199 119.439 82.8609 119.442 82.8049C119.501 80.0019 120.98 77.6168 123.069 76.5948C123.766 76.2568 124.528 76.0688 125.329 76.0688C128.584 76.0688 131.222 79.1638 131.222 82.9778Z" fill="#7A4438"/>
<path d="M135.542 58.8629V58.9189C135.542 64.0939 126.142 71.7519 120.488 74.2099C120.018 74.4139 119.571 74.5809 119.161 74.7089C117.311 75.2839 115.576 75.4779 113.996 75.3659C113.421 75.3299 112.869 75.2509 112.337 75.1329C113.014 71.5189 114.042 68.2529 114.042 68.2529L114.045 68.2559C115.652 62.7719 120.833 58.8629 126.77 58.8629H135.542Z" fill="#F46831"/>
<path d="M100.001 48.4889C99.8293 48.4889 99.6853 48.3559 99.6733 48.1819C99.1613 40.2729 97.3733 27.6219 94.7543 27.3409C93.9323 27.2599 92.1603 28.4729 89.5493 37.6209C89.5003 37.7949 89.3183 37.8949 89.1433 37.8469C88.9683 37.7969 88.8673 37.6149 88.9173 37.4409C91.0683 29.9029 92.9483 26.4909 94.8233 26.6879C98.8533 27.1199 100.189 45.9889 100.328 48.1399C100.34 48.3209 100.202 48.4769 100.021 48.4889C100.015 48.4879 100.008 48.4889 100.001 48.4889Z" fill="#3A2127"/>
<path d="M114.589 76.6369C114.503 76.6369 114.431 76.5699 114.425 76.4829C114.419 76.3929 114.488 76.3139 114.578 76.3079L119.014 76.0209C119.103 76.0129 119.183 76.0839 119.188 76.1739C119.194 76.2639 119.125 76.3429 119.035 76.3489L114.6 76.6369C114.596 76.6369 114.592 76.6369 114.589 76.6369Z" fill="#3A2127"/>
<path d="M117.072 78.0259C117.014 78.0259 116.957 77.9949 116.928 77.9399C116.885 77.8599 116.914 77.7609 116.994 77.7169L119.081 76.5809C119.161 76.5379 119.261 76.5669 119.304 76.6469C119.348 76.7259 119.318 76.8259 119.238 76.8699L117.151 78.0069C117.126 78.0189 117.099 78.0259 117.072 78.0259Z" fill="#3A2127"/>
<path d="M119.024 72.1819C119.021 72.1819 119.017 72.1819 119.013 72.1819L114.577 71.8949C114.486 71.8889 114.418 71.8109 114.424 71.7209C114.43 71.6309 114.508 71.5579 114.599 71.5679L119.034 71.8559C119.125 71.8619 119.193 71.9399 119.187 72.0309C119.183 72.1159 119.11 72.1819 119.024 72.1819Z" fill="#3A2127"/>
<path d="M119.159 71.6429C119.133 71.6429 119.106 71.6369 119.081 71.6229L116.994 70.4869C116.915 70.4429 116.885 70.3439 116.928 70.2639C116.971 70.1849 117.071 70.1549 117.151 70.1979L119.238 71.3339C119.318 71.3779 119.347 71.4769 119.304 71.5569C119.274 71.6119 119.218 71.6429 119.159 71.6429Z" fill="#3A2127"/>
<path d="M164.534 59.9659C165.912 64.1609 173.213 65.9919 177.408 64.6139C181.603 63.2359 179.009 58.7649 177.632 54.5699C176.254 50.3749 173.553 44.6709 169.358 46.0479C165.164 47.4249 163.157 55.7709 164.534 59.9659Z" fill="#7A4438"/>
<path d="M123.655 69.1819C123.655 69.5429 123.612 69.8879 123.533 70.2069C123.467 70.4899 123.375 70.7489 123.26 70.9859L123.257 70.9889C122.905 71.6949 122.35 72.1489 121.726 72.1489C121.108 72.1489 120.553 71.6959 120.202 70.9929C120.084 70.7599 119.992 70.4969 119.923 70.2109C119.844 69.8889 119.801 69.5439 119.801 69.1829C119.801 68.9789 119.814 68.7819 119.837 68.5949C119.857 68.4439 119.883 68.2989 119.919 68.1579C119.988 67.8719 120.083 67.6059 120.202 67.3689C120.554 66.6659 121.106 66.2129 121.726 66.2129C122.35 66.2129 122.902 66.6659 123.254 67.3729C123.372 67.6099 123.468 67.8719 123.537 68.1579C123.573 68.2989 123.6 68.4439 123.619 68.5949C123.639 68.7809 123.655 68.9779 123.655 69.1819Z" fill="white"/>
<path d="M123.655 69.1818C123.655 69.5428 123.612 69.8878 123.533 70.2068C123.467 70.4898 123.375 70.7488 123.26 70.9858L123.257 70.9888C122.833 71.2748 122.304 71.4458 121.726 71.4458C121.154 71.4458 120.625 71.2748 120.202 70.9918C120.084 70.7588 119.992 70.4958 119.923 70.2098C119.844 69.8878 119.801 69.5428 119.801 69.1818C119.801 68.9778 119.814 68.7808 119.837 68.5938C119.857 68.4428 119.883 68.2978 119.919 68.1568C119.988 67.8708 120.083 67.6048 120.202 67.3678C120.626 67.0818 121.155 66.9148 121.726 66.9148C122.301 66.9148 122.83 67.0858 123.254 67.3718C123.372 67.6088 123.468 67.8708 123.537 68.1568C123.573 68.2978 123.6 68.4428 123.619 68.5938C123.639 68.7808 123.655 68.9778 123.655 69.1818Z" fill="#3A2127"/>
<path d="M121.727 72.3118C120.574 72.3118 119.636 70.9069 119.636 69.1799C119.636 68.9909 119.648 68.7918 119.673 68.5728C119.866 67.1078 120.73 66.0479 121.727 66.0479C122.74 66.0479 123.584 67.0849 123.78 68.5699C123.805 68.7909 123.817 68.9889 123.817 69.1799C123.817 70.9059 122.879 72.3118 121.727 72.3118ZM121.727 66.3759C120.897 66.3759 120.17 67.3169 119.999 68.6129C119.976 68.8169 119.965 69.0039 119.965 69.1799C119.965 70.7259 120.756 71.9839 121.727 71.9839C122.698 71.9839 123.489 70.7259 123.489 69.1799C123.489 69.0019 123.478 68.8148 123.454 68.6098C123.283 67.3158 122.557 66.3759 121.727 66.3759Z" fill="#3A2127"/>
<path d="M123.655 79.038C123.655 79.399 123.612 79.744 123.533 80.063C123.467 80.346 123.375 80.605 123.26 80.842L123.257 80.845C122.905 81.551 122.35 82.005 121.726 82.005C121.108 82.005 120.553 81.552 120.202 80.849C120.084 80.616 119.992 80.353 119.923 80.067C119.844 79.745 119.801 79.4 119.801 79.039C119.801 78.835 119.814 78.638 119.837 78.451C119.857 78.3 119.883 78.155 119.919 78.014C119.988 77.728 120.083 77.462 120.202 77.226C120.554 76.523 121.106 76.069 121.726 76.069C122.35 76.069 122.902 76.523 123.254 77.229C123.372 77.466 123.468 77.728 123.537 78.014C123.573 78.155 123.6 78.3 123.619 78.451C123.639 78.638 123.655 78.835 123.655 79.038Z" fill="white"/>
<path d="M123.655 79.038C123.655 79.399 123.612 79.744 123.533 80.063C123.467 80.346 123.375 80.6049 123.26 80.8419L123.257 80.845C122.833 81.131 122.304 81.302 121.726 81.302C121.154 81.302 120.625 81.131 120.202 80.849C120.084 80.616 119.992 80.353 119.923 80.067C119.844 79.745 119.801 79.4 119.801 79.039C119.801 78.835 119.814 78.638 119.837 78.451C119.857 78.3 119.883 78.155 119.919 78.014C119.988 77.728 120.083 77.462 120.202 77.226C120.626 76.94 121.155 76.7729 121.726 76.7729C122.301 76.7729 122.83 76.9439 123.254 77.2299C123.372 77.4669 123.468 77.729 123.537 78.015C123.573 78.156 123.6 78.301 123.619 78.452C123.639 78.638 123.655 78.835 123.655 79.038Z" fill="#3A2127"/>
<path d="M121.727 82.168C120.574 82.168 119.636 80.763 119.636 79.035C119.636 78.846 119.648 78.647 119.673 78.428C119.866 76.963 120.73 75.903 121.727 75.903C122.74 75.903 123.584 76.94 123.78 78.425C123.805 78.646 123.817 78.844 123.817 79.035C123.817 80.763 122.879 82.168 121.727 82.168ZM121.727 76.232C120.897 76.232 120.17 77.173 119.999 78.469C119.976 78.673 119.965 78.8599 119.965 79.0359C119.965 80.5819 120.756 81.84 121.727 81.84C122.698 81.84 123.489 80.5819 123.489 79.0359C123.489 78.8579 123.478 78.671 123.454 78.466C123.283 77.173 122.557 76.232 121.727 76.232Z" fill="#F4E0C7"/>
<path d="M125.686 74.2679C125.63 74.2679 125.576 74.2399 125.545 74.1879C125.498 74.1099 125.523 74.0089 125.601 73.9619L127.512 72.8109C127.589 72.7649 127.69 72.7889 127.737 72.8669C127.784 72.9449 127.759 73.0459 127.681 73.0929L125.77 74.2429C125.744 74.2599 125.715 74.2679 125.686 74.2679Z" fill="#3A2127"/>
<path d="M157.712 87.1828C154.433 86.8888 150.786 86.8399 147.349 86.9059C145.299 86.9459 143.321 87.0268 141.54 87.1198C139.702 87.2158 138.071 87.3278 136.792 87.4218C135.903 87.4878 135.18 87.5418 134.673 87.5838C132.363 87.7648 130.198 87.6798 128.416 87.1048C125.953 86.3138 124.245 84.8089 124.001 82.9019C123.966 82.6139 123.964 82.3258 123.995 82.0388C124.282 79.3698 128.607 76.6918 131.683 75.9438C132.716 75.6928 134.143 75.3798 135.869 75.1888C137.171 75.0378 138.628 74.9178 140.187 74.8278C140.942 74.7838 141.722 74.7449 142.516 74.7119C143.369 74.6749 144.241 74.6468 145.123 74.6228C154.775 74.3538 165.498 74.7229 165.498 74.7229C165.498 74.7229 167.859 88.0908 157.712 87.1828Z" fill="#F4E0C7"/>
<path d="M158.642 87.3899C158.336 87.3899 158.022 87.3759 157.698 87.3469C157.608 87.3389 157.541 87.2589 157.549 87.1689C157.557 87.0789 157.636 87.0159 157.727 87.0199C160.133 87.2349 162.012 86.6229 163.32 85.2009C166.535 81.7069 165.31 74.4199 165.297 74.3469C165.281 74.2569 165.341 74.1729 165.431 74.1569C165.523 74.1389 165.605 74.2009 165.621 74.2899C165.674 74.5949 166.886 81.8109 163.562 85.4229C162.359 86.7299 160.707 87.3899 158.642 87.3899Z" fill="#3A2127"/>
<path d="M124.001 83.0649C123.919 83.0649 123.848 83.0039 123.838 82.9209C123.801 82.6219 123.799 82.3189 123.831 82.0199C124.128 79.2589 128.582 76.5269 131.644 75.7829C132.598 75.5519 134.071 75.2209 135.85 75.0239C137.136 74.8749 138.592 74.7539 140.177 74.6619C140.932 74.6179 141.714 74.5789 142.508 74.5449C143.362 74.5079 144.235 74.4799 145.117 74.4559C145.21 74.4479 145.283 74.5249 145.286 74.6159C145.288 74.7069 145.217 74.7819 145.126 74.7849C144.245 74.8089 143.374 74.8369 142.522 74.8739C141.729 74.9069 140.95 74.9459 140.196 74.9899C138.617 75.0809 137.167 75.2019 135.887 75.3499C134.125 75.5449 132.666 75.8719 131.721 76.1019C128.753 76.8229 124.439 79.4359 124.157 82.0549C124.127 82.3279 124.129 82.6059 124.163 82.8799C124.174 82.9699 124.11 83.0519 124.02 83.0629C124.015 83.0649 124.008 83.0649 124.001 83.0649Z" fill="#3A2127"/>
<path d="M128.87 87.2949C128.813 87.2949 128.758 87.2659 128.728 87.2129C128.402 86.6519 128.355 86.1029 128.589 85.5819C129.406 83.7609 133.424 82.9209 133.594 82.8859C133.683 82.8679 133.769 82.9249 133.788 83.0139C133.806 83.1029 133.749 83.1899 133.66 83.2079C133.62 83.2159 129.637 84.0479 128.889 85.7159C128.698 86.1409 128.739 86.5769 129.012 87.0479C129.058 87.1259 129.031 87.2269 128.952 87.2729C128.926 87.2879 128.898 87.2949 128.87 87.2949Z" fill="#3A2127"/>
<path d="M148.703 18.1519C146.921 22.9779 137.567 23.9689 127.81 20.3659C118.053 16.7629 111.589 9.9299 113.371 5.1039C115.153 0.277895 124.507 -0.713109 134.264 2.88989C144.021 6.49289 150.485 13.3259 148.703 18.1519Z" fill="#8D9E36"/>
<path d="M141.258 59.0829C141.257 59.0829 141.257 59.0829 141.258 59.0829L129.826 59.0259C129.735 59.0259 129.662 58.9519 129.663 58.8609C129.663 58.7709 129.737 58.6979 129.827 58.6979H129.828L141.259 58.7549C141.35 58.7549 141.423 58.8289 141.422 58.9199C141.422 59.0099 141.348 59.0829 141.258 59.0829Z" fill="#3A2127"/>
<path d="M76.2233 46.2909C71.0213 43.9979 70.5613 33.6129 75.1973 23.0949C79.8333 12.5769 87.8083 5.90989 93.0103 8.20189C98.2123 10.4949 98.6723 20.8799 94.0373 31.3979C89.4013 41.9159 81.4263 48.5839 76.2233 46.2909Z" fill="#AFC547"/>
<path d="M76.2233 46.4549C76.2013 46.4549 76.1783 46.4499 76.1573 46.4409C76.0743 46.4039 76.0363 46.3069 76.0733 46.2239L92.8603 8.1359C92.8973 8.0529 92.9933 8.0159 93.0773 8.0519C93.1603 8.0889 93.1983 8.18589 93.1613 8.26889L76.3743 46.3569C76.3463 46.4179 76.2863 46.4549 76.2233 46.4549Z" fill="#3A2127"/>
<path d="M148.703 18.3159C148.684 18.3159 148.665 18.3129 148.646 18.3059L113.314 5.25791C113.229 5.22691 113.185 5.13191 113.217 5.04691C113.249 4.96191 113.343 4.91791 113.428 4.94991L148.76 17.9979C148.845 18.0289 148.889 18.1239 148.857 18.2089C148.833 18.2749 148.77 18.3159 148.703 18.3159Z" fill="#3A2127"/>
<path d="M103.609 46.9229C103.603 46.9229 103.597 46.9229 103.591 46.9229C103.41 46.9129 103.271 46.7579 103.28 46.5769C103.939 34.2259 104.533 1.90591 99.4343 0.688908C98.2963 0.415908 96.2103 1.75492 92.7243 9.66492C92.6513 9.83092 92.4573 9.90592 92.2913 9.83292C92.1253 9.75992 92.0503 9.56592 92.1233 9.39992C95.1103 2.62292 97.5513 -0.436085 99.5873 0.0499153C102.48 0.739915 104.028 8.59291 104.319 24.0559C104.531 35.3009 103.943 46.4999 103.937 46.6119C103.928 46.7869 103.783 46.9229 103.609 46.9229Z" fill="#3A2127"/>
<path d="M152.769 60.1024C159.29 54.1968 154.897 38.7222 142.957 25.5389C131.017 12.3557 116.051 6.45608 109.531 12.3617C103.01 18.2674 107.403 33.742 119.343 46.9252C131.283 60.1084 146.249 66.0081 152.769 60.1024Z" fill="#AFC547"/>
<path d="M152.765 60.2669C152.72 60.2669 152.676 60.2489 152.643 60.2129L109.406 12.4729C109.345 12.4059 109.35 12.3019 109.418 12.2409C109.485 12.1799 109.589 12.1849 109.65 12.2519L152.887 59.9919C152.948 60.0589 152.943 60.1629 152.876 60.2239C152.844 60.2529 152.805 60.2669 152.765 60.2669Z" fill="#3A2127"/>
<path d="M101.87 47.9499C101.72 47.9499 101.584 47.8459 101.55 47.6929C101.215 46.1989 93.4282 11.0709 100.62 7.34294C102.821 6.20194 105.966 7.94093 110.236 12.6549C110.358 12.7889 110.348 12.9969 110.213 13.1189C110.078 13.2409 109.87 13.2309 109.749 13.0959C105.764 8.69594 102.794 6.95693 100.923 7.92593C94.1773 11.4239 102.111 47.1879 102.192 47.5489C102.232 47.7259 102.12 47.9019 101.943 47.9409C101.918 47.9479 101.894 47.9499 101.87 47.9499Z" fill="#3A2127"/>
<path d="M107.084 48.4889C106.942 48.4889 106.811 48.3969 106.769 48.2529C106.362 46.8769 96.9103 14.4639 105.604 6.32888C107.864 4.21388 111.15 3.93288 115.372 5.49088C115.542 5.55388 115.629 5.7429 115.566 5.9129C115.503 6.0829 115.314 6.1699 115.144 6.1069C111.175 4.6409 108.117 4.87688 106.053 6.80788C97.6533 14.6679 107.301 47.7329 107.399 48.0659C107.45 48.2399 107.351 48.4229 107.177 48.4739C107.146 48.4849 107.115 48.4889 107.084 48.4889Z" fill="#3A2127"/>
<path d="M229.718 64.6349C227.484 65.3509 221.422 67.0699 214.516 67.0699C214.345 67.0699 214.174 67.0699 214.003 67.0669H213.973C216.5 65.6019 217.745 63.0359 214.837 60.8149C210.32 57.3649 204.323 60.2399 199.477 58.4329C196.274 57.2369 197.772 53.9939 199.224 51.8649C202.431 56.0339 207.349 58.1139 214.114 58.1959C214.249 58.1989 214.39 58.1989 214.525 58.1989C219.253 58.1989 223.531 57.1999 225.814 56.5499C228.099 58.6029 229.433 61.6549 229.718 64.6349Z" fill="#F4E0C7"/>
<path d="M230.622 64.3259C230.563 64.3489 230.247 64.4609 229.718 64.6349C228.516 65.0189 226.202 65.6959 223.246 66.2379C223.134 65.5479 223.078 64.8379 223.078 64.1159C223.078 61.3919 223.889 58.8489 225.299 56.6939C225.48 56.6449 225.654 56.5949 225.815 56.5489C226.902 56.2369 227.54 56.0069 227.56 55.9999C229.857 55.1519 232.406 56.3319 233.254 58.6319C234.098 60.9289 232.922 63.4789 230.622 64.3259Z" fill="#7A4438"/>
<path d="M58.361 49.284C57.405 54.58 56.4751 64.1179 48.6981 67.9619C45.6951 69.4499 41.667 70.0879 36.223 69.3019C32.389 68.7499 29.8201 63.3289 30.5461 58.5219C31.1211 54.7139 32.0611 50.5049 33.1021 46.4639C33.3291 45.5769 33.5621 44.6959 33.7991 43.8289C33.9471 43.2769 34.098 42.7309 34.249 42.1929C34.591 40.9769 34.929 39.798 35.264 38.674C35.51 37.83 35.7571 37.015 35.9931 36.243C36.2461 35.418 36.489 34.637 36.719 33.907C37.846 30.339 38.6571 28.0259 38.6571 28.0259L46.5191 29.9809C46.8011 30.0529 47.084 30.1289 47.357 30.2139C49.489 30.8679 51.388 31.9359 52.998 33.3059C54.131 34.2649 55.1171 35.3819 55.9351 36.6079C56.0171 36.7329 56.7601 36.2629 56.8381 36.3879C59.0671 39.9329 59.163 44.838 58.361 49.284Z" fill="#D8522A"/>
<path d="M52.0811 48.1109C58.4861 48.5649 62.1541 55.9069 60.6421 62.1479C59.8591 65.3789 57.7961 67.9619 55.1231 69.4939C54.3541 69.9349 53.6941 70.5549 53.2921 71.3459C52.6251 72.6589 52.3711 74.3619 53.9161 76.1689C53.9161 76.1689 54.2161 76.1699 54.3691 76.1679C57.3501 76.1319 59.7841 77.5529 59.8061 79.3419C59.8181 80.3789 59.0161 81.3129 57.7591 81.9209C56.8481 82.3609 55.6991 82.6309 54.4471 82.6459C54.3691 82.6469 54.2941 82.6429 54.2171 82.6419V82.6459C47.2561 82.6459 46.7231 80.9899 46.7231 80.9899C44.2411 78.1209 43.0681 72.1459 41.6971 62.6729C40.7791 56.3329 42.7401 47.4489 52.0811 48.1109Z" fill="#D8522A"/>
<path d="M61.604 25.3589C62.9 24.4719 65.189 23.7589 67.756 24.3479C70.662 25.0149 72.693 26.9689 72.293 28.7129C72.061 29.7239 71.062 30.4429 69.696 30.7379C68.707 30.9519 67.527 30.9429 66.307 30.6629C66.176 30.6329 66.048 30.5969 65.921 30.5619C65.405 32.9549 64.618 35.6139 63.442 38.7739C61.545 43.8719 54.446 44.6589 50.241 41.2089L48.488 39.7699C48.487 39.7679 59.852 26.5589 61.604 25.3589Z" fill="#D8522A"/>
<path d="M58.707 81.4959C58.686 81.4959 58.665 81.4919 58.645 81.4839C58.561 81.4499 58.521 81.3539 58.555 81.2699C58.66 81.0119 58.653 80.7629 58.534 80.5089C58.058 79.4989 56.018 78.8529 55.997 78.8459C55.91 78.8189 55.862 78.7269 55.889 78.6399C55.916 78.5529 56.007 78.5049 56.095 78.5319C56.184 78.5599 58.293 79.2279 58.831 80.3689C58.99 80.7059 58.999 81.0509 58.859 81.3939C58.833 81.4569 58.772 81.4959 58.707 81.4959Z" fill="#3A2127"/>
<path d="M56.9041 29.616C56.9041 29.616 60.5141 34.993 58.4341 48.711C56.3541 62.429 50.9521 63.864 50.9521 63.864L50.2851 62.944C47.8401 59.573 47.5251 56.382 49.8101 52.901C50.3931 52.014 50.5421 49.618 50.8021 47.52C52.4341 34.373 56.9041 29.616 56.9041 29.616Z" fill="#F4E0C7"/>
<path d="M59.1751 31.9119C47.0691 34.8979 39.0151 31.9219 38.0941 31.6589C34.1091 30.5159 37.6301 21.5189 37.6301 21.5189C38.5581 18.3539 40.9111 15.7219 44.0401 14.5029C44.1601 14.4549 44.2801 14.4109 44.4011 14.3699C44.9551 14.1749 45.5381 14.0229 46.1361 13.9249C46.2211 13.9089 46.3021 13.8939 46.3831 13.8829C46.5141 13.8609 46.6471 13.847 46.7791 13.836C52.4861 13.216 57.6831 17.3099 58.5271 22.9639C59.1751 27.2989 59.1751 31.9119 59.1751 31.9119Z" fill="#D8522A"/>
<path d="M45.298 72.3309C44.631 73.6449 44.378 75.3469 45.922 77.1539C45.922 77.1539 46.224 77.1539 46.375 77.1539C49.355 77.1179 51.789 78.5369 51.813 80.3279C51.826 81.3629 51.021 82.2989 49.766 82.9069C48.856 83.3469 47.706 83.6169 46.454 83.6299C46.375 83.6299 46.3 83.6269 46.224 83.6269V83.6299C39.262 83.6299 38.73 81.9739 38.73 81.9739C36.246 79.1059 35.073 73.1289 33.703 63.6569C32.783 57.3189 34.744 48.4349 44.085 49.0949C45.58 49.1999 46.927 49.6829 48.093 50.4389C48.448 50.6659 48.783 50.9219 49.102 51.1949C49.799 51.7999 50.413 52.5089 50.932 53.2949C51.307 53.8569 51.635 54.4579 51.911 55.0889V55.0919C52.989 57.5529 53.298 60.4439 52.647 63.1319C51.865 66.3649 49.802 68.9469 47.131 70.4779C46.359 70.9219 45.702 71.5389 45.298 72.3309Z" fill="#D8522A"/>
<path d="M70.755 30.552C70.722 30.552 70.688 30.542 70.659 30.521C70.585 30.468 70.569 30.365 70.622 30.292C70.79 30.059 70.845 29.808 70.789 29.524C70.576 28.434 68.844 27.339 68.827 27.328C68.75 27.28 68.727 27.178 68.775 27.101C68.823 27.024 68.925 27.001 69.001 27.049C69.077 27.097 70.871 28.232 71.111 29.46C71.184 29.833 71.109 30.177 70.888 30.483C70.857 30.528 70.806 30.552 70.755 30.552Z" fill="#3A2127"/>
<path d="M52.73 62.9229C52.692 62.9229 52.654 62.9099 52.622 62.8829C52.553 62.8239 52.546 62.7199 52.605 62.6509C57.167 57.3879 57.799 52.4009 58.261 48.7589L58.27 48.6899C58.946 43.3579 59.019 39.4299 58.531 34.6789C58.522 34.5889 58.587 34.5079 58.678 34.4989C58.768 34.4869 58.849 34.5549 58.858 34.6459C59.349 39.4239 59.276 43.3729 58.596 48.7309L58.587 48.8009C58.12 52.4839 57.481 57.5279 52.853 62.8659C52.822 62.9039 52.776 62.9229 52.73 62.9229Z" fill="#3A2127"/>
<path d="M55.8561 20.3849C55.9041 20.5579 55.9341 20.6649 55.9401 20.6809L49.6671 19.2559C49.6671 19.2559 49.3181 16.2929 49.1371 13.6899C49.0531 12.4439 49.0041 11.2769 49.0541 10.5639C49.1561 9.05994 49.5261 7.84094 50.4881 8.01694C51.0921 8.12994 51.6661 8.74293 52.1881 9.59693C53.5741 11.8689 55.4601 18.8989 55.8561 20.3849Z" fill="#D8522A"/>
<path d="M57.736 31.23C57.736 31.23 54.719 24.72 51.995 28.889C50.25 31.559 51.51 42.976 51.51 42.976L57.736 31.23Z" fill="#F4E0C7"/>
<path d="M38.6141 23.4929L42.0281 18.1969C42.0281 18.1969 40.1661 16.0069 38.3291 14.6829C37.0731 13.7809 35.8301 13.2819 35.2001 14.1689C34.8091 14.7239 34.8281 15.5869 35.0781 16.5659C35.8161 19.4599 38.5581 23.3909 38.6141 23.4929Z" fill="#D8522A"/>
<path d="M50.7121 82.4809C50.6911 82.4809 50.6701 82.4769 50.6501 82.4689C50.5661 82.4349 50.5261 82.3389 50.5601 82.2549C50.6681 81.9889 50.6641 81.7249 50.5461 81.4489C50.0941 80.3889 48.1741 79.6159 48.1541 79.6079C48.0701 79.5739 48.0291 79.4789 48.0621 79.3949C48.0961 79.3109 48.1911 79.2699 48.2751 79.3029C48.3591 79.3359 50.3431 80.1359 50.8481 81.3209C51.0001 81.6769 51.0051 82.0329 50.8641 82.3789C50.8381 82.4429 50.7771 82.4809 50.7121 82.4809Z" fill="#3A2127"/>
<path d="M45.098 18.1709C45.033 18.1709 44.971 18.1319 44.945 18.0679L43.2701 13.8859C43.2361 13.8019 43.277 13.7059 43.361 13.6729C43.445 13.6399 43.5411 13.6799 43.5751 13.7639L45.25 17.9459C45.284 18.0299 45.2431 18.1259 45.1591 18.1589C45.1391 18.1669 45.119 18.1709 45.098 18.1709Z" fill="#3A2127"/>
<path d="M44.621 18.4709C44.581 18.4709 44.54 18.4559 44.508 18.4259L42.756 16.7729C42.69 16.7109 42.687 16.6069 42.749 16.5409C42.812 16.4749 42.915 16.4709 42.981 16.5339L44.733 18.1869C44.799 18.2489 44.802 18.3529 44.74 18.4189C44.708 18.4539 44.665 18.4709 44.621 18.4709Z" fill="#3A2127"/>
<path d="M44.2561 23.1959C44.1221 23.2849 43.9791 23.3609 43.8271 23.4329C43.6381 23.5189 43.4361 23.6019 43.2251 23.6749C43.0281 23.7379 42.8341 23.7879 42.6411 23.8229C42.4601 23.8599 42.2821 23.8839 42.1061 23.8969C40.8261 24.0069 39.7351 23.5419 39.4521 22.6689C39.1671 21.8039 39.7681 20.7849 40.8631 20.1119C41.1761 19.9189 41.5211 19.7559 41.9021 19.6319C42.0311 19.5909 42.1601 19.5529 42.2901 19.5229C42.3701 19.5039 42.4501 19.4849 42.5311 19.4699C42.6971 19.4389 42.8551 19.4169 43.0161 19.4069C44.3001 19.2959 45.3921 19.7649 45.6741 20.6349C45.9621 21.5059 45.3561 22.5219 44.2561 23.1959Z" fill="white"/>
<path d="M41.7521 24.0789C41.4141 24.0789 41.0901 24.0389 40.7881 23.9589C40.0201 23.7559 39.4901 23.3149 39.2951 22.7199C39.1011 22.1269 39.2691 21.4599 39.7671 20.8409C40.2501 20.2419 40.9901 19.7559 41.8511 19.4749C42.0501 19.4099 42.2621 19.3539 42.4981 19.3059C44.0931 19.0069 45.4911 19.5449 45.8311 20.5819C46.1761 21.6359 45.3811 22.8689 43.8991 23.5799C43.6761 23.6819 43.4731 23.7619 43.2741 23.8269C42.7641 23.9949 42.2441 24.0789 41.7521 24.0789ZM43.3701 19.5519C43.1111 19.5519 42.8401 19.5769 42.5621 19.6289C42.3411 19.6749 42.1411 19.7269 41.9541 19.7879C41.1531 20.0499 40.4671 20.4979 40.0241 21.0479C39.5981 21.5769 39.4501 22.1349 39.6081 22.6179C39.7671 23.1039 40.2161 23.4679 40.8721 23.6409C41.5531 23.8219 42.3701 23.7769 43.1731 23.5139C43.3591 23.4529 43.5521 23.3769 43.7601 23.2809C45.0651 22.6549 45.8061 21.5619 45.5191 20.6829C45.2881 19.9779 44.4371 19.5519 43.3701 19.5519Z" fill="#3A2127"/>
<path d="M44.2561 23.1959C44.1221 23.2849 43.9791 23.3609 43.8271 23.4329C43.6381 23.5189 43.436 23.6019 43.225 23.6749C43.028 23.7379 42.834 23.7879 42.641 23.8229C42.116 23.3429 41.7491 22.6859 41.6441 21.9229C41.5211 21.0319 41.7781 20.1789 42.2911 19.5229C42.3711 19.5039 42.4511 19.4849 42.5321 19.4699C42.6981 19.4389 42.856 19.4169 43.017 19.4069C44.301 19.2959 45.3931 19.7649 45.6751 20.6349C45.9621 21.5059 45.3561 22.5219 44.2561 23.1959Z" fill="#3A2127"/>
<path d="M49.113 16.857C49.04 16.857 48.973 16.8079 48.954 16.7329L47.833 12.37C47.81 12.282 47.863 12.193 47.951 12.17C48.039 12.148 48.128 12.2 48.151 12.288L49.272 16.6509C49.295 16.7389 49.242 16.828 49.154 16.851C49.14 16.856 49.126 16.857 49.113 16.857Z" fill="#3A2127"/>
<path d="M49.6751 16.818C49.6651 16.818 49.6551 16.817 49.6451 16.815C49.5561 16.798 49.4971 16.713 49.5131 16.624L49.9501 14.255C49.9661 14.166 50.0511 14.109 50.1411 14.123C50.2301 14.14 50.2891 14.225 50.2731 14.314L49.8361 16.683C49.8221 16.763 49.7531 16.818 49.6751 16.818Z" fill="#3A2127"/>
<path d="M55.1111 19.648C54.9771 19.734 54.833 19.809 54.681 19.881C54.491 19.966 54.2901 20.054 54.0791 20.122C53.8941 20.183 53.711 20.232 53.53 20.265C53.338 20.304 53.149 20.334 52.961 20.348C51.68 20.454 50.589 19.989 50.307 19.116C50.022 18.251 50.6231 17.232 51.7191 16.563C52.0321 16.37 52.3761 16.203 52.7581 16.08C52.8031 16.066 52.8531 16.051 52.8991 16.041C53.0661 15.99 53.2301 15.948 53.3871 15.918C53.5531 15.887 53.7111 15.865 53.8721 15.855C55.1571 15.748 56.248 16.214 56.53 17.083C56.816 17.955 56.2101 18.97 55.1111 19.648Z" fill="white"/>
<path d="M52.62 20.5239C51.42 20.5239 50.429 20.0259 50.149 19.1689C49.955 18.5759 50.123 17.9089 50.621 17.2899C51.104 16.6909 51.844 16.2049 52.705 15.9239C52.901 15.8599 53.113 15.8039 53.352 15.7549C54.945 15.4559 56.346 15.9939 56.685 17.0309C57.03 18.0849 56.236 19.3169 54.754 20.0279C54.532 20.1299 54.328 20.2099 54.129 20.2749C53.614 20.4449 53.101 20.5239 52.62 20.5239ZM54.224 16.0009C53.965 16.0009 53.694 16.0259 53.416 16.0779C53.192 16.1239 52.992 16.1769 52.808 16.2379C52.007 16.4999 51.321 16.9469 50.878 17.4979C50.452 18.0269 50.304 18.5849 50.462 19.0679C50.798 20.0949 52.397 20.4979 54.028 19.9639C54.215 19.9029 54.407 19.8269 54.615 19.7309C55.92 19.1049 56.661 18.0119 56.374 17.1329C56.142 16.4269 55.291 16.0009 54.224 16.0009Z" fill="#3A2127"/>
<path d="M55.111 19.648C54.977 19.734 54.833 19.809 54.681 19.881C54.491 19.966 54.29 20.054 54.079 20.122C53.894 20.183 53.711 20.232 53.53 20.265C52.929 19.776 52.507 19.068 52.393 18.243C52.282 17.441 52.483 16.667 52.898 16.041C53.065 15.99 53.229 15.948 53.386 15.918C53.552 15.887 53.71 15.865 53.871 15.855C55.156 15.748 56.247 16.214 56.529 17.083C56.816 17.955 56.21 18.97 55.111 19.648Z" fill="#3A2127"/>
<path d="M49.102 51.1959C48.658 53.5479 42.528 60.5729 39.926 63.3659C37.988 65.4459 38.086 61.1939 41.74 56.2789C42.982 54.6069 45.752 50.7889 48.094 50.4409C48.448 50.6669 48.784 50.9229 49.102 51.1959Z" fill="#F46831"/>
<path d="M51.911 55.0889V55.0919C51.724 55.8509 51.445 56.6989 51.057 57.6089C50.567 58.7519 49.47 60.9799 46.993 62.0579C44.792 63.0169 48.534 57.7829 50.932 53.2959C51.307 53.8569 51.635 54.4579 51.911 55.0889Z" fill="#F46831"/>
<path d="M48.86 22.697C48.791 22.697 48.727 22.6529 48.704 22.5839L48.435 21.762C48.407 21.676 48.454 21.583 48.54 21.555C48.627 21.528 48.719 21.574 48.747 21.66L49.016 22.482C49.044 22.568 48.997 22.661 48.911 22.689C48.894 22.695 48.877 22.697 48.86 22.697Z" fill="#3A2127"/>
<path d="M47.596 21.2059C47.732 21.6199 48.177 21.8459 48.591 21.7109C49.005 21.5759 49.231 21.1299 49.096 20.7159C48.961 20.3019 48.439 21.2439 48.439 21.2439C48.439 21.2439 47.461 20.7919 47.596 21.2059Z" fill="#3A2127"/>
<path d="M48.353 22.8729C48.078 22.8729 47.805 22.8119 47.55 22.6909C47.097 22.4759 46.754 22.0969 46.585 21.6249C46.554 21.5399 46.599 21.4459 46.684 21.4149C46.77 21.3829 46.864 21.4289 46.894 21.5139C47.033 21.9039 47.316 22.2169 47.69 22.3939C48.064 22.5709 48.485 22.5919 48.875 22.4529C49.265 22.3139 49.577 22.0309 49.755 21.6569C49.932 21.2829 49.953 20.8619 49.814 20.4719C49.783 20.3869 49.828 20.2929 49.913 20.2619C49.998 20.2299 50.093 20.2759 50.123 20.3609C50.292 20.8339 50.266 21.3439 50.051 21.7969C49.836 22.2499 49.457 22.5929 48.985 22.7619C48.78 22.8369 48.566 22.8729 48.353 22.8729Z" fill="#3A2127"/>
<path d="M49.7651 83.0709C49.7041 83.0709 49.6451 83.0369 49.6171 82.9779C49.5771 82.8959 49.6121 82.7979 49.6931 82.7579C50.9461 82.1519 51.6591 81.2669 51.6481 80.3289C51.6281 78.6339 49.2531 77.2759 46.3771 77.3169C46.2241 77.3189 45.9221 77.3179 45.9221 77.3179H45.8461L45.7971 77.2609C44.4701 75.7089 44.2531 74.0249 45.1511 72.2559C45.5421 71.4869 46.1971 70.8229 47.0461 70.3359C49.8061 68.7539 51.7391 66.1819 52.4871 63.0939C53.3191 59.6589 52.5651 55.7849 50.5181 52.9849C48.8931 50.7619 46.6051 49.4389 44.0741 49.2599C43.9841 49.2529 43.9151 49.1749 43.9221 49.0839C43.9281 48.9939 44.0071 48.9229 44.0971 48.9319C46.7261 49.1179 49.1001 50.4889 50.7831 52.7909C52.8861 55.6669 53.6611 59.6449 52.8061 63.1709C52.0361 66.3469 50.0491 68.9929 47.2091 70.6209C46.4161 71.0759 45.8051 71.6929 45.4431 72.4049C44.6221 74.0219 44.8081 75.5639 45.9971 76.9899C46.0971 76.9899 46.2681 76.9899 46.3711 76.9889C49.4401 76.9629 51.9521 78.4489 51.9741 80.3259C51.9871 81.3959 51.2071 82.3909 49.8341 83.0549C49.8131 83.0649 49.7891 83.0709 49.7651 83.0709Z" fill="#3A2127"/>
<path d="M63.6701 32.1359C63.5251 33.1649 62.5891 33.9659 61.2551 34.3739C60.2861 34.6699 59.1101 34.7619 57.8711 34.5839C57.6211 34.5509 57.3821 34.5019 57.1451 34.4489C56.6291 36.9229 55.8241 39.6799 54.5951 42.9819C52.6991 48.0809 45.5991 48.8699 41.3941 45.4159L39.6431 43.9769C39.6431 43.9769 43.4411 39.6659 47.1541 35.6879C47.7821 35.0179 48.4061 34.3539 49.0101 33.7229C49.2761 33.4439 49.5421 33.1679 49.8021 32.9019C50.3771 32.3069 50.9261 31.7549 51.4251 31.2689C52.5191 30.1949 53.3861 29.4259 53.8371 29.1889C54.8821 28.3119 56.7481 27.8809 58.7821 28.1699C61.7351 28.5909 63.9231 30.3649 63.6701 32.1359Z" fill="#D8522A"/>
<path d="M53.3831 34.2589C52.8241 34.6989 51.4641 34.2389 49.8021 32.9019C50.3771 32.3069 50.9261 31.7549 51.4251 31.2689C52.5451 32.4349 53.8141 33.9169 53.3831 34.2589Z" fill="#F46831"/>
<path d="M51.8921 39.0189C49.8711 39.0949 48.0741 36.9979 47.1541 35.6879C47.7821 35.0179 48.4061 34.3539 49.0101 33.7229C50.5351 35.3499 53.6991 38.9539 51.8921 39.0189Z" fill="#F46831"/>
<path d="M47.106 35.906C47.069 35.906 47.031 35.893 47 35.867C46.931 35.809 46.922 35.7049 46.98 35.6359C47.167 35.4149 51.565 30.2209 53.743 29.0519C54.863 28.1239 56.8 27.7249 58.804 28.0089C61.841 28.4409 64.097 30.303 63.833 32.161C63.682 33.221 62.76 34.085 61.302 34.531C60.518 34.771 59.282 35.004 57.842 34.747C56.329 34.477 55.0451 33.301 54.9911 33.251C54.9241 33.189 54.92 33.086 54.982 33.019C55.043 32.952 55.1471 32.948 55.2141 33.01C55.2271 33.022 56.484 34.172 57.9 34.424C59.275 34.668 60.457 34.447 61.206 34.217C62.537 33.81 63.376 33.043 63.508 32.115C63.746 30.436 61.616 28.7399 58.759 28.3339C56.836 28.0599 54.99 28.4369 53.941 29.3149L53.913 29.3339C51.796 30.4569 47.277 35.794 47.232 35.848C47.199 35.886 47.153 35.906 47.106 35.906Z" fill="#3A2127"/>
<path d="M62.2801 34.1009C62.2511 34.1009 62.2221 34.0939 62.1961 34.0779C62.1181 34.0309 62.0931 33.9299 62.1401 33.8529C62.2781 33.6229 62.3021 33.4109 62.2121 33.2029C61.9001 32.4799 60.2981 31.9849 59.7071 31.8549C59.6181 31.8359 59.5621 31.7479 59.5821 31.6589C59.6011 31.5699 59.6891 31.5149 59.7781 31.5339C59.8711 31.5549 62.0721 32.0469 62.5141 33.0719C62.6461 33.3789 62.6161 33.6979 62.4221 34.0209C62.3901 34.0719 62.3361 34.1009 62.2801 34.1009Z" fill="#3A2127"/>
<path d="M48.0991 47.5239C48.0101 47.5239 47.9371 47.4529 47.9351 47.3629C47.9331 47.2729 48.0051 47.1969 48.0951 47.1949C53.2821 47.0799 54.3931 43.1089 54.4371 42.9399L56.9861 34.3999C57.0121 34.3129 57.1031 34.2639 57.1901 34.2889C57.2771 34.3149 57.3261 34.4059 57.3001 34.4929L54.7521 43.0279C54.7421 43.0659 53.5421 47.4019 48.1011 47.5219C48.1011 47.5239 48.0991 47.5239 48.0991 47.5239Z" fill="#3A2127"/>
<path d="M37.669 62.2349C36.164 65.2579 34.6561 68.0009 34.2191 71.1249C33.7531 74.4399 33.953 77.9519 31.555 80.4559C31.535 80.4789 31.5151 80.5019 31.4931 80.5249C30.8421 81.1919 30.054 81.7439 29.111 82.1839C28.224 82.6049 27.1991 82.9269 26.0261 83.1569C25.4151 83.2789 24.7611 83.3709 24.0651 83.4429C23.1121 83.5379 22.0841 83.5879 20.9671 83.5939C20.7111 83.5939 20.461 83.5969 20.211 83.5969C18.703 83.6039 17.3071 83.6099 16.0121 83.6129C14.4321 83.6159 12.999 83.6229 11.708 83.6229C10.417 83.6259 9.26705 83.6299 8.23905 83.6299H7.46305C2.12105 83.6299 0.531053 83.6039 0.432053 83.5999C-0.454947 83.5869 -0.802949 79.5589 7.96205 78.3889C10.7351 78.0179 14.4251 77.9359 19.2971 78.3529C19.8721 78.4019 20.463 78.4579 21.071 78.5239C21.978 78.6189 22.8021 78.6619 23.5451 78.6519C24.0711 78.6489 24.557 78.6189 25 78.5669C25.535 78.5039 26.0151 78.4089 26.4391 78.2809C27.2141 78.0509 27.802 77.7189 28.21 77.3049C28.525 76.9829 28.7521 76.5859 28.9071 76.1089C29.2451 75.0999 29.2851 73.7239 29.2681 71.9169C29.2681 71.6899 29.2651 71.4539 29.2611 71.2139C29.2541 70.6879 29.2441 70.1429 29.2481 69.5779C29.2511 66.6569 29.4851 63.2669 31.1601 59.8959C31.7251 58.7589 33.1051 58.2959 34.2421 58.8609C35.3791 59.4259 38.234 61.0979 37.669 62.2349Z" fill="#D8522A"/>
<path d="M32.5 67.1079C32.452 67.1079 32.404 67.0869 32.371 67.0459C29.565 63.5249 30.342 58.8019 30.35 58.7549C30.365 58.6649 30.451 58.6029 30.54 58.6209C30.629 58.6359 30.689 58.7209 30.674 58.8109C30.666 58.8569 29.916 63.4379 32.628 66.8419C32.684 66.9129 32.673 67.0159 32.602 67.0729C32.572 67.0959 32.536 67.1079 32.5 67.1079Z" fill="#3A2127"/>
<path d="M51.8571 77.0739C51.8051 77.0739 51.7531 77.0489 51.7211 77.0019C51.6701 76.9269 51.6891 76.8249 51.7641 76.7739C51.8291 76.7289 53.3761 75.6889 55.2011 76.0319C55.2901 76.0489 55.3491 76.1349 55.3321 76.2239C55.3151 76.3129 55.2301 76.3719 55.1401 76.3549C53.4501 76.0369 51.9651 77.0349 51.9501 77.0449C51.9211 77.0639 51.8891 77.0739 51.8571 77.0739Z" fill="#3A2127"/>
<path d="M68.1751 31.0489C68.1731 31.0489 68.17 31.0489 68.168 31.0489C64.254 30.8819 63.3801 29.1409 63.3451 29.0669C63.3061 28.9849 63.3411 28.8869 63.4231 28.8479C63.5051 28.8099 63.602 28.8439 63.641 28.9249C63.654 28.9499 64.498 30.5639 68.182 30.7209C68.273 30.7249 68.3431 30.8019 68.3391 30.8919C68.3351 30.9799 68.2631 31.0489 68.1751 31.0489Z" fill="#3A2127"/>
<path d="M41.087 32.7609C41.081 32.7609 41.075 32.7609 41.068 32.7599C35.786 32.1599 36.03 29.0119 36.033 28.9799C36.042 28.8899 36.123 28.8269 36.212 28.8329C36.302 28.8409 36.369 28.9219 36.36 29.0119C36.349 29.1289 36.159 31.8719 41.105 32.4339C41.195 32.4439 41.26 32.5259 41.25 32.6159C41.241 32.6989 41.17 32.7609 41.087 32.7609Z" fill="#3A2127"/>
<path d="M35.9891 55.93C36.4621 54.918 37.5151 52.957 39.7671 52.064C41.9731 51.189 37.4911 56.831 35.3221 60.974C34.6711 62.217 34.2821 59.58 35.9891 55.93Z" fill="#F46831"/>
<path d="M35.6151 42.3309C35.2311 42.2949 34.764 42.2519 34.248 42.1929C34.59 40.9769 34.928 39.798 35.263 38.674C38.276 39.098 41.331 39.6699 43.168 40.0569C46.168 40.6919 42.1861 42.9689 35.6151 42.3309Z" fill="#F46831"/>
<path d="M33.1021 46.465C33.3291 45.578 33.562 44.697 33.799 43.83C34.995 44.043 36.063 44.254 36.864 44.421C39.003 44.874 37.0411 46.287 33.1021 46.465Z" fill="#F46831"/>
<path d="M35.993 36.2429C36.246 35.4179 36.489 34.6369 36.719 33.9069C37.452 34.0449 38.102 34.1759 38.638 34.2879C40.563 34.6919 39.164 35.8819 35.993 36.2429Z" fill="#F46831"/>
<path d="M20.2101 83.597C18.7021 83.604 17.3061 83.61 16.0111 83.613C15.7251 82.45 15.1631 81.149 14.0821 80.009C12.4851 78.327 12.1891 81.185 11.7071 83.623C10.4161 83.626 9.26607 83.63 8.23807 83.63C7.88307 82.007 7.84407 80 7.96207 78.39C10.7351 78.019 14.4251 77.937 19.2971 78.354C19.8781 79.914 20.1141 81.961 20.2101 83.597Z" fill="#F46831"/>
<path d="M26.025 83.1569C25.414 83.2789 24.76 83.3709 24.064 83.4429C23.703 81.9779 23.607 80.0519 23.545 78.6529C24.071 78.6499 24.557 78.6199 25 78.5679C25.397 79.8259 25.854 81.6749 26.025 83.1569Z" fill="#F46831"/>
<path d="M31.5541 80.4559C31.5341 80.4789 31.5141 80.5019 31.4921 80.5249C30.8411 81.1919 30.0531 81.7439 29.1101 82.1839C28.0851 80.9979 27.1091 79.5159 26.4391 78.2809C27.2141 78.0509 27.8021 77.7189 28.2101 77.3049C28.5251 76.9829 28.7521 76.5859 28.9071 76.1089C29.7211 77.2989 30.7661 78.9479 31.5541 80.4559Z" fill="#F46831"/>
<path d="M31.998 72.2029C31.397 72.5019 30.2671 72.2519 29.2681 71.9169C29.2681 71.6899 29.265 71.4539 29.261 71.2139C29.254 70.6879 29.244 70.1429 29.248 69.5779C30.503 70.2739 32.928 71.7399 31.998 72.2029Z" fill="#F46831"/>
<path d="M43.8271 78.2399C43.7931 78.2399 43.7591 78.2299 43.7301 78.2079C43.6571 78.1539 43.6411 78.0529 43.6941 77.9799C43.7311 77.9289 44.6341 76.7349 47.7601 77.0799C47.8501 77.0899 47.9151 77.1709 47.9051 77.2609C47.8951 77.3509 47.8161 77.4179 47.7241 77.4059C44.8131 77.0839 43.9681 78.1629 43.9601 78.1729C43.9271 78.2169 43.8781 78.2399 43.8271 78.2399Z" fill="#3A2127"/>
</svg>
