<svg width="69" height="55" viewBox="0 0 69 55" fill="none" xmlns="http://www.w3.org/2000/svg">
<path d="M35.6937 42.6424C35.6937 42.6424 31.9428 43.0004 32.4478 47.2764L26.5087 50.0914C25.7927 50.8264 23.8817 49.6004 23.9067 48.5754C24.0527 42.5784 23.3207 30.9644 35.6937 27.7274V42.6424Z" fill="#3A2127"/>
<path d="M47.4608 32.0964C47.4608 32.0964 47.1108 51.8494 56.0458 52.7654C64.9798 53.6814 58.7178 48.3124 58.7178 48.3124L58.9478 31.6224L47.4608 32.0964Z" fill="#F4E0C7"/>
<path d="M46.7687 30.8124C44.4367 35.7264 46.9166 42.4244 52.3216 43.0334C57.8126 43.6514 61.7537 43.5864 65.2447 43.0744C70.5347 42.2984 62.4046 36.7384 62.4046 36.7384L47.7416 28.7634L46.7687 30.8124Z" fill="#F4E0C7"/>
<path d="M62.2557 18.9614L62.2577 27.5214C62.2577 27.8134 62.2506 28.1064 62.2336 28.3924C62.0296 32.1874 60.5027 35.6265 58.1057 38.2615C58.0037 38.3705 57.9017 38.4794 57.7997 38.5844C54.8987 41.6004 50.8207 43.4784 46.3047 43.4784H18.8057C18.0197 41.1254 17.6597 38.7145 17.6597 36.3605C17.6597 33.1165 18.3496 29.9874 19.5746 27.2974C21.8156 22.3734 25.8427 18.9214 30.7017 18.9214L62.2557 18.9614Z" fill="#F4E0C7"/>
<path d="M40.3167 32.0034C40.3167 34.2934 39.5117 36.4484 38.0927 38.3214C37.5567 39.0274 36.9357 39.6984 36.2397 40.3154C35.7867 40.7164 35.3037 41.1004 34.7877 41.4584C32.0047 43.4034 28.3647 44.6974 24.3197 45.0134C23.6957 45.0594 23.0577 45.0854 22.4177 45.0854C22.4177 45.0854 18.6657 45.4434 19.1717 49.7184L13.2317 52.5344C12.1317 52.8274 10.9747 52.5674 10.8107 51.0344C10.1727 45.0704 10.0447 33.4064 22.4177 30.1694V31.8124C22.4177 22.1034 35.9047 19.2684 39.5747 28.2604C39.5907 28.2964 39.6047 28.3324 39.6177 28.3724C39.6567 28.4744 39.6967 28.5764 39.7327 28.6784C40.1157 29.7394 40.3167 30.8534 40.3167 32.0034Z" fill="#F4E0C7"/>
<path d="M30.1737 22.7024C29.3557 23.6254 27.9498 23.7144 27.0268 22.8994C26.6518 22.5714 18.2578 15.3624 10.3888 19.9684C9.75776 20.3364 9.18674 20.7604 8.67074 21.2334C6.80474 22.9284 5.65476 25.2124 5.03976 27.5584C4.88876 28.1204 4.77378 28.6854 4.68478 29.2474C4.52078 30.2924 4.45175 31.3204 4.46475 32.2934C4.46475 32.3624 4.46774 32.4314 4.46774 32.5004C4.53374 35.0104 5.12472 37.3104 6.07772 39.0154C6.72772 40.1814 7.54273 41.0684 8.47573 41.5514C9.56973 42.1164 9.99673 43.4634 9.42873 44.5574C9.03073 45.3234 8.25278 45.7594 7.44778 45.7594C7.10278 45.7594 6.75075 45.6804 6.42275 45.5094C4.88875 44.7144 3.57375 43.4364 2.54275 41.8034C1.87875 40.7554 1.33077 39.5594 0.916772 38.2514C0.374772 36.5394 0.0597377 34.6374 0.00673773 32.6134C-0.0232623 31.4174 0.0457792 30.1464 0.236779 28.8514C0.272779 28.6014 0.312779 28.3554 0.361779 28.1054C1.07478 24.1494 2.92472 20.0564 6.43972 17.2764C6.96572 16.8594 7.53073 16.4714 8.13473 16.1164C18.8157 9.86343 29.5298 19.1554 29.9798 19.5534C30.9038 20.3694 30.9887 21.7784 30.1737 22.7024Z" fill="#F46831"/>
<path d="M15.8607 54.5534C17.1067 54.6804 18.2787 54.5434 19.2337 54.2094C20.5527 53.7484 21.4548 52.9114 21.5608 51.8794C21.7428 50.0994 19.4857 48.4114 16.5197 48.1084C13.5537 47.8054 11.0017 49.0024 10.8197 50.7824C10.6377 52.5624 12.8947 54.2504 15.8607 54.5534Z" fill="#F4E0C7"/>
<path d="M20.2417 53.8964C20.2147 53.8964 20.1877 53.8904 20.1627 53.8764C20.0827 53.8324 20.0537 53.7334 20.0977 53.6534C20.2267 53.4184 20.2417 53.2054 20.1447 53.0014C19.8047 52.2914 18.1847 51.8594 17.5887 51.7534C17.4997 51.7374 17.4397 51.6524 17.4557 51.5624C17.4717 51.4734 17.5557 51.4134 17.6467 51.4294C17.7407 51.4464 19.9587 51.8524 20.4417 52.8594C20.5857 53.1604 20.5677 53.4814 20.3867 53.8104C20.3557 53.8654 20.2997 53.8964 20.2417 53.8964Z" fill="#3A2127"/>
<path d="M56.6917 52.9104C57.9377 53.0374 59.1097 52.9004 60.0647 52.5664C61.3837 52.1054 62.2857 51.2694 62.3917 50.2364C62.5737 48.4564 60.3167 46.7684 57.3507 46.4654C54.3847 46.1624 51.8328 47.3594 51.6508 49.1394C51.4688 50.9194 53.7257 52.6074 56.6917 52.9104Z" fill="#F4E0C7"/>
<path d="M61.0728 52.2534C61.0458 52.2534 61.0187 52.2475 60.9937 52.2335C60.9137 52.1895 60.8847 52.0895 60.9287 52.0105C61.0577 51.7755 61.0727 51.5625 60.9757 51.3585C60.6357 50.6485 59.0158 50.2165 58.4198 50.1105C58.3308 50.0945 58.2708 50.0094 58.2868 49.9204C58.3028 49.8304 58.3868 49.7725 58.4768 49.7875C58.5708 49.8045 60.7887 50.2104 61.2717 51.2174C61.4157 51.5184 61.3978 51.8395 61.2168 52.1685C61.1868 52.2225 61.1308 52.2534 61.0728 52.2534Z" fill="#3A2127"/>
<path d="M63.1597 43.1104C64.4057 43.2374 65.5777 43.1004 66.5327 42.7664C67.8517 42.3054 68.7537 41.4694 68.8597 40.4364C69.0417 38.6564 66.7847 36.9684 63.8187 36.6654C60.8527 36.3624 58.3007 37.5594 58.1187 39.3394C57.9367 41.1194 60.1937 42.8074 63.1597 43.1104Z" fill="#F4E0C7"/>
<path d="M67.5408 42.4534C67.5138 42.4534 67.4868 42.4474 67.4618 42.4334C67.3818 42.3894 67.3528 42.2904 67.3968 42.2104C67.5258 41.9754 67.5408 41.7624 67.4438 41.5584C67.1038 40.8474 65.4838 40.4164 64.8878 40.3104C64.7988 40.2944 64.7388 40.2094 64.7548 40.1204C64.7708 40.0314 64.8548 39.9704 64.9458 39.9874C65.0398 40.0044 67.2578 40.4104 67.7398 41.4174C67.8848 41.7184 67.8658 42.0394 67.6858 42.3694C67.6548 42.4224 67.5988 42.4534 67.5408 42.4534Z" fill="#3A2127"/>
<path d="M28.9577 52.9084C30.2027 53.0354 31.3758 52.8984 32.3308 52.5644C33.6498 52.1034 34.5517 51.2664 34.6577 50.2344C34.8397 48.4544 32.5827 46.7664 29.6167 46.4634C26.6507 46.1604 24.0988 47.3574 23.9168 49.1374C23.7348 50.9174 25.9917 52.6054 28.9577 52.9084Z" fill="#3A2127"/>
<path d="M33.3388 52.2514C33.3118 52.2514 33.2847 52.2454 33.2597 52.2314C33.1797 52.1874 33.1507 52.0874 33.1947 52.0084C33.3237 51.7734 33.3387 51.5604 33.2417 51.3564C32.9017 50.6464 31.2818 50.2144 30.6858 50.1084C30.5968 50.0924 30.5368 50.0074 30.5528 49.9184C30.5688 49.8294 30.6527 49.7694 30.7437 49.7854C30.8377 49.8024 33.0558 50.2084 33.5388 51.2154C33.6828 51.5164 33.6647 51.8374 33.4837 52.1664C33.4527 52.2204 33.3968 52.2514 33.3388 52.2514Z" fill="#D39188"/>
<path d="M40.4717 24.9804C34.8197 25.6364 38.5607 33.3294 31.8847 35.0294C25.5387 36.6444 20.6927 31.9964 19.5737 27.2954C21.8147 22.3714 25.8417 18.9194 30.7007 18.9194L41.3177 18.9005C41.3177 18.9005 43.7317 20.1594 43.7587 20.3524C43.9787 21.9614 44.4487 24.5194 40.4717 24.9804Z" fill="#F46831"/>
<path d="M56.9966 43.8014C53.8926 43.8014 50.0427 43.4354 47.6247 42.4994C42.1727 40.3894 44.5637 30.2664 45.5027 27.6714C45.5337 27.5864 45.6286 27.5424 45.7126 27.5724C45.7976 27.6034 45.8426 27.6974 45.8116 27.7824C44.8966 30.3144 42.5407 40.1784 47.7437 42.1924C50.9647 43.4394 57.1807 43.6824 60.2187 43.3074C60.3097 43.2954 60.3907 43.3604 60.4017 43.4504C60.4127 43.5404 60.3487 43.6224 60.2587 43.6334C59.3917 43.7404 58.2556 43.8014 56.9966 43.8014Z" fill="#3A2127"/>
<path d="M22.4167 45.2495C22.3257 45.2495 22.2527 45.1765 22.2527 45.0855C22.2527 44.9945 22.3267 44.9214 22.4167 44.9214C23.0547 44.9214 23.6907 44.8975 24.3077 44.8495C28.1797 44.5495 31.8677 43.2984 34.6927 41.3254C35.9947 40.4154 37.0946 39.3715 37.9626 38.2235C39.3946 36.3295 40.1526 34.1785 40.1526 32.0035C40.1526 30.8935 39.9597 29.7935 39.5787 28.7335C39.5487 28.6485 39.5927 28.5545 39.6777 28.5235C39.7617 28.4935 39.8567 28.5375 39.8877 28.6225C40.2817 29.7175 40.4807 30.8555 40.4807 32.0035C40.4807 34.2515 39.7007 36.4705 38.2247 38.4215C37.3357 39.5965 36.2107 40.6645 34.8807 41.5945C32.0077 43.6005 28.2617 44.8725 24.3337 45.1765C23.7077 45.2255 23.0637 45.2495 22.4167 45.2495Z" fill="#3A2127"/>
<path d="M26.1938 20.1274C26.1318 20.1274 26.0728 20.0924 26.0448 20.0324C26.0058 19.9504 26.0418 19.8524 26.1238 19.8144C26.2088 19.7744 28.2258 18.8394 29.7838 18.7974C29.7858 18.7974 29.7878 18.7974 29.7878 18.7974C29.8768 18.7974 29.9498 18.8684 29.9518 18.9574C29.9538 19.0484 29.8828 19.1234 29.7918 19.1264C28.3018 19.1664 26.2818 20.1034 26.2618 20.1124C26.2408 20.1224 26.2168 20.1274 26.1938 20.1274Z" fill="#3A2127"/>
<path d="M8.67072 21.2334C8.37172 21.5064 8.08871 21.7924 7.82971 22.0944C7.13671 22.8824 6.56473 23.7604 6.10773 24.6864C5.64773 25.6064 5.29573 26.5754 5.03973 27.5584C4.88873 28.1204 4.77375 28.6854 4.68475 29.2474C3.35375 29.3164 1.82572 29.1324 0.235718 28.8534C0.271718 28.6034 0.311718 28.3574 0.360718 28.1074C0.843718 25.4334 1.8457 22.6924 3.5307 20.3404C4.9167 18.4054 7.96571 18.8984 8.65271 21.1784C8.66071 21.1974 8.66372 21.2134 8.67072 21.2334Z" fill="#3A2127"/>
<path d="M9.42975 44.5574C9.03175 45.3234 8.25373 45.7594 7.44873 45.7594C7.10373 45.7594 6.75171 45.6804 6.42371 45.5094C4.88971 44.7144 3.5747 43.4364 2.5437 41.8034C5.1527 41.3834 4.11174 37.2484 6.07874 39.0144C6.72874 40.1804 7.54375 41.0674 8.47675 41.5504C9.57075 42.1164 9.99775 43.4634 9.42975 44.5574Z" fill="#3A2127"/>
<path d="M5.03976 27.5584C4.88876 28.1204 4.77378 28.6854 4.68478 29.2474C4.52078 30.2924 4.45175 31.3204 4.46475 32.2934C4.33975 32.2604 4.21176 32.2244 4.08376 32.1854C0.498764 31.1044 0.965772 34.4854 0.916772 38.2534C0.374772 36.5414 0.0597377 34.6394 0.00673773 32.6154C-0.0232623 31.4194 0.0457792 30.1484 0.236779 28.8534C0.272779 28.6034 0.312779 28.3574 0.361779 28.1074C1.88578 27.4534 2.54276 25.1204 5.03976 27.5584Z" fill="#F4E0C7"/>
<path d="M7.82968 22.0944C7.13668 22.8824 6.56469 23.7604 6.10769 24.6864C4.57969 24.8964 2.86468 24.9924 2.76968 24.5814C2.60868 23.8784 5.25968 21.2594 7.82968 22.0944Z" fill="#F4E0C7"/>
<path d="M40.1878 21.5964C39.2528 23.8474 34.7027 19.5564 34.1107 19.9644C33.5117 20.3694 33.9408 24.2324 32.6928 24.0044C31.7948 23.8444 32.0198 20.7124 32.2298 18.9204H39.2528C40.0718 19.7334 40.5658 20.6894 40.1878 21.5964Z" fill="#3A2127"/>
<path d="M26.1937 27.1384C25.9757 26.9524 24.4027 25.3454 25.2537 24.2364C26.1037 23.1274 27.2937 24.0904 27.8467 25.7554C27.8467 25.7554 30.9928 22.4974 31.5028 25.0654C32.0128 27.6334 27.0447 29.4454 26.1937 28.7384C25.3437 28.0324 26.1937 27.1384 26.1937 27.1384Z" fill="#F4E0C7"/>
<path d="M62.2097 13.1994C62.2017 13.3744 62.1967 13.4824 62.1967 13.4994L56.8157 10.2774C56.8157 10.2774 57.3907 7.42643 58.0117 4.95843C58.3117 3.77843 58.6207 2.68243 58.8827 2.03643C59.4327 0.673432 60.1456 -0.343566 60.9836 0.110434C61.5086 0.398434 61.8547 1.14043 62.0797 2.09043C62.6767 4.61743 62.2927 11.7034 62.2097 13.1994Z" fill="#7A4438"/>
<path d="M43.6388 10.1205L47.7327 6.37145C47.7327 6.37145 46.7438 3.76445 45.5628 1.95945C44.7548 0.728447 43.8588 -0.130552 43.1248 0.478448C42.6688 0.860448 42.4728 1.65745 42.4378 2.63445C42.3348 5.52245 43.6188 10.0085 43.6388 10.1205Z" fill="#F46831"/>
<path d="M62.2138 13.2374C62.0928 7.66442 57.6828 3.01642 52.0888 2.85042C51.8758 2.84242 51.6637 2.84242 51.4547 2.85042C50.7337 2.87142 50.0297 2.96742 49.3537 3.12942C46.1697 3.88942 43.5407 6.11942 42.2257 9.05342L42.2248 9.04842C42.2248 9.04842 37.6217 17.2654 41.3167 18.9014C43.0607 19.6734 62.2558 19.2394 62.2558 19.2394L62.2157 13.4744C62.2177 13.3954 62.2178 13.3164 62.2138 13.2374Z" fill="#F4E0C7"/>
<path d="M49.6787 10.1144C49.5927 10.1144 49.5207 10.0474 49.5147 9.96043L49.2307 5.57743C49.2247 5.48743 49.2937 5.40843 49.3837 5.40343C49.4757 5.39943 49.5517 5.46643 49.5577 5.55643L49.8417 9.93942C49.8477 10.0294 49.7787 10.1084 49.6887 10.1144C49.6867 10.1144 49.6827 10.1144 49.6787 10.1144Z" fill="#3A2127"/>
<path d="M49.1467 10.2484C49.0887 10.2484 49.0318 10.2174 49.0028 10.1624L47.8797 8.09944C47.8367 8.01944 47.8658 7.91944 47.9458 7.87644C48.0248 7.83244 48.1257 7.86244 48.1687 7.94244L49.2918 10.0054C49.3348 10.0854 49.3057 10.1854 49.2257 10.2284C49.1997 10.2414 49.1727 10.2484 49.1467 10.2484Z" fill="#3A2127"/>
<path d="M49.0137 12.7024C49.0137 14.1284 46.3057 16.1214 44.2857 16.1214C42.2657 16.1214 41.6997 14.1284 41.6997 12.7024C41.6997 11.2764 43.3368 10.1204 45.3568 10.1204C47.3768 10.1204 49.0137 11.2764 49.0137 12.7024Z" fill="#F46831"/>
<path d="M49.4187 12.5584C49.4187 13.4554 48.5497 14.2124 47.3267 14.5054C47.1747 14.5444 47.0198 14.5724 46.8568 14.5934C46.6558 14.6144 46.4438 14.6324 46.2238 14.6324C45.8348 14.6324 45.4637 14.5864 45.1207 14.5014C43.9017 14.2154 43.0327 13.4514 43.0327 12.5584C43.0327 11.6714 43.8987 10.9084 45.1177 10.6184C45.4637 10.5334 45.8348 10.4874 46.2238 10.4874C46.4428 10.4874 46.6548 10.5014 46.8568 10.5264C47.0198 10.5474 47.1747 10.5754 47.3267 10.6144C48.5497 10.9044 49.4187 11.6674 49.4187 12.5584Z" fill="white"/>
<path d="M48.2817 12.5584C48.2817 13.3814 47.8997 14.0994 47.3277 14.5054C47.1757 14.5444 47.0207 14.5724 46.8577 14.5934C46.6567 14.6144 46.4447 14.6324 46.2247 14.6324C45.8357 14.6324 45.4647 14.5864 45.1217 14.5014C44.5497 14.0954 44.1677 13.3774 44.1677 12.5584C44.1677 11.7454 44.5457 11.0284 45.1187 10.6184C45.4647 10.5334 45.8357 10.4874 46.2247 10.4874C46.4437 10.4874 46.6557 10.5014 46.8577 10.5264C47.0207 10.5474 47.1757 10.5754 47.3277 10.6144C47.8997 11.0214 48.2817 11.7424 48.2817 12.5584Z" fill="#3A2127"/>
<path d="M46.2256 14.7954C44.3746 14.7954 42.8687 13.7924 42.8687 12.5594C42.8687 11.3264 44.3746 10.3234 46.2256 10.3234C46.4286 10.3234 46.6416 10.3364 46.8766 10.3624C48.4456 10.5694 49.5817 11.4934 49.5817 12.5594C49.5817 13.6424 48.4706 14.5454 46.8796 14.7554C46.6436 14.7824 46.4306 14.7954 46.2256 14.7954ZM46.2256 10.6514C44.5556 10.6514 43.1977 11.5074 43.1977 12.5594C43.1977 13.6114 44.5556 14.4674 46.2256 14.4674C46.4176 14.4674 46.6187 14.4554 46.8397 14.4304C48.2367 14.2464 49.2537 13.4594 49.2537 12.5604C49.2537 11.6614 48.2377 10.8744 46.8367 10.6894C46.6177 10.6644 46.4166 10.6514 46.2256 10.6514Z" fill="#3A2127"/>
<path d="M62.2178 13.4744V13.5034C62.2178 17.6224 54.0148 21.3384 48.9088 19.0744C47.7608 18.5654 48.5827 15.7964 49.6037 14.0284C50.7957 11.9654 51.4548 9.63544 51.4548 7.25044V2.84844C51.6628 2.84044 51.8758 2.84044 52.0888 2.84844C52.3428 2.85644 52.5928 2.87344 52.8438 2.90244C54.5198 3.06944 56.0658 3.64444 57.4038 4.52844C60.3088 6.43044 62.2178 9.76044 62.2178 13.4744Z" fill="#3A2127"/>
<path d="M53.7986 10.1144C53.7946 10.1144 53.7917 10.1144 53.7877 10.1144C53.6967 10.1084 53.6286 10.0304 53.6346 9.93941L53.9186 5.55642C53.9246 5.46642 54.0027 5.40042 54.0937 5.40342C54.1847 5.40942 54.2526 5.48741 54.2466 5.57741L53.9626 9.96042C53.9556 10.0474 53.8836 10.1144 53.7986 10.1144Z" fill="#D39188"/>
<path d="M54.3307 10.2484C54.3037 10.2484 54.2766 10.2424 54.2516 10.2284C54.1716 10.1854 54.1426 10.0854 54.1856 10.0054L55.3086 7.94243C55.3526 7.86243 55.4516 7.83343 55.5316 7.87643C55.6116 7.91943 55.6406 8.01943 55.5976 8.09943L54.4746 10.1624C54.4456 10.2174 54.3887 10.2484 54.3307 10.2484Z" fill="#D39188"/>
<path d="M62.2097 13.1994C62.1307 9.86043 60.5047 6.85944 58.0127 4.95844C58.3127 3.77844 58.6217 2.68244 58.8837 2.03644C59.2627 1.09444 59.7216 0.319433 60.2466 0.0814334C60.4806 -0.0315666 60.7257 -0.0315634 60.9847 0.110437C61.5097 0.398437 61.8557 1.14044 62.0807 2.09044C62.2557 2.82444 62.3436 3.94144 62.3846 5.19544C62.4806 8.26044 62.2677 12.1364 62.2097 13.1994Z" fill="#3A2127"/>
<path d="M60.5537 12.5584C60.5537 13.4554 59.6847 14.2124 58.4617 14.5054C58.3097 14.5444 58.1547 14.5724 57.9917 14.5934C57.7907 14.6144 57.5787 14.6324 57.3587 14.6324C56.9697 14.6324 56.5987 14.5864 56.2557 14.5014C55.0367 14.2154 54.1677 13.4514 54.1677 12.5584C54.1677 11.6714 55.0337 10.9084 56.2527 10.6184C56.5987 10.5334 56.9697 10.4874 57.3587 10.4874C57.5777 10.4874 57.7897 10.5014 57.9917 10.5264C58.1547 10.5474 58.3097 10.5754 58.4617 10.6144C59.6837 10.9044 60.5537 11.6674 60.5537 12.5584Z" fill="white"/>
<path d="M59.4157 12.5584C59.4157 13.3814 59.0337 14.0994 58.4617 14.5054C58.3097 14.5444 58.1547 14.5724 57.9917 14.5934C57.7907 14.6144 57.5787 14.6324 57.3587 14.6324C56.9697 14.6324 56.5987 14.5864 56.2557 14.5014C55.6837 14.0954 55.3018 13.3774 55.3018 12.5584C55.3018 11.7454 55.6797 11.0284 56.2527 10.6184C56.5987 10.5334 56.9697 10.4874 57.3587 10.4874C57.5777 10.4874 57.7897 10.5014 57.9917 10.5264C58.1547 10.5474 58.3097 10.5754 58.4617 10.6144C59.0337 11.0214 59.4157 11.7424 59.4157 12.5584Z" fill="#3A2127"/>
<path d="M57.3597 14.7954C55.5087 14.7954 54.0037 13.7924 54.0037 12.5594C54.0037 11.3264 55.5097 10.3234 57.3597 10.3234C57.5627 10.3234 57.7757 10.3364 58.0107 10.3624C59.5797 10.5694 60.7156 11.4934 60.7156 12.5594C60.7156 13.6424 59.6047 14.5454 58.0137 14.7554C57.7777 14.7824 57.5647 14.7954 57.3597 14.7954ZM57.3597 10.6514C55.6897 10.6514 54.3317 11.5074 54.3317 12.5594C54.3317 13.6114 55.6897 14.4674 57.3597 14.4674C57.5517 14.4674 57.7527 14.4554 57.9747 14.4304C59.3717 14.2464 60.3877 13.4594 60.3877 12.5604C60.3877 11.6614 59.3717 10.8744 57.9717 10.6894C57.7517 10.6644 57.5507 10.6514 57.3597 10.6514Z" fill="#D39188"/>
<path d="M54.6718 20.5184C54.5808 20.5184 54.5078 20.4454 54.5078 20.3544C54.5078 17.8614 53.2907 15.8334 51.7937 15.8334C50.2967 15.8334 49.0797 17.8614 49.0797 20.3544C49.0797 20.4454 49.0067 20.5184 48.9157 20.5184C48.8247 20.5184 48.7517 20.4454 48.7517 20.3544C48.7517 17.6804 50.1167 15.5054 51.7947 15.5054C53.4717 15.5054 54.8367 17.6804 54.8367 20.3544C54.8357 20.4444 54.7628 20.5184 54.6718 20.5184Z" fill="#715B89"/>
<path d="M50.7837 16.5404L51.7936 15.3474L52.8666 16.6554L50.7837 16.5404Z" fill="#3A2127"/>
<path d="M50.7847 16.6284C50.7467 16.6284 50.7087 16.6154 50.6777 16.5884C50.6087 16.5294 50.6007 16.4254 50.6597 16.3564L51.6297 15.2234V14.4404C51.6297 14.3494 51.7027 14.2764 51.7937 14.2764C51.8847 14.2764 51.9577 14.3504 51.9577 14.4404V15.3444L50.9088 16.5694C50.8768 16.6084 50.8307 16.6284 50.7847 16.6284Z" fill="#D39188"/>
<path d="M51.0247 13.6724C51.0247 14.0974 51.3686 14.4414 51.7936 14.4414C52.2186 14.4414 52.5627 14.0974 52.5627 13.6724C52.5627 13.2474 51.7936 13.9624 51.7936 13.9624C51.7936 13.9624 51.0247 13.2474 51.0247 13.6724Z" fill="#FFB3A1"/>
<path d="M52.8678 16.6284C52.8228 16.6284 52.7788 16.6104 52.7458 16.5744L51.6718 15.3954C51.6108 15.3284 51.6158 15.2244 51.6828 15.1634C51.7498 15.1024 51.8538 15.1074 51.9148 15.1744L52.9888 16.3534C53.0498 16.4204 53.0448 16.5244 52.9778 16.5854C52.9468 16.6134 52.9068 16.6284 52.8678 16.6284Z" fill="#D39188"/>
<path d="M51.2577 28.9014C50.9557 29.6854 51.7147 30.4684 52.5067 30.1874C55.6257 29.0804 56.6347 28.0134 57.3957 25.9894C58.2997 23.5864 57.0837 20.9044 54.6797 20.0014L51.2577 28.9014Z" fill="#715B89"/>
<path d="M54.4787 27.8114C54.1237 28.6584 54.5227 29.6324 55.3687 29.9874C56.2157 30.3424 57.1897 29.9434 57.5447 29.0974C57.7817 28.5324 57.6827 27.9104 57.3397 27.4534C57.1687 27.2254 56.9367 27.0394 56.6547 26.9204C56.3877 26.8084 56.1087 26.7714 55.8397 26.7994C55.2557 26.8614 54.7217 27.2314 54.4787 27.8114Z" fill="#715B89"/>
<path d="M53.5627 28.2794C53.6427 28.4744 53.8657 28.5684 54.0607 28.4884C54.2557 28.4084 54.3497 28.1854 54.2697 27.9904C54.1897 27.7954 53.9667 27.7014 53.7717 27.7814C53.5757 27.8614 53.4827 28.0844 53.5627 28.2794Z" fill="#3A2127"/>
<path d="M57.3838 27.6594C57.3338 27.6594 57.2848 27.6364 57.2528 27.5944C57.0778 27.3614 56.8418 27.1784 56.5718 27.0654C56.3158 26.9584 56.0358 26.9174 55.7618 26.9454C55.6738 26.9534 55.5908 26.8894 55.5818 26.7994C55.5718 26.7094 55.6378 26.6284 55.7278 26.6194C56.0548 26.5844 56.3918 26.6344 56.6988 26.7634C57.0228 26.8994 57.3048 27.1184 57.5158 27.3984C57.5708 27.4714 57.5558 27.5734 57.4838 27.6284C57.4528 27.6484 57.4178 27.6594 57.3838 27.6594Z" fill="#3A2127"/>
<path d="M51.2848 30.0044C51.4308 29.6564 51.8318 29.4924 52.1798 29.6384C52.5278 29.7844 52.6918 30.1854 52.5458 30.5334C52.3998 30.8814 51.9988 31.0454 51.6508 30.8994C51.3028 30.7534 51.1388 30.3524 51.2848 30.0044Z" fill="#3A2127"/>
<path d="M62.4048 36.9024C62.3778 36.9024 62.3508 36.8964 62.3258 36.8824L56.9428 33.9544C56.8628 33.9104 56.8338 33.8114 56.8768 33.7314C56.9208 33.6514 57.0198 33.6224 57.0998 33.6654L62.4828 36.5934C62.5628 36.6364 62.5918 36.7364 62.5488 36.8164C62.5188 36.8714 62.4628 36.9024 62.4048 36.9024Z" fill="#3A2127"/>
<path d="M44.0138 20.3684C43.9988 20.3684 43.9828 20.3664 43.9668 20.3614C40.4558 19.3204 39.9578 17.6714 39.9388 17.6014C39.9148 17.5144 39.9658 17.4234 40.0528 17.3994C40.1408 17.3744 40.2298 17.4264 40.2548 17.5124C40.2618 17.5354 40.7548 19.0664 44.0608 20.0464C44.1478 20.0724 44.1968 20.1634 44.1718 20.2504C44.1508 20.3224 44.0848 20.3684 44.0138 20.3684Z" fill="#3A2127"/>
</svg>
